<?xml version="1.0" encoding="UTF-8"?>
<svg width="2969px" height="967px" viewBox="0 0 2969 967" version="1.1" xmlns="http://www.w3.org/2000/svg" xmlns:xlink="http://www.w3.org/1999/xlink">
    <!-- Generator: Sketch 49.1 (51147) - http://www.bohemiancoding.com/sketch -->
    <title>logo_horizontal_color copy</title>
    <desc>Created with Sketch.</desc>
    <defs></defs>
    <g id="Logz.io-logo" stroke="none" stroke-width="1" fill="none" fill-rule="evenodd">
        <g id="logo_horizontal_color-copy" fill="#FFFFFF">
            <path d="M1223,684.260045 C1206.8693,693.815606 1164.42388,698 1143.5031,698 C1084.92698,698 1049.65643,667.522467 1049.65643,615.550037 L1049.65643,351.472802 L1015,347.881794 L1015,272 L1157.54581,272 L1157.54581,586.873124 C1157.54581,604.787243 1168.01644,612.552415 1188.92698,612.552415 L1211.05551,612.552415 L1223,684.260045 Z" id="Fill-1"></path>
            <path d="M1354.57556,542.396687 C1354.57556,607.624235 1364.75078,621.991717 1405.40049,621.991717 C1441.86342,621.991717 1451.4142,607.624235 1451.4142,542.396687 C1451.4142,476.564516 1441.86342,461.602659 1405.40049,461.602659 C1364.75078,461.602659 1354.57556,476.564516 1354.57556,542.396687 M1565,542.396687 C1565,656.701175 1521.96515,698 1405.40049,698 C1285.24277,698 1241,656.701175 1241,542.396687 C1241,427.487575 1285.24277,385 1405.40049,385 C1521.96515,385 1565,427.487575 1565,542.396687" id="Fill-3"></path>
            <path d="M1784.32874,461.646771 L1749.04652,461.646771 C1715.55606,461.646771 1704.79529,469.4159 1704.79529,496.956336 C1704.79529,524.486522 1716.75397,535.863478 1749.04652,535.863478 C1781.93291,535.863478 1792.09984,523.902299 1792.09984,496.361864 C1792.09984,479.593664 1789.11017,468.821429 1784.32874,461.646771 Z M1886.57142,461.646771 C1897.93626,473.013478 1900.92593,487.383293 1900.92593,501.742857 C1900.92593,564.592857 1854.87271,597.514286 1748.45268,597.514286 C1733.50433,597.514286 1708.31737,595.720621 1707.78496,595.720621 C1701.68275,595.700122 1700.39269,599.246453 1699.98315,600.640386 C1695.8058,614.856458 1707.25255,616.978107 1736.56567,622.102862 L1820.79864,634.627764 C1890.78972,645.359002 1908.09296,678.311179 1908.09296,719.626957 C1908.09296,773.488136 1878.81056,813 1745.45277,813 C1698.82618,813 1646.80385,807.608757 1603.16693,800.42385 L1603.16693,727.396086 C1655.77286,731.588136 1697.52588,735.154966 1746.56878,735.154966 C1786.63243,735.154966 1801.73437,733.955773 1801.73437,719.001737 C1802.33844,707.020059 1788.1887,703.494227 1756.88929,698.328474 L1679.69024,686.111057 C1629.4699,677.132485 1614.5113,648.382608 1615.70922,620.862671 C1616.3133,604.104721 1624.67823,587.951492 1639.03275,577.773728 C1607.33404,560.995279 1593,533.465093 1593,494.55795 C1593,416.753914 1649.79352,394 1749.64036,394 L1935,394 L1935,461.646771 L1886.57142,461.646771 Z" id="Fill-5"></path>
            <polygon id="Fill-7" points="2255 691 1969 691 1969 617.489302 2129.9448 466.906977 2051.57783 466.906977 2046.79323 503.355349 1973.79484 503.355349 1973.79484 394 2252.00835 394 2252.00835 466.906977 2092.24177 617.489302 2173.02665 618.093023 2177.82149 581.634419 2255 581.634419"></polygon>
            <path d="M2361.34887,589 C2390.04519,589 2399,597.989726 2399,626.797945 L2399,653.191781 C2399,682 2390.04519,691 2361.34887,691 L2335.6409,691 C2306.96504,691 2298,682 2298,653.191781 L2298,626.797945 C2298,597.989726 2306.96504,589 2335.6409,589 L2361.34887,589 Z" id="Fill-9"></path>
            <path d="M2505.44207,355.044175 C2484.5505,355.044175 2474.40608,344.869279 2474.40608,323.362784 L2474.40608,292.275098 C2474.40608,270.758366 2484.5505,260 2505.44207,260 L2552.55793,260 C2573.43928,260 2584.18644,270.758366 2584.18644,292.275098 L2584.18644,323.362784 C2584.18644,344.869279 2573.43928,355.044175 2552.55793,355.044175 L2505.44207,355.044175 Z M2617,691 L2441,691 L2441,615.067023 L2475.00882,611.484313 L2475.00882,473.396437 L2441,469.813728 L2441,393.890987 L2583.00139,393.890987 L2583.00139,611.484313 L2617,615.067023 L2617,691 Z" id="Fill-11"></path>
            <path d="M2758.58527,542.396687 C2758.58527,607.624235 2768.73905,621.991717 2809.39515,621.991717 C2845.85462,621.991717 2855.41473,607.624235 2855.41473,542.396687 C2855.41473,476.564516 2845.85462,461.602659 2809.39515,461.602659 C2768.73905,461.602659 2758.58527,476.564516 2758.58527,542.396687 M2969,542.396687 C2969,656.701175 2925.95899,698 2809.39515,698 C2689.25905,698 2645,656.701175 2645,542.396687 C2645,427.487575 2689.25905,385 2809.39515,385 C2925.95899,385 2969,427.487575 2969,542.396687" id="Fill-13"></path>
            <path d="M40.8621207,699.940877 L40.8621207,529.786561 L409.655421,739.540464 C414.93955,742.60234 421.114608,744.220322 427.494477,744.220322 C433.874346,744.220322 440.049404,742.60234 445.323292,739.530223 L640.303561,626.9781 C642.935385,625.452282 645.352158,623.588531 647.707487,621.274203 C648.833948,620.127279 649.837523,618.888192 650.88206,617.423817 C655.62344,611.105496 658.142618,603.722175 658.142618,596.072604 L658.142618,370.886434 C658.122136,358.229313 651.312164,346.411903 640.313802,340.03214 L445.302811,227.459536 C440.008442,224.39766 433.843624,222.789918 427.494477,222.789918 C421.124848,222.789918 414.970271,224.39766 409.675902,227.459536 L215.115496,339.786371 L60.2679825,249.087239 L421.626636,40.4597797 C423.275366,39.4971831 425.098186,38.9851636 427.699288,38.9237213 C429.716678,38.9544424 431.672625,39.4971831 433.352077,40.4700201 L808.248751,256.900657 C811.863669,258.989696 814.106352,262.891285 814.106352,267.059123 L814.116592,699.940877 C814.116592,702.337128 813.34855,704.712898 811.87391,706.771217 C811.402844,707.406121 810.860094,707.979583 810.05109,708.716891 C809.344491,709.351795 808.750539,709.802372 808.248751,710.099343 L433.372558,926.52998 C431.621423,927.533538 429.593792,928.066038 427.494477,928.066038 C425.395162,928.066038 423.367531,927.533538 421.616395,926.550461 L46.7402023,710.109584 C46.1974526,709.812613 45.5727784,709.321074 44.6716091,708.542804 C42.2548369,706.289918 40.8621207,703.156359 40.8621207,699.940877 Z M619.25921,396.610293 L619.279691,594.167892 L446.01965,694.585153 L446.01965,494.498179 L619.25921,396.610293 Z M427.095095,261.826284 L601.409913,362.048978 L422.865744,462.916817 L253.466394,362.499555 L427.095095,261.826284 Z M852.989759,267.059123 C852.989759,249.046278 843.291949,232.252039 827.685335,223.230255 L452.798901,6.78937838 C445.610028,2.64202054 437.632632,0.378894419 429.102245,0.0716827279 L427.463755,0 C418.59543,0 409.860232,2.35528963 402.190052,6.77913799 L27.3138593,223.209774 C19.705123,227.602902 13.3354944,233.951943 8.89109124,241.550312 L0.329982789,256.224791 C-0.335653634,257.371714 0.0330065387,258.856571 1.19018986,259.532437 L407.136243,498.788902 L407.136243,693.366547 L5.59363081,464.995616 C5.21473008,464.790808 4.80510766,464.678164 4.39548525,464.678164 C3.97562227,464.678164 3.5557593,464.790808 3.17685857,465.016097 C2.43953822,465.446193 1.97871301,466.234703 1.97871301,467.105136 L1.97871301,699.961358 C1.99919413,713.970211 7.91823801,727.477285 18.2714445,737.08277 L19.1418922,737.840559 C21.8658812,740.257291 24.5181863,742.192725 27.2728971,743.790226 L402.190052,960.220862 C409.880713,964.665191 418.626152,967 427.494477,967 C436.352561,967 445.118481,964.665191 452.798901,960.220862 L827.675094,743.779985 C830.409324,742.213206 833.051388,740.277772 835.765137,737.902001 L836.778952,737.000847 C839.246927,734.707 841.499851,732.167383 843.455798,729.45368 C849.70254,720.739108 853,710.549921 853,699.940877 L852.989759,267.059123 Z" id="Fill-15"></path>
        </g>
    </g>
</svg>