<?xml version="1.0" encoding="UTF-8"?>
<svg width="76px" height="59px" viewBox="0 0 76 59" version="1.1" xmlns="http://www.w3.org/2000/svg" xmlns:xlink="http://www.w3.org/1999/xlink">
    <!-- Generator: sketchtool 51 (57462) - http://www.bohemiancoding.com/sketch -->
    <title>44314243-C3AA-47B4-9C3A-40CC0E86BB90</title>
    <desc>Created with sketchtool.</desc>
    <defs></defs>
    <g id="Frontpage-usecase-blocks" stroke="none" stroke-width="1" fill="none" fill-rule="evenodd">
        <g id="6-sections" transform="translate(-1116.000000, -193.000000)" fill="#FFFFFF" fill-rule="nonzero" stroke="#FFFFFF">
            <g id="nonprofit" transform="translate(1117.000000, 194.000000)">
                <path d="M68.2267784,5.81793103 C64.4883248,2.04413793 59.5816045,0 54.3633463,0 C49.1450881,0 44.1604833,2.04413793 40.4999141,5.81793103 L36.9951139,9.35586207 L33.4903136,5.81793103 C25.8576375,-1.88689655 13.3961254,-1.88689655 5.76344932,5.81793103 C2.02499571,9.51310345 0,14.5448276 0,19.8124138 C0,25.08 2.02499571,30.1117241 5.76344932,33.8068966 L22.8980284,51.1034483 C26.4028286,54.6413793 31.0758957,56.6855172 36.0605005,56.9213793 C36.0605005,56.9213793 36.0605005,56.9213793 36.0605005,56.9213793 C36.1383849,56.9213793 36.2162694,56.9213793 36.2162694,56.9213793 C36.5278072,56.9213793 36.839345,57 37.1508828,57 C42.3691409,57 47.3537458,54.9558621 51.0143149,51.182069 L68.148894,33.8855172 C75.937339,26.102069 75.937339,13.5227586 68.2267784,5.81793103 Z M6.85383162,32.7062069 C3.50480026,29.2468966 1.55768901,24.6868966 1.55768901,19.8124138 C1.55768901,14.937931 3.50480026,10.377931 6.85383162,6.91862069 C13.8634321,-0.157241379 25.3124463,-0.157241379 32.3220469,6.91862069 L44.0047144,18.6331034 C44.7835589,19.4193103 45.1729812,20.3627586 45.1729812,21.4634483 C45.1729812,22.4855172 44.7835589,23.5075862 44.0047144,24.2937931 C42.5249098,25.7875862 39.954723,25.7875862 38.4749184,24.2937931 L31.4653179,17.217931 C30.9201268,16.6675862 30.2970512,16.4317241 29.8297445,16.7462069 C29.75186,16.7462069 29.75186,16.8248276 29.6739756,16.9034483 L23.3653351,23.2717241 C17.4461169,29.2468966 16.1220812,38.2096552 19.3932281,45.5213793 L6.85383162,32.7062069 Z M24.4557174,24.2151724 L30.2970512,18.3186207 L35.8268471,23.9006897 L19.4711126,40.4110345 C18.5364992,34.6717241 20.1720726,28.617931 24.4557174,24.2151724 Z M67.1363961,32.7062069 L50.0018171,50.0027586 C46.5749013,53.462069 42.0576031,55.3489655 37.2287672,55.3489655 C36.7614605,55.3489655 36.2941538,55.3489655 35.8268471,55.2703448 C35.8268471,55.2703448 35.7489627,55.2703448 35.7489627,55.2703448 C35.7489627,55.2703448 35.6710782,55.2703448 35.6710782,55.2703448 C35.1258871,55.1917241 34.5806959,55.1131034 34.0355048,55.0344828 L51.1700838,37.737931 C51.4816216,37.4234483 51.4816216,36.9517241 51.1700838,36.6372414 C50.858546,36.3227586 50.3912393,36.3227586 50.0797015,36.6372414 C50.0797015,36.6372414 32.3220469,54.5627586 32.2441624,54.6413793 C29.9855134,54.0124138 27.8826332,52.8331034 26.0134064,51.3393103 C25.9355219,51.2606897 25.3124463,50.7103448 25.1566774,50.5531034 L44.0047144,31.4482759 C44.3162522,31.1337931 44.3162522,30.5834483 44.0047144,30.2689655 C43.6931766,29.9544828 43.2258699,29.9544828 42.9143321,30.2689655 L23.9884107,49.3737931 C22.0412994,47.2510345 20.7172638,44.8137931 20.0163037,42.2193103 C20.0163037,42.2193103 20.0941882,42.2193103 20.0941882,42.1406897 L36.9951139,25.0013793 L37.3845361,25.3944828 C38.397034,26.4165517 39.7989541,27.0455172 41.2787586,27.0455172 C42.7585632,27.0455172 44.1604833,26.4951724 45.1729812,25.3944828 C46.185479,24.3724138 46.8085546,22.9572414 46.8085546,21.4634483 C46.8085546,19.9696552 46.2633635,18.5544828 45.1729812,17.5324138 L38.1633806,10.4565517 L41.6681809,6.91862069 C45.0950967,3.45931034 49.6123948,1.57241379 54.4412307,1.57241379 C59.2700667,1.57241379 63.7873648,3.45931034 67.2142806,6.91862069 C74.1459967,14.0731034 74.1459967,25.5517241 67.1363961,32.7062069 Z" id="Shape"></path>
            </g>
        </g>
    </g>
</svg>
