<?xml version="1.0" encoding="UTF-8"?>
<svg width="64px" height="73px" viewBox="0 0 64 73" version="1.1" xmlns="http://www.w3.org/2000/svg" xmlns:xlink="http://www.w3.org/1999/xlink">
    <!-- Generator: sketchtool 51 (57462) - http://www.bohemiancoding.com/sketch -->
    <title>806965B9-E305-474A-9105-8D3546E5DFF5</title>
    <desc>Created with sketchtool.</desc>
    <defs></defs>
    <g id="Frontpage-usecase-blocks" stroke="none" stroke-width="1" fill="none" fill-rule="evenodd">
        <g id="6-sections-(responsive)" transform="translate(-721.000000, -420.000000)" fill="#FFFFFF" stroke="#FFFFFF">
            <g id="government" transform="translate(722.000000, 421.000000)">
                <g id="Group">
                    <path d="M2.32177531,59.209697 L7.73925104,59.209697 L7.73925104,27.5393939 C7.73925104,26.1624242 8.85714286,25.0436364 10.3190014,25.0436364 L14.962552,25.0436364 C16.8543689,18.2448485 22.8737864,13.2533333 30.0110957,12.9090909 L30.0110957,6.54060606 L30.0110957,1.4630303 L30.0110957,1.3769697 C30.0970874,0.602424242 30.6990291,0 31.4729542,0 L39.9001387,0 C40.7600555,0 41.3619972,0.602424242 41.3619972,1.4630303 L41.3619972,6.54060606 C41.3619972,7.40121212 40.7600555,8.00363636 39.9001387,8.00363636 L31.4729542,8.00363636 C31.3869626,8.00363636 31.3869626,8.00363636 31.3009709,8.00363636 L31.3009709,12.8230303 C38.6962552,12.9951515 45.0596394,17.9866667 47.037448,25.0436364 L51.6809986,25.0436364 C53.0568655,25.0436364 54.260749,26.1624242 54.260749,27.5393939 L54.260749,59.209697 L59.6782247,59.209697 C60.9680999,59.209697 62,60.2424242 62,61.5333333 L62,68.6763636 C62,69.9672727 60.9680999,71 59.6782247,71 L2.32177531,71 C1.03190014,71 0,69.9672727 0,68.6763636 L0,61.5333333 C0,60.2424242 1.03190014,59.209697 2.32177531,59.209697 Z M9.02912621,30.3793939 L52.9708738,30.3793939 L52.9708738,27.5393939 C52.9708738,26.8509091 52.368932,26.3345455 51.6809986,26.3345455 L10.3190014,26.3345455 C9.63106796,26.3345455 9.02912621,26.8509091 9.02912621,27.5393939 L9.02912621,30.3793939 Z M52.9708738,31.670303 L9.02912621,31.670303 L9.02912621,59.209697 L13.3287101,59.209697 L13.3287101,37.350303 C13.3287101,36.489697 14.0166436,35.8872727 14.7905687,35.8872727 L19.9500693,35.8872727 C20.7239945,35.8872727 21.3259362,36.489697 21.3259362,37.350303 L21.3259362,59.209697 L27.001387,59.209697 L27.001387,37.350303 C27.001387,36.489697 27.6033287,35.8872727 28.4632455,35.8872727 L33.5367545,35.8872727 C34.3106796,35.8872727 34.998613,36.489697 34.998613,37.350303 L34.998613,59.209697 L40.5880721,59.209697 L40.5880721,37.350303 C40.5880721,36.489697 41.2760055,35.8872727 42.0499307,35.8872727 L47.2094313,35.8872727 C47.9833564,35.8872727 48.6712899,36.489697 48.6712899,37.350303 L48.6712899,59.209697 L52.9708738,59.209697 L52.9708738,31.670303 Z M31.4729542,1.29090909 L39.9001387,1.29090909 C39.9861304,1.29090909 40.0721221,1.3769697 40.0721221,1.4630303 L40.0721221,6.54060606 C40.0721221,6.62666667 39.9861304,6.71272727 39.9001387,6.71272727 L31.4729542,6.71272727 C31.3869626,6.71272727 31.3009709,6.62666667 31.3009709,6.54060606 L31.3009709,1.4630303 C31.3009709,1.3769697 31.3869626,1.29090909 31.4729542,1.29090909 Z M16.2524272,25.0436364 L45.6615811,25.0436364 C43.7697642,18.6751515 37.9223301,14.1139394 30.9570042,14.1139394 C24.0776699,14.1139394 18.2302358,18.6751515 16.2524272,25.0436364 Z M14.6185853,59.209697 L20.036061,59.209697 L20.036061,37.350303 C20.036061,37.2642424 20.036061,37.1781818 19.9500693,37.1781818 L14.7905687,37.1781818 C14.704577,37.1781818 14.6185853,37.2642424 14.6185853,37.350303 L14.6185853,59.209697 Z M28.2912621,59.209697 L33.7087379,59.209697 L33.7087379,37.350303 C33.7087379,37.2642424 33.6227462,37.1781818 33.5367545,37.1781818 L28.4632455,37.1781818 C28.3772538,37.1781818 28.2912621,37.2642424 28.2912621,37.350303 L28.2912621,59.209697 Z M41.8779473,59.209697 L47.3814147,59.209697 L47.3814147,37.350303 C47.3814147,37.2642424 47.295423,37.1781818 47.2094313,37.1781818 L42.0499307,37.1781818 C41.963939,37.1781818 41.8779473,37.2642424 41.8779473,37.350303 L41.8779473,59.209697 Z M2.32177531,60.5006061 L59.6782247,60.5006061 C60.1941748,60.5006061 60.7101248,60.9309091 60.7101248,61.5333333 L60.7101248,68.6763636 C60.7101248,69.1927273 60.1941748,69.7090909 59.6782247,69.7090909 L2.32177531,69.7090909 C1.71983356,69.7090909 1.28987517,69.1927273 1.28987517,68.6763636 L1.28987517,61.5333333 C1.28987517,60.9309091 1.71983356,60.5006061 2.32177531,60.5006061 Z" id="Shape"></path>
                    <polygon id="Shape" points="7.56726768 64.6315152 54.4327323 64.6315152 54.4327323 65.9224242 7.56726768 65.9224242"></polygon>
                </g>
            </g>
        </g>
    </g>
</svg>