<?xml version="1.0" encoding="UTF-8"?>
<svg width="64px" height="64px" viewBox="0 0 64 64" version="1.1" xmlns="http://www.w3.org/2000/svg" xmlns:xlink="http://www.w3.org/1999/xlink">
    <!-- Generator: Sketch 55.1 (78136) - https://sketchapp.com -->
    <title>icon-security-settings-64-white</title>
    <desc>Created with Sketch.</desc>
    <g id="icon-security-settings-64-white" stroke="none" stroke-width="1" fill="none" fill-rule="evenodd">
        <g id="Group" transform="translate(7.000000, 3.999800)" fill="#FFFFFF">
            <path d="M3,11.676 L3,21.729 C3,35.95 11.821,48.95 25,54.228 C38.179,48.95 47,35.95 47,21.729 L47,11.676 L25,3.215 L3,11.676 Z M25,57.444 L24.364,57.201 C9.79,51.595 0,37.34 0,21.729 L0,9.615 L25,-2.13162821e-14 L50,9.615 L50,21.729 C50,37.34 40.21,51.595 25.638,57.2 L25.536,57.239 L25,57.444 Z" id="Fill-1"></path>
            <polygon id="Fill-4" points="17 41.7226 20 41.7226 20 31.7226 17 31.7226"></polygon>
            <path d="M18.5,25.7229 C17.673,25.7229 17,25.0499 17,24.2229 C17,23.3959 17.673,22.7229 18.5,22.7229 C19.327,22.7229 20,23.3959 20,24.2229 C20,25.0499 19.327,25.7229 18.5,25.7229 M20,19.9989 L20,12.7229 L17,12.7229 L17,19.9989 C15.258,20.6199 14,22.2699 14,24.2229 C14,26.7039 16.019,28.7229 18.5,28.7229 C20.981,28.7229 23,26.7039 23,24.2229 C23,22.2699 21.742,20.6199 20,19.9989" id="Fill-6"></path>
            <polygon id="Fill-7" points="30 22.7226 33 22.7226 33 12.7226 30 12.7226"></polygon>
            <path d="M31.5,31.7229 C30.673,31.7229 30,31.0499 30,30.2229 C30,29.3959 30.673,28.7229 31.5,28.7229 C32.327,28.7229 33,29.3959 33,30.2229 C33,31.0499 32.327,31.7229 31.5,31.7229 M36,30.2229 C36,27.7419 33.981,25.7229 31.5,25.7229 C29.019,25.7229 27,27.7419 27,30.2229 C27,32.1759 28.258,33.8259 30,34.4469 L30,41.7229 L33,41.7229 L33,34.4469 C34.742,33.8259 36,32.1759 36,30.2229" id="Fill-8"></path>
        </g>
    </g>
</svg>