<?xml version="1.0" encoding="UTF-8"?>
<svg width="64px" height="64px" viewBox="0 0 64 64" version="1.1" xmlns="http://www.w3.org/2000/svg" xmlns:xlink="http://www.w3.org/1999/xlink">
    <!-- Generator: Sketch 55.1 (78136) - https://sketchapp.com -->
    <title>icon-watcher-64-white</title>
    <desc>Created with Sketch.</desc>
    <g id="icon-watcher-64-white" stroke="none" stroke-width="1" fill="none" fill-rule="evenodd">
        <path d="M19.105,45.3398 C15.195,40.9588 13.042,35.3258 13.042,29.4778 C13.042,23.6338 15.191,18.0048 19.095,13.6258 L21.334,15.6218 C17.921,19.4508 16.042,24.3708 16.042,29.4778 C16.042,34.5878 17.924,39.5118 21.343,43.3418 L19.105,45.3398 Z" id="Fill-1" fill="#FFFFFF"></path>
        <path d="M12.98,52.9658 C7.189,46.4798 4,38.1368 4,29.4748 C4,20.8208 7.184,12.4848 12.965,5.9998 L15.205,7.9958 C9.914,13.9308 7,21.5588 7,29.4748 C7,37.3988 9.918,45.0308 15.218,50.9678 L12.98,52.9658 Z" id="Fill-3" fill="#FFFFFF"></path>
        <path d="M45.895,45.3398 L43.657,43.3418 C47.076,39.5118 48.958,34.5878 48.958,29.4778 C48.958,24.3708 47.079,19.4508 43.666,15.6218 L45.905,13.6258 C49.809,18.0048 51.958,23.6338 51.958,29.4778 C51.958,35.3258 49.805,40.9588 45.895,45.3398" id="Fill-6" fill="#FFFFFF"></path>
        <path d="M52.02,52.9658 L49.782,50.9678 C55.082,45.0308 58,37.3988 58,29.4748 C58,21.5588 55.086,13.9308 49.795,7.9958 L52.035,5.9998 C57.816,12.4848 61,20.8208 61,29.4748 C61,38.1368 57.811,46.4798 52.02,52.9658" id="Fill-8" fill="#FFFFFF"></path>
        <path d="M33,34.998 C29.967,34.998 27.5,32.53 27.5,29.498 C27.5,26.466 29.967,23.998 33,23.998 C36.033,23.998 38.5,26.466 38.5,29.498 C38.5,32.53 36.033,34.998 33,34.998 M41.5,29.498 C41.5,24.811 37.687,20.998 33,20.998 C28.313,20.998 24.5,24.811 24.5,29.498 C24.5,33.672 27.527,37.145 31.5,37.857 L31.5,59.998 L34.5,59.998 L34.5,37.857 C38.473,37.145 41.5,33.672 41.5,29.498" id="Fill-11" fill="#FFFFFF"></path>
    </g>
</svg>