<?xml version="1.0" encoding="UTF-8"?>
<svg width="64px" height="64px" viewBox="0 0 64 64" version="1.1" xmlns="http://www.w3.org/2000/svg" xmlns:xlink="http://www.w3.org/1999/xlink">
    <!-- Generator: Sketch 55.1 (78136) - https://sketchapp.com -->
    <title>icon-timelion-64-white</title>
    <desc>Created with Sketch.</desc>
    <g id="icon-timelion-64-white" stroke="none" stroke-width="1" fill="none" fill-rule="evenodd">
        <path d="M38.8438,52.1728 L33.9628,46.3888 L40.9998,38.0478 L40.9998,25.4998 C40.9998,24.6728 41.6728,23.9998 42.4998,23.9998 L50.9998,23.9998 L50.9998,43.9058 L38.8438,52.1728 Z M32.4798,56.4998 L27.9218,53.5488 L31.9998,48.7148 L36.3488,53.8688 L32.4798,56.4998 Z M12.9998,23.9998 L21.4998,23.9998 C22.3268,23.9998 22.9998,24.6728 22.9998,25.4998 L22.9998,38.0478 L30.0368,46.3888 L25.3828,51.9038 L12.9998,43.8848 L12.9998,23.9998 Z M37.1158,37.9998 L31.9998,44.0628 L26.8838,37.9998 L37.1158,37.9998 Z M50.9998,12.9998 L50.9998,20.9998 L42.4998,20.9998 C40.0188,20.9998 37.9998,23.0188 37.9998,25.4998 L37.9998,34.9998 L25.9998,34.9998 L25.9998,25.4998 C25.9998,23.0188 23.9818,20.9998 21.4998,20.9998 L12.9998,20.9998 L12.9998,12.9998 L50.9998,12.9998 Z M9.9998,9.9998 L9.9998,45.5158 L32.5208,60.0998 L53.9998,45.4938 L53.9998,9.9998 L9.9998,9.9998 Z" id="Fill-1" fill="#FFFFFF"></path>
        <polygon id="Fill-4" fill="#FFFFFF" points="10 5.9996 54 5.9996 54 2.9996 10 2.9996"></polygon>
    </g>
</svg>