<?xml version="1.0" encoding="UTF-8"?>
<svg width="64px" height="64px" viewBox="0 0 64 64" version="1.1" xmlns="http://www.w3.org/2000/svg" xmlns:xlink="http://www.w3.org/1999/xlink">
    <!-- Generator: Sketch 55.1 (78136) - https://sketchapp.com -->
    <title>icon-monitoring-64-white</title>
    <desc>Created with Sketch.</desc>
    <g id="icon-monitoring-64-white" stroke="none" stroke-width="1" fill="none" fill-rule="evenodd">
        <path d="M6.6982,30.3121 C1.7572,23.7911 2.6782,14.4211 8.7982,8.9831 C15.3072,3.2001 25.3122,3.7881 31.0982,10.2931 L32.0002,11.3081 L32.9012,10.2941 C38.6872,3.7841 48.6922,3.1971 55.2022,8.9831 C60.9872,14.1251 62.2042,22.6111 58.0952,29.1621 L55.5542,27.5681 C58.8812,22.2631 57.8942,15.3901 53.2102,11.2251 C47.9362,6.5371 39.8332,7.0121 35.1432,12.2881 L32.0002,15.8261 L28.8562,12.2871 C24.1692,7.0171 16.0652,6.5411 10.7902,11.2251 C5.8352,15.6301 5.0872,23.2181 9.0892,28.5001 L6.6982,30.3121 Z" id="Fill-1" fill="#FFFFFF"></path>
        <polygon id="Fill-3" fill="#FFFFFF" points="32 59.1295 18.289 44.0645 20.508 42.0445 32 54.6725 43.492 42.0445 45.711 44.0645"></polygon>
        <polygon id="Fill-5" fill="#FFFFFF" points="32.0645 46.0553 24.7505 31.4263 22.0515 36.8223 3.0005 36.8223 3.0005 33.8223 20.1985 33.8223 24.7505 24.7173 31.9355 39.0883 41.1025 18.9203 47.4895 33.8223 61.0005 33.8223 61.0005 36.8223 45.5105 36.8223 41.0225 26.3483"></polygon>
    </g>
</svg>