<svg id="Layer_1" data-name="Layer 1" xmlns="http://www.w3.org/2000/svg" viewBox="0 0 808.81 346.29"><defs><style>.cls-1{fill:#85888c;}.cls-2{fill:#ee7917;}.cls-3{fill:#dc5809;}.cls-4{fill:#f9b500;}.cls-5{fill:#b5b6b6;}.cls-6{fill:#e8e9e8;}.cls-7{fill:#e2a200;}.cls-8{fill:#ffd600;}.cls-9{fill:#f7b700;}.cls-10{fill:#3a3c42;}</style></defs><title>logo-optum</title><path class="cls-1" d="M281.79,301.41a20.53,20.53,0,0,0-11.28-2.91c-9.89,0-16.11,7.73-16.11,17.33,0,6.56,4.54,11.85,11.45,11.85a10.55,10.55,0,0,0,4-.41l2.27-10.75h-8.61l1.34-6.39h16.45l-4.65,22.15a32.72,32.72,0,0,1-10.87,1.8c-11.92,0-19.89-5.47-19.89-18,0-14.83,9.71-24,24.36-24a38.24,38.24,0,0,1,13.54,2.27Z"/><path class="cls-1" d="M315.73,315.89c0,10.52-7.26,18.2-17.85,18.2-8.49,0-13.6-5.24-13.6-13.67A17.4,17.4,0,0,1,302,302.74c8.08,0,13.72,4.9,13.72,13.14m-8.14.06c0-3.89-1.34-7.15-5.93-7.15-6.16,0-9.24,6.81-9.24,12.21,0,4,1.63,7,6.1,7,6,0,9.07-7,9.07-12.09"/><path class="cls-1" d="M349.5,315.89c0,10.52-7.27,18.2-17.85,18.2-8.49,0-13.6-5.24-13.6-13.67a17.39,17.39,0,0,1,17.73-17.67c8.08,0,13.72,4.9,13.72,13.14m-8.14.06c0-3.89-1.34-7.15-5.93-7.15-6.16,0-9.24,6.81-9.24,12.21,0,4,1.63,7,6.1,7,6,0,9.07-7,9.07-12.09"/><path class="cls-1" d="M387.69,289.78l-8.08,37c-.47,2.56-.93,5.11-1.11,6.62h-7.27L372,329h-.12a11.07,11.07,0,0,1-9.77,5.11c-7.09,0-10.29-5.92-10.29-12.44,0-8.95,4.88-18.9,15.05-18.9a11.64,11.64,0,0,1,9.25,4.25l3.78-17.22ZM360,320.95c0,3,.93,7.09,4.77,7.09,5.7,0,9.07-6.63,9.07-12.15,0-3.49-1.69-7.09-5.64-7.09-5.58,0-8.2,7.67-8.2,12.15"/><path class="cls-1" d="M406.8,309.14h-6.05l1.23-5.7h6c1.57-7.62,4.13-14.36,13.2-14.36a16.63,16.63,0,0,1,4.83.75l-1.8,5.83a5.36,5.36,0,0,0-2.38-.53c-4.3,0-5.29,5.18-6,8.32h7l-1.21,5.7h-7l-5.12,24.25h-7.79Z"/><path class="cls-1" d="M452.42,315.89c0,10.52-7.26,18.2-17.85,18.2-8.49,0-13.6-5.24-13.6-13.67a17.4,17.4,0,0,1,17.73-17.67c8.08,0,13.72,4.9,13.72,13.14m-8.14.06c0-3.89-1.34-7.15-5.93-7.15-6.15,0-9.24,6.81-9.24,12.21,0,4,1.62,7,6.1,7,6,0,9.07-7,9.07-12.09"/><path class="cls-1" d="M458.93,307.45c.23-1.27.46-2.61.7-4h7.44l-1,5.64h.12c1.39-3.26,5.23-6.33,8.83-6.33a12.69,12.69,0,0,1,3,.29l-1.62,7.62a9.87,9.87,0,0,0-3-.47c-5.52,0-8.2,4.94-9.19,9.77l-2.79,13.43h-7.79Z"/><path class="cls-1" d="M492,303.45h5.65l1.33-6.17,8.37-2.73-1.92,8.9h7l-1.22,5.7h-7l-2.85,13.09a12.86,12.86,0,0,0-.34,2.9,2.77,2.77,0,0,0,3,2.91,10.38,10.38,0,0,0,3.78-.7l-1.34,6a20.69,20.69,0,0,1-4.18.69c-5.29,0-9-2.08-9-7.84a32.21,32.21,0,0,1,1-7l2.2-10.11h-5.64Z"/><path class="cls-1" d="M519.14,289.79h7.79l-3.71,16.56h.11a12.81,12.81,0,0,1,8.49-3.6c5.88,0,9.77,3.66,9.77,9.6a32.08,32.08,0,0,1-1,6.51l-3.15,14.54h-7.79l2.91-14.13a30.67,30.67,0,0,0,.87-6.29,4,4,0,0,0-4.24-4.18c-5.4,0-7.39,5.06-8.37,9.53l-3.2,15.06h-7.79Z"/><path class="cls-1" d="M551.74,320.83c0,5.52,3,7.56,8.31,7.56a21.91,21.91,0,0,0,9.19-2.16l-1,6.15a32.92,32.92,0,0,1-9.52,1.69c-8.6,0-14.42-4.18-14.42-13.08,0-9.29,7.21-18.25,17-18.25,7.38,0,12.27,3.78,12.27,11.4a32.85,32.85,0,0,1-.75,6.69ZM566,315.48a10.6,10.6,0,0,0,.18-2c0-3.2-1.69-5-4.95-5-4.82,0-6.92,2.92-8.42,7Z"/><path class="cls-1" d="M611.49,309.84a18.63,18.63,0,0,0-6.39-1.39c-2.33,0-5.25.64-5.25,3,0,3.78,10.13,5.17,10.13,12.5,0,7.79-6.8,10.11-13.49,10.11a21.48,21.48,0,0,1-9.13-1.79l1.69-6.23a14.59,14.59,0,0,0,7.44,2.33c2.61,0,5.34-.88,5.34-3.32,0-4.83-10.11-5.29-10.11-12.79,0-7,6.8-9.53,13-9.53a34.47,34.47,0,0,1,8.49,1.22Z"/><path class="cls-1" d="M623.4,303.45l2.79,22.27h.12l11.91-22.27h8.55l-20.29,34.48c-2.39,4.06-5.36,8.36-11.93,8.36a21.58,21.58,0,0,1-5.81-.81l1.75-5.92a8.82,8.82,0,0,0,3.43.7c2.32,0,4.07-1.16,6.81-5.4l-5.3-31.4Z"/><path class="cls-1" d="M666.18,309.84a18.63,18.63,0,0,0-6.39-1.39c-2.33,0-5.25.64-5.25,3,0,3.78,10.13,5.17,10.13,12.5,0,7.79-6.8,10.11-13.49,10.11a21.45,21.45,0,0,1-9.13-1.79l1.69-6.23a14.59,14.59,0,0,0,7.44,2.33c2.61,0,5.34-.88,5.34-3.32,0-4.83-10.11-5.29-10.11-12.79,0-7,6.8-9.53,13-9.53a34.47,34.47,0,0,1,8.5,1.22Z"/><path class="cls-1" d="M670.59,303.45h5.64l1.34-6.17,8.37-2.73-1.92,8.9h7l-1.22,5.7h-7L680,322.23a12.86,12.86,0,0,0-.34,2.9,2.76,2.76,0,0,0,3,2.91,10.29,10.29,0,0,0,3.77-.7l-1.33,6a20.75,20.75,0,0,1-4.2.69c-5.28,0-9-2.08-9-7.84a32.74,32.74,0,0,1,1-7L675,309.14h-5.65Z"/><path class="cls-1" d="M696.51,320.83c0,5.52,3,7.56,8.32,7.56a21.84,21.84,0,0,0,9.19-2.16l-1,6.15a33.08,33.08,0,0,1-9.53,1.69c-8.61,0-14.42-4.18-14.42-13.08,0-9.29,7.2-18.25,17-18.25,7.39,0,12.28,3.78,12.28,11.4a32.85,32.85,0,0,1-.75,6.69Zm14.25-5.36a13,13,0,0,0,.18-2c0-3.2-1.7-5-4.95-5-4.82,0-6.92,2.92-8.43,7Z"/><path class="cls-1" d="M724.46,306.76c.25-1.16.47-2.38.64-3.31h7.27l-.7,4h.11a11,11,0,0,1,9.19-4.71c3.55,0,7.21,2.09,7.62,5.7h.11c2-3.89,6.34-5.7,10.53-5.7a8.32,8.32,0,0,1,8.31,8.2,34,34,0,0,1-1.34,8.13l-3.14,14.31h-7.79l3.14-14.59a34.45,34.45,0,0,0,1-6.4,3.52,3.52,0,0,0-3.66-3.6c-5.4,0-6.74,6.28-7.73,10.35l-3.08,14.24h-7.78l3.14-14.59a35.18,35.18,0,0,0,1-6.4,3.52,3.52,0,0,0-3.66-3.6c-5.29,0-6.74,6.33-7.73,10.35l-3.09,14.24H719Z"/><polygon class="cls-1" points="770.67 325.24 778.81 325.24 777.12 333.39 768.99 333.39 770.67 325.24"/><polygon class="cls-1" points="786.16 303.81 781.75 303.81 781.75 302.53 792.05 302.53 792.05 303.81 787.64 303.81 787.64 317.48 786.16 317.48 786.16 303.81"/><polygon class="cls-1" points="793.45 302.53 795.74 302.53 801.2 315.67 806.68 302.53 808.81 302.53 808.81 317.48 807.32 317.48 807.32 304 807.29 304 801.84 317.48 800.58 317.48 794.97 304 794.93 304 794.93 317.48 793.45 317.48 793.45 302.53"/><path class="cls-2" d="M156.94,158.36c-3.83,14.79-7.59,30.07-11.27,45.63,16.5,10.66,32.68,21.17,48.79,30.18-12.34-23.39-24.71-49.14-37.53-75.81"/><path class="cls-3" d="M156.94,158.36c14.75,10.52,29.17,21.19,43.36,31-1.92,14.41-3.88,29.37-5.83,44.76-12.34-23.39-24.71-49.14-37.53-75.81"/><path class="cls-3" d="M156.94,158.36c-3.83,14.79-7.59,30.07-11.27,45.63-16.48-10.64-33.3-21.44-50.19-31.06a377,377,0,0,1,61.46-14.57"/><path class="cls-4" d="M156.94,158.36c-14.74-10.53-29.83-20.93-45.07-30.26-5.61,14.73-11.08,29.77-16.39,44.82a377,377,0,0,1,61.46-14.57"/><path class="cls-2" d="M173.73,97.73Q170,110.43,166.17,124c13.23,10.62,26.08,21.51,38.63,32-10.2-18.3-20.47-38-31.07-58.26"/><path class="cls-3" d="M173.73,97.73c11.9,10.73,23.4,21.81,34.56,32.7-1.13,8.25-2.28,16.79-3.48,25.56-10.2-18.3-20.47-38-31.07-58.26"/><path class="cls-4" d="M156.94,158.36c3.06-11.79,6.13-23.27,9.22-34.36,13.23,10.62,26.09,21.51,38.64,32a241.08,241.08,0,0,0-47.86,2.36"/><path class="cls-2" d="M156.94,158.36c14.75,10.52,29.17,21.19,43.36,31q2.32-17.22,4.51-33.41a241.08,241.08,0,0,0-47.86,2.36"/><path class="cls-5" d="M173.73,97.73q3.13-10.55,6.23-20.4c10.73,10.81,21.08,22,31,33.11a164.08,164.08,0,0,0-37.25-12.71"/><path class="cls-1" d="M173.73,97.73c11.9,10.73,23.4,21.81,34.56,32.7q1.41-10.29,2.69-20a164.08,164.08,0,0,0-37.25-12.71"/><path class="cls-1" d="M173.73,97.73q3.13-10.55,6.23-20.4c-10.73-10.81-21.87-21.25-33.31-30.95,9.27,17.22,18.28,34.49,27.08,51.34"/><path class="cls-6" d="M173.73,97.73C161.83,87,149.56,76.61,137,67.05c3.2-7.12,6.43-14,9.66-20.66,9.27,17.22,18.28,34.49,27.08,51.34"/><path class="cls-3" d="M66.21,104.11C59,119,52.14,134.09,45.35,148.83c16.27,6,33.23,14.47,50.11,24.1C85.82,149.34,76,126.22,66.21,104.11"/><path class="cls-2" d="M66.21,104.11a347.92,347.92,0,0,1,45.66,24c-5.61,14.74-11.07,29.77-16.41,44.83C85.82,149.34,76,126.22,66.21,104.11"/><path class="cls-7" d="M66.21,104.11C59,119,52.14,134.09,45.35,148.83c-16.24-6-31.8-9.62-45.35-9.59a209.42,209.42,0,0,1,66.21-35.13"/><path class="cls-8" d="M66.21,104.11c-15-6.36-29.69-10.79-43.16-12.44C15,107.74,7.43,123.78,0,139.23a209.42,209.42,0,0,1,66.21-35.13"/><path class="cls-8" d="M98.76,41.33c-5.1,8.9-10.1,18.12-15,27.53C69.86,62,56.08,56.62,43,53.49A159,159,0,0,1,98.76,41.33"/><path class="cls-9" d="M98.76,41.33A224.63,224.63,0,0,0,60.54,23.47c-6,9.73-11.89,19.79-17.54,30A159,159,0,0,1,98.76,41.33"/><path class="cls-9" d="M66.21,104.11c5.7-11.9,11.55-23.72,17.56-35.25C69.87,62,56.09,56.62,43,53.49c7.62,16,15.41,33,23.2,50.62"/><path class="cls-7" d="M66.21,104.11c-15-6.36-29.69-10.79-43.16-12.44,6.38-12.8,13-25.62,20-38.17,7.62,16,15.41,33,23.2,50.62"/><path class="cls-1" d="M98.76,41.33c4.23-7.39,8.51-14.57,12.85-21.46a373.27,373.27,0,0,1,35,26.51,170.29,170.29,0,0,0-47.9-5.05"/><path class="cls-5" d="M98.76,41.33A363.58,363.58,0,0,1,137,67.05c3.2-7.12,6.43-14,9.66-20.67a170.29,170.29,0,0,0-47.9-5.05"/><path class="cls-9" d="M98.76,41.33c4.23-7.39,8.51-14.57,12.85-21.46A250.63,250.63,0,0,0,76,0c7.63,13.3,15.24,27.14,22.78,41.33"/><path class="cls-7" d="M98.76,41.33A224.63,224.63,0,0,0,60.54,23.47C65.57,15.39,70.71,7.53,76,0c7.63,13.3,15.24,27.14,22.78,41.33"/><path class="cls-10" d="M296.53,247.54c-31.72,0-53.84-24-53.84-53.25s22.41-53.55,54.14-53.55,53.84,24,53.84,53.25-22.42,53.54-54.14,53.54m0-90.13c-20.51,0-34.81,16.38-34.81,36.59s14.6,36.88,35.11,36.88,34.81-16.38,34.81-36.59-14.6-36.88-35.1-36.88"/><path class="cls-10" d="M406.13,212.58H385.62v33.19H367.48V142.51h40.71c24,0,39.25,13.58,39.25,34.67,0,23.31-18.59,35.4-41.3,35.4m.59-53.54h-21.1v37.18h21.1c13.71,0,22.27-7.52,22.27-18.59,0-12.24-8.71-18.58-22.27-18.58"/><polygon class="cls-10" points="507.46 245.77 489.17 245.77 489.17 159.34 456.42 159.34 456.42 142.52 540.2 142.52 540.2 159.34 507.46 159.34 507.46 245.77"/><path class="cls-10" d="M644.63,201.07c0,30.83-17.4,46.31-44.4,46.31S556.29,231.9,556.29,202V142.51h18.13v58.72c0,19.17,9.89,29.48,26.12,29.48,16.06,0,25.94-9.73,25.94-28.75V142.51h18.14v58.56"/><polygon class="cls-10" points="715.14 220.4 714.56 220.4 682.25 172.02 682.25 245.77 664.41 245.77 664.41 142.51 683.74 142.51 715.14 191.35 746.55 142.51 765.88 142.51 765.88 245.77 747.73 245.77 747.73 171.72 715.14 220.4"/></svg>