<?xml version="1.0" encoding="UTF-8"?>
<svg width="64px" height="64px" viewBox="0 0 64 64" version="1.1" xmlns="http://www.w3.org/2000/svg" xmlns:xlink="http://www.w3.org/1999/xlink">
    <!-- Generator: Sketch 55.1 (78136) - https://sketchapp.com -->
    <title>icon / product-logo / 64x64px / metrics / white</title>
    <desc>Created with Sketch.</desc>
    <g id="icon-/-product-logo-/-64x64px-/-metrics-/-white" stroke="none" stroke-width="1" fill="none" fill-rule="evenodd">
        <path d="M8,59 L55.25,59 L55.25,38.75 L44.341,27.841 C41.046,24.546 35.704,24.546 32.409,27.841 L8,52.25 L8,59 Z" id="Fill-1" fill="#FFFFFF"></path>
        <path d="M28.873,24.3057 C31.411,21.7677 34.786,20.3697 38.375,20.3697 C41.964,20.3697 45.339,21.7677 47.877,24.3057 L53.303,29.7317 C54.541,27.3847 55.25,24.7137 55.25,21.8747 C55.25,12.5557 47.695,4.9997 38.375,4.9997 C29.055,4.9997 21.5,12.5557 21.5,21.8747 C21.5,24.7137 22.209,27.3847 23.447,29.7317 L28.873,24.3057 Z" id="Fill-3" fill="#FFFFFF"></path>
    </g>
</svg>