<?xml version="1.0" encoding="utf-8"?>
<!-- Generator: Adobe Illustrator 19.0.1, SVG Export Plug-In . SVG Version: 6.00 Build 0)  -->
<svg version="1.1" id="Layer_1" xmlns="http://www.w3.org/2000/svg" xmlns:xlink="http://www.w3.org/1999/xlink" x="0px" y="0px"
	 viewBox="0 0 259 103.8" style="enable-background:new 0 0 259 103.8;" xml:space="preserve">
<style type="text/css">
	.st0{fill:#EF3A3F;}
	.st1{fill:#0067B3;}
	.st2{fill:#FBAD18;}
	.st3{fill:#6AB945;}
</style>
<g>
	<g>
		<path class="st0" d="M33.5,22.9C1.1,22.9-0.2,48.1,0,54.7c0,0-1.6,29.5,32.7,29.5c29.4,0,30.9-18.5,30.9-18.5l-13.5,0
			c0,0-2.6,10.2-17.3,9.9C13.9,75.2,13.2,57,13.2,57h52.2C65.4,57,69.3,22.9,33.5,22.9z M13.6,48c0,0,0.9-16.5,19.6-16.5
			C51.7,31.5,51.7,48,51.7,48H13.6z"/>
	</g>
</g>
<g>
	<g>
		<path class="st1" d="M101.6,22.9c-16.3-0.1-23.3,9.6-23.3,9.6V0H65.3l0.2,68.8c0,0-0.1,8-0.6,13.3h12.7l0.5-7.7
			c0,0,5.9,9.7,23.2,9.7c17.3,0,30.9-10.6,31.3-30.4C133,34,117.9,23,101.6,22.9z M98.6,75.3c-20.6,0.3-20.2-21.8-20.2-21.8
			s-0.7-21.2,20.2-21.8c20.9-0.5,20.3,22.2,20.3,22.2S119.2,75.1,98.6,75.3z"/>
	</g>
</g>
<g>
	<g>
		<path class="st2" d="M192.9,68.5c0-8.9,0.3-16.9,0-22.5c-0.3-6.5,0.3-22.2-27.8-23.4c0,0-26.9-2.5-29.7,17.6h13.8
			c0,0,1.1-9.2,15.1-8.9c13.2,0.2,15.6,6.7,15.6,14.7c0,0-11.3,0-15.1,0.1c-6.8,0-30.7,0.8-32.9,15.3c-2.7,17.3,12.8,22.7,24.9,22.6
			c12.1-0.1,19-3.7,24.1-10.2l0.5,8l12-0.1C193.2,82,192.9,77.5,192.9,68.5z M158.8,75.8c0,0-13.1,0-13.8-10.4
			c-0.8-11.2,20.1-10.5,20.1-10.5l14.8,0C179.9,54.9,182.3,76.1,158.8,75.8z"/>
	</g>
</g>
<polygon class="st3" points="185.8,25.1 200.9,25.1 223.1,69.3 245.3,25.1 259,25.1 218.9,103.8 204.3,103.8 215.9,82 "/>
</svg>
