<?xml version="1.0" encoding="UTF-8"?>
<svg width="64px" height="64px" viewBox="0 0 64 64" version="1.1" xmlns="http://www.w3.org/2000/svg" xmlns:xlink="http://www.w3.org/1999/xlink">
    <!-- Generator: Sketch 55.1 (78136) - https://sketchapp.com -->
    <title>icon / product-logo / 64x64px / maps / white</title>
    <desc>Created with Sketch.</desc>
    <g id="icon-/-product-logo-/-64x64px-/-maps-/-white" stroke="none" stroke-width="1" fill="none" fill-rule="evenodd">
        <g id="Group" transform="translate(4.999800, 5.076900)" fill="#FFFFFF">
            <path d="M43.0315,16.031 C43.0315,27.253 27.0005,35.311 27.0005,35.311 C27.0005,35.311 10.9685,27.253 10.9685,16.031 C10.9685,7.177 18.1465,0 27.0005,0 C35.8535,0 43.0315,7.177 43.0315,16.031" id="Fill-1"></path>
            <path d="M43.049,28.7854 C41.71,30.4624 40.116,32.1014 38.26,33.6834 C33.844,37.4494 29.432,39.6844 29.245,39.7784 L27,40.9074 L24.755,39.7784 C24.569,39.6844 20.156,37.4494 15.74,33.6834 C13.884,32.1014 12.29,30.4624 10.951,28.7854 L0,36.9984 L19.178,51.3814 C23.813,54.8584 30.188,54.8584 34.822,51.3814 L54,36.9984 L43.049,28.7854 Z" id="Fill-3"></path>
        </g>
    </g>
</svg>