<?xml version="1.0" encoding="UTF-8"?>
<svg width="64px" height="64px" viewBox="0 0 64 64" version="1.1" xmlns="http://www.w3.org/2000/svg" xmlns:xlink="http://www.w3.org/1999/xlink">
    <!-- Generator: Sketch 55.1 (78136) - https://sketchapp.com -->
    <title>icon / product-logo / 64x64px / app-search / white</title>
    <desc>Created with Sketch.</desc>
    <g id="icon-/-product-logo-/-64x64px-/-app-search-/-white" stroke="none" stroke-width="1" fill="none" fill-rule="evenodd">
        <path d="M37.9689,6.6208 C34.2269,4.4598 29.6149,4.4598 25.8729,6.6208 L12.0479,14.6018 C8.3059,16.7628 5.9999,20.7568 5.9999,25.0788 L5.9999,41.0408 C5.9999,45.3628 8.3059,49.3568 12.0479,51.5168 L25.0089,58.9998 L25.0089,36.0668 C25.0089,31.7458 27.3149,27.7518 31.0569,25.5908 L50.9299,14.1178 L37.9689,6.6208 Z" id="Fill-1" fill="#FFFFFF"></path>
        <path d="M53.4298,18.4474 L36.1098,28.4474 C37.8348,30.5714 38.8328,33.2434 38.8328,36.0664 L38.8328,59.0004 L51.7938,51.5174 C55.5358,49.3564 57.8418,45.3634 57.8418,41.0414 L57.8418,25.0784 C57.8418,22.2594 56.8468,19.5904 55.1258,17.4684 L53.4298,18.4474 Z" id="Fill-4" fill="#FFFFFF"></path>
    </g>
</svg>