<?xml version="1.0" encoding="UTF-8"?>
<svg width="64px" height="64px" viewBox="0 0 64 64" version="1.1" xmlns="http://www.w3.org/2000/svg" xmlns:xlink="http://www.w3.org/1999/xlink">
    <!-- Generator: Sketch 55.1 (78136) - https://sketchapp.com -->
    <title>icon / product-logo / 64x64px / uptime / white</title>
    <desc>Created with Sketch.</desc>
    <g id="icon-/-product-logo-/-64x64px-/-uptime-/-white" stroke="none" stroke-width="1" fill="none" fill-rule="evenodd">
        <g id="Group" transform="translate(4.999900, 5.336100)" fill="#FFFFFF">
            <path d="M32.0626,24.8216 C32.0626,36.7396 23.8146,46.7066 12.7226,49.3956 C16.8686,51.9876 21.7506,53.5086 27.0006,53.5086 C41.9126,53.5086 53.9996,41.4206 53.9996,26.5086 L53.9996,21.4466 L43.0316,11.3216 L32.0626,21.4466 L32.0626,24.8216 Z" id="Fill-1"></path>
            <path d="M11.545,44.536 C18.481,42.855 23.82,37.775 25.994,31.317 C23.454,27.834 21.938,23.557 21.938,18.915 L21.938,18.915 L21.938,0 C9.448,2.371 -1.56319402e-13,13.33 -1.56319402e-13,26.509 C-1.56319402e-13,33.891 2.965,40.578 7.766,45.452 L11.545,44.536 Z" id="Fill-3"></path>
        </g>
    </g>
</svg>