<svg id="Layer_1" data-name="Layer 1" xmlns="http://www.w3.org/2000/svg" viewBox="0 0 494.46 69.38"><defs><style>.cls-1{fill:#0071ce;}.cls-2{fill:#ffb819;}</style></defs><title>logo-walmart-technology</title><path class="cls-1" d="M306.5,31.35l-8.18,0v-3l19.92.05v3l-8.22,0-.06,24h-3.51Z"/><path class="cls-1" d="M323,46.33c.07,4.75,3.1,6.71,6.61,6.72a12.69,12.69,0,0,0,5.35-1l.59,2.52a15.65,15.65,0,0,1-6.43,1.18c-5.95,0-9.49-3.94-9.47-9.76s3.46-10.41,9.09-10.4c6.31,0,8,5.57,8,9.12a13.24,13.24,0,0,1-.12,1.64Zm10.31-2.49c0-2.24-.9-5.71-4.86-5.72-3.55,0-5.12,3.26-5.4,5.69Z"/><path class="cls-1" d="M354.82,54.71a13,13,0,0,1-5.55,1.1c-5.83,0-9.61-4-9.59-9.88s4.1-10.25,10.4-10.23a11.74,11.74,0,0,1,4.87,1l-.8,2.71a8.14,8.14,0,0,0-4.07-.93c-4.43,0-6.83,3.25-6.84,7.29,0,4.47,2.86,7.23,6.69,7.24a10,10,0,0,0,4.31-.95Z"/><path class="cls-1" d="M359,27.1h3.51l0,12.06h.08a6.5,6.5,0,0,1,2.52-2.47,7.21,7.21,0,0,1,3.59-1c2.59,0,6.74,1.61,6.72,8.28l0,11.5h-3.51l0-11.1c0-3.11-1.14-5.75-4.46-5.76a5,5,0,0,0-4.72,3.5,4.27,4.27,0,0,0-.24,1.68l0,11.66h-3.51Z"/><path class="cls-1" d="M381.12,41.4c0-2,0-3.63-.15-5.23h3.11l.19,3.19h.08a7.1,7.1,0,0,1,6.4-3.62c2.67,0,6.82,1.61,6.8,8.24l0,11.54H394l0-11.14c0-3.11-1.14-5.71-4.46-5.72a5,5,0,0,0-4.72,3.58,5.05,5.05,0,0,0-.24,1.64l0,11.62h-3.51Z"/><path class="cls-1" d="M420.75,45.78c0,7.15-5,10.25-9.65,10.23-5.23,0-9.25-3.86-9.24-10,0-6.47,4.26-10.25,9.61-10.23C417,35.83,420.76,39.87,420.75,45.78Zm-15.33.16c0,4.23,2.42,7.43,5.85,7.44s5.88-3.14,5.89-7.49c0-3.27-1.62-7.43-5.77-7.44S405.43,42.26,405.42,45.94Z"/><path class="cls-1" d="M425.23,27.27h3.51l-.07,28.34h-3.51Z"/><path class="cls-1" d="M452.08,45.86c0,7.15-5,10.25-9.65,10.23-5.23,0-9.25-3.86-9.24-10,0-6.47,4.26-10.25,9.61-10.23C448.36,35.91,452.1,39.95,452.08,45.86ZM436.75,46c0,4.23,2.42,7.43,5.85,7.44s5.88-3.14,5.89-7.49c0-3.27-1.62-7.43-5.77-7.44S436.76,42.34,436.75,46Z"/><path class="cls-1" d="M473.18,36.41c-.08,1.4-.17,3-.17,5.31l0,11.22c0,4.43-.9,7.14-2.78,8.81a10.24,10.24,0,0,1-7,2.3,12.46,12.46,0,0,1-6.42-1.61l.88-2.67a10.9,10.9,0,0,0,5.66,1.53c3.59,0,6.23-1.86,6.24-6.73V52.41h-.08a6.9,6.9,0,0,1-6.16,3.22c-4.79,0-8.21-4.09-8.2-9.44,0-6.54,4.3-10.25,8.73-10.24a6.43,6.43,0,0,1,6,3.37h.08l.17-2.91ZM469.53,44a5.14,5.14,0,0,0-5.1-5.32c-3.35,0-5.75,2.82-5.77,7.29,0,3.79,1.9,7,5.69,7a5.14,5.14,0,0,0,4.88-3.58,6.15,6.15,0,0,0,.28-1.88Z"/><path class="cls-1" d="M480.13,36.43l4.2,11.43c.43,1.28.91,2.8,1.23,4h.08c.36-1.16.77-2.63,1.25-4l3.86-11.33h3.71l-5.3,13.76c-2.53,6.62-4.26,10-6.66,12.08a9.52,9.52,0,0,1-4.32,2.26l-.87-3a9.27,9.27,0,0,0,3.08-1.71,10.66,10.66,0,0,0,3-3.9,2.56,2.56,0,0,0,.28-.84,3.09,3.09,0,0,0-.24-.92l-7.1-17.82Z"/><path class="cls-1" d="M167.32,36.69c0-6.85-2.9-12.88-12.78-12.91a23.42,23.42,0,0,0-11.31,2.67L144.82,32a16.56,16.56,0,0,1,8.25-2.3c5,0,5.83,2.86,5.83,4.68v.43C148,34.73,141,38.5,141,46.21c0,4.71,3.5,9.13,9.62,9.15a11,11,0,0,0,8.8-3.88h.19s1.23,5.23,8.13,3.25a44,44,0,0,1-.46-7.28Zm-8.18,7.22a5.8,5.8,0,0,1-.21,1.63,5.73,5.73,0,0,1-5.52,3.85,3.73,3.73,0,0,1-4-4c0-4.15,4.58-5.29,9.79-5.25Z"/><path class="cls-1" d="M0,14.06s7.07,29.29,8.2,34c1.32,5.55,3.71,7.6,10.63,6.24l4.51-18.14c1.14-4.51,1.91-7.72,2.65-12.3h.13a120.49,120.49,0,0,0,2.14,12.33S30,44.48,31,48.81s3.51,7.06,10.28,5.59L52,14.19l-8.58,0L39.72,31.56c-1,5.06-1.88,9-2.58,13.65H37c-.61-4.59-1.39-8.39-2.37-13.33L30.92,14.14l-8.94,0L17.89,31.39c-1.16,5.25-2.24,9.49-2.93,14h-.12c-.69-4.22-1.6-9.55-2.6-14.63,0,0-2.37-12.37-3.2-16.63Z"/><path class="cls-1" d="M75.81,36.46c0-6.85-2.89-12.88-12.78-12.91a23.41,23.41,0,0,0-11.31,2.67l1.59,5.51a16.56,16.56,0,0,1,8.25-2.3c5,0,5.83,2.86,5.83,4.68v.43C56.46,34.5,49.54,38.27,49.52,46c0,4.71,3.49,9.13,9.61,9.15a11,11,0,0,0,8.81-3.88h.19s1.24,5.23,8.13,3.25a44.16,44.16,0,0,1-.46-7.28Zm-8.18,7.22a5.63,5.63,0,0,1-.21,1.63,5.73,5.73,0,0,1-5.52,3.85,3.73,3.73,0,0,1-4.05-4c0-4.15,4.59-5.29,9.79-5.25Z"/><polygon class="cls-1" points="88.42 45.98 88.5 14.29 80.33 14.26 80.23 54.5 88.39 54.52 88.42 45.98"/><path class="cls-1" d="M192.43,14.55l-.08,29.69c0,4.09.75,7,2.4,8.72a9.06,9.06,0,0,0,6.65,2.54,19.48,19.48,0,0,0,5.92-.86l-.09-6.38a12.57,12.57,0,0,1-3.11.36c-2.78,0-3.71-1.79-3.7-5.46l0-11.36,7.12,0,0-7.7-7.12,0,0-9.52Z"/><path class="cls-1" d="M171.31,24.51l-.08,30.23,8.43,0,0-15.48a11.71,11.71,0,0,1,.19-2.23,6.37,6.37,0,0,1,6.68-5.3A15.3,15.3,0,0,1,189,32l0-7.92a8.09,8.09,0,0,0-1.86-.19,8.89,8.89,0,0,0-8.24,6.36h-.23v-5.7Z"/><path class="cls-1" d="M93.21,24.31l-.08,30.23,8.21,0,0-17.73a7.11,7.11,0,0,1,.39-2.48c.69-1.78,2.35-3.87,5-3.86,3.32,0,4.86,2.81,4.85,6.86l0,17.23,8.21,0,0-17.94a8.41,8.41,0,0,1,.35-2.45,5.18,5.18,0,0,1,4.94-3.67c3.36,0,5,2.77,5,7.53,0,0,0,12.77,0,16.56l8.21,0,0-17.8c0-9.39-4.73-13.12-10.11-13.14a11,11,0,0,0-6,1.63,12.7,12.7,0,0,0-3.84,3.75h-.12a8.62,8.62,0,0,0-8.32-5.43,9.51,9.51,0,0,0-8.81,4.77H101V24.33Z"/><path class="cls-2" d="M251.74,23.36c1.63,0,3-.84,3.15-1.93l1.65-18.15c0-1.79-2.09-3.27-4.74-3.28s-4.74,1.46-4.74,3.26l1.55,18.15c.17,1.09,1.51,1.94,3.13,1.95Z"/><path class="cls-2" d="M241.92,29c.82-1.4.76-3-.1-3.69l-14.89-10.5c-1.55-.9-3.88.17-5.2,2.46s-1.1,4.84.45,5.74l16.5,7.74c1,.39,2.44-.34,3.26-1.75Z"/><path class="cls-2" d="M261.54,29c.81,1.41,2.21,2.15,3.24,1.77l16.54-7.65c1.56-.89,1.79-3.45.48-5.73s-3.65-3.38-5.2-2.49L261.66,25.36c-.86.7-.92,2.28-.12,3.69Z"/><path class="cls-2" d="M251.68,46c1.63,0,3,.85,3.14,1.94l1.56,18.15c0,1.8-2.11,3.26-4.75,3.25s-4.73-1.48-4.73-3.28L248.55,48c.18-1.09,1.52-1.93,3.14-1.93Z"/><path class="cls-2" d="M261.52,40.38c.82-1.41,2.22-2.13,3.25-1.74l16.5,7.72c1.56.9,1.77,3.46.45,5.75s-3.66,3.35-5.21,2.45L261.62,44.08c-.85-.71-.91-2.29-.1-3.7Z"/><path class="cls-2" d="M241.89,40.33c.81,1.41.74,3-.12,3.7L226.83,54.44c-1.55.89-3.88-.2-5.19-2.48s-1.08-4.85.48-5.74l16.54-7.64c1-.39,2.44.35,3.25,1.76Z"/><path class="cls-2" d="M284.15,52.42a1.48,1.48,0,1,1-1.53,1.47,1.49,1.49,0,0,1,1.52-1.47Zm0,.29a1.18,1.18,0,0,0,0,2.36,1.13,1.13,0,0,0,1.13-1.17,1.14,1.14,0,0,0-1.13-1.18Zm-.23,1.94h-.34V53.19a2.85,2.85,0,0,1,.57-.05.84.84,0,0,1,.51.12.4.4,0,0,1,.14.32.38.38,0,0,1-.31.35v0a.42.42,0,0,1,.27.36,1,1,0,0,0,.11.36h-.37a1.23,1.23,0,0,1-.12-.35c0-.16-.12-.23-.3-.23h-.16Zm0-.83h.16c.19,0,.34-.06.34-.22s-.1-.23-.31-.23l-.19,0Z"/></svg>