<svg id="svg2" xmlns="http://www.w3.org/2000/svg" xmlns:xlink="http://www.w3.org/1999/xlink" width="856.9" height="177.2"><style>.st0{fill:#a3a3a3}</style><g id="g10" transform="matrix(1.25 0 0 -1.25 0 177.2)"><g id="g12" transform="scale(.1)"><g id="g3058"><path id="path3110" class="st0" d="M670.2 1417.3a786.2 786.2 0 0 1-156-16.8h-.2c-124.1-26.2-241.4-83-332.8-171.8C73.1 1123.7 6.5 980.1.5 829.6A577.6 577.6 0 0 1 22 650.3v-.4a586.2 586.2 0 0 1 28.5-79c1.9-4.4 4.2-8.7 6.2-13l2.5-5.5a596 596 0 0 1 61.5-100.5l.5-.7c.7-.9 1.6-1.6 2.2-2.5l.5-1 2-2.5 2-2.5 1-1.2 1.8-2.2.8-1 2-2.2.5-.7 2-2.5c2.3-2.8 4.9-5.5 7.2-8.2v-.2l2.2-2.8c.1-.1.2.1.2 0l2.2-2.8 7.5-8.2c.1-.1-.1-.2 0-.2l2-2 1-1 1.8-2 1.2-1.2 1.5-1.8 2.8-2.8 8.5-8.8a597.4 597.4 0 0 1 57.8-51.2c3.8-2.3 7.2-3.2 10-3.2 6.4 0 10 5 10 10.2 0 2.8-.9 5.5-3 7.8-77.6 91.8-117.7 210.1-117.5 328.7.1 42.9 5.3 85.9 16 127.8 34.2 133.3 123.9 252.3 249 313.8a431.4 431.4 0 0 0 415.7-22 472.6 472.6 0 0 0 156.5-162.5 56.5 56.5 0 0 1 12-14c13.7-11.7 32.3-16 51.8-17.5h300.8a49.6 49.6 0 0 1 31.8 17.5 38.1 38.1 0 0 1 6.5 21.5l-.2 3.2c0 12.5-4.6 25.4-10.5 37.5-4.2 8.6-8.9 16.7-13 24.2a975.9 975.9 0 0 1-29 51.8 720.9 720.9 0 0 1-131 158.3 743.6 743.6 0 0 1-99 75.8A774.5 774.5 0 0 1 679 1417.3h-8.8zm530.6-212zm-453-486c-21.6 0-39.2-1.2-56.2-16-8.5-7.4-16.2-15-26.8-19.5a87.4 87.4 0 0 0-34-5.5H339.3c-6.9 0-13.1-2.1-13.5-9.8v-.8c-.1-8.6 6.5-13.3 14.2-16.2l294.2-136.8c23.9-8.9 43.6-32.4 45-56.5l1-16c.3-4.9 1-9.7 2-14.5h-.2l1.2-4.8c.6-2.4 1.1-4.7 2-7l1-2c1.3-3 2.8-5.8 4.5-8.5v-.2l.8-1c.1-.1-.1-.2 0-.2l1.2-1.5.2-.7.5-.5.8-.7.2-.5.8-1 .5-.2 1-1.2.2-.2 1-1 .2-.2 1.2-1 .2-.2 2.8-2.2.2-.2 1.2-.7.2-.2 1.5-1c2-1.3 32.4-20.6 32.5-20.5l24.5-15.2 4.5-2.8.2-.2c4.6-2.9 7.3-4.9 10.8-9l2.2-2.8.2-.2a89.7 89.7 0 0 0 18.5-55.2 81.9 81.9 0 0 0-34.2-65.8h-.2c-5.6-4.1-11.3-8.3-17.5-12a503.6 503.6 0 0 0-190.2-73.8c-24.7-4-49.6-6-74.5-6A482.7 482.7 0 0 0 307 160.5l-5 2-13.5 5.5C183 214.1 96.3 295.1 33.5 390.5l-3 3.8a11.8 11.8 0 0 1-8.8 4.2c-3.5 0-7-1.8-8.2-6-1.6-5.5 7.1-18.2 10-23.2A723.7 723.7 0 0 1 121.2 237a744.1 744.1 0 0 1 174-136.8A771 771 0 0 1 753 3.9h1l4 .5c181.4 19 353.7 103.2 477 237.2a709.6 709.6 0 0 1 126.2 192.3 676.2 676.2 0 0 1 49.7 171.3c3.2 19.9 5.3 39.7 6.2 59.8v7.8c-.7 24.2-13 43.7-39.5 46.8h-59l-570.8-.3z"/><path id="path20" class="st0" d="M676.6 0a773.3 773.3 0 0 0-381.1 99.7 741.4 741.4 0 0 0-173.9 136.9 708.5 708.5 0 0 0-97.9 132.2c-2.9 5-11.5 17.7-9.9 23.2a8 8 0 0 0 8 6c3.3 0 6.8-1.6 9-4.2l2.9-3.7c62.8-95.4 149.5-176.4 255.1-222.5A722.7 722.7 0 0 1 753.9 3.9l4 .4A762 762 0 0 0 676.6 0M165.8 399.2l-2.8 2.9 2.8-2.9m-4.4 4.6l-1.2 1.3 1.2-1.3m-2.9 3.2l-.9 1 .9-1m-2.9 3.1l-.2.2.2-.2m-9.9 11.1l-.2.2.2-.2m-2.4 2.9l-.1.1.1-.1m-7.2 8.5s-.1 0 0 0c-.1 0 0 0 0 0m-2.1 2.6l-.5.6.5-.6m-2.4 2.9l-.7.9.7-.9m-2.5 3.1l-1 1.2 1-1.2m-3.1 4l-1.9 2.4 1.9-2.4m-2.6 3.3l-2.1 2.7 2.1-2.7m-2.6 3.3A588.3 588.3 0 0 0 .4 829.4c6 150.6 72.5 294.1 180.7 399.2 91.4 88.8 208.6 145.7 332.8 171.9h.2a675.7 675.7 0 0 1-173.8-76C132.7 1196.5 18.7 974 16.8 742.4v-11.5c.2-27 1.9-54.1 5.2-81.2a599 599 0 0 1 98.8-197.9"/><path id="path38" class="st0" d="M744.5 3.8c-163 0-325 57.1-455.6 163.8l13.4-5.6 5.1-2c11.1-4.4 22.4-8.3 33.8-11.8 91.3-58.4 192.8-91 299.7-91 311.1 0 576.2 275.7 677.8 662.2h59.1c26.5-3.1 38.9-22.6 39.5-46.8v-4.1l-.2-3.7c-.9-20.1-3-40-6.1-59.8a678.2 678.2 0 0 0-49.7-171.1 710.8 710.8 0 0 0-126.4-192.4c-123.3-134-295.6-218.3-477-237.2l-4-.4-9.4-.1"/><path id="path62" class="st0" d="M1339.9 909.5a842.3 842.3 0 0 1-152.2 312.8 729.4 729.4 0 0 0 131.1-158.2 930.8 930.8 0 0 0 28.9-51.6c4.1-7.6 8.8-15.8 13-24.4a88.5 88.5 0 0 0 10.6-37.5l.1-3.1c0-7.2-1.7-14.4-6.4-21.6a42.2 42.2 0 0 0-10.2-9.5m0-.1a49.3 49.3 0 0 0-14.9-6.9"/><path id="path150" class="st0" d="M242 336c-2.8 0-6.1 1-9.9 3.2a627.2 627.2 0 0 0-57.9 51.4c-63.4 87.3-104.7 198-104.7 304.2 0 276.1 216.2 500 482.8 500 186.3 0 347.8-109.2 428.3-269.1a56.4 56.4 0 0 0-11.8 14.1 473 473 0 0 1-156.6 162.5 431 431 0 0 1-415.8 21.9c-125.1-61.5-214.7-180.4-248.9-313.7a520.3 520.3 0 0 1-16.1-127.7c-.2-118.7 39.9-236.9 117.5-328.8 2.1-2.3 3.1-5.1 3.1-7.9a9.7 9.7 0 0 0-10-10.1"/><defs><path id="SVGID_1_" d="M640.9 57.1c-106.9 0-208.4 32.6-299.7 91a483 483 0 0 1 216-15.4 500.5 500.5 0 0 1 207.6 85.6l.1.1.2.1c56 41.6 82.4 103.2 60.1 152.1-17.5 38.3-60.7 59.3-111.4 59.6h-1.6c-9.8 0-19.9-.8-30.1-2.4a76.3 76.3 0 0 0-1.8 14.4l-1 16.1c-1.4 24.1-21.1 47.5-45 56.4L339.9 651.6c-7.8 3-14.3 7.6-14.2 16.2v.8c.4 7.7 6.7 9.7 13.6 9.7h291.4c11.5 0 23.3 1.1 34 5.6 10.5 4.5 18.3 12 26.8 19.4 17 14.8 34.7 16.1 56.2 16.1h571C1217.1 332.8 952 57.1 640.9 57.1m63.4 334.1l-.3.2.3-.2m-1.5 1.1l-.3.2.3-.2m-3.1 2.5l-.2.2.2-.2m-1.3 1.2l-.3.2.3-.2m-1.4 1.4l-.1.1.1-.1m-2.4 2.6l-.4.5.4-.5m-1 1.3l-.5.6.5-.6m-.9 1.2l-1.1 1.5 1.1-1.5m-1.3 1.8l-.7 1.1.7-1.1"/></defs><use xlink:href="#SVGID_1_" overflow="visible" fill="#a3a3a3"/><clipPath id="SVGID_2_"><use xlink:href="#SVGID_1_" overflow="visible"/></clipPath><g id="g66" clip-path="url(#SVGID_2_)"><path id="path3043" class="st0" d="M321.9 723.1V53.9h1000.2v669.2H321.9z"/></g><defs><path id="SVGID_3_" d="M174.2 390.6l-8.4 8.6-2.8 2.9-1.6 1.7-1.2 1.3-1.8 1.9-.9 1-2 2.2-.2.2-7.3 8.2-2.4 2.7-.2.2-2.3 2.7-.1.1-7 8.4-.1.1-2.1 2.5-.5.6-1.9 2.3-.7.9-1.8 2.2-1 1.2-2.1 2.7-1.9 2.4-.7.9-2.1 2.7-.5.7a597.2 597.2 0 0 0-98.8 197.9c-3.3 27.1-5 54.2-5.2 81.2v11.5c1.9 231.6 115.9 454.1 323.6 582.3a679.1 679.1 0 0 0 173.8 76 787.4 787.4 0 0 0 156.1 16.7h8.8a770 770 0 0 0 409.6-119.3 743.5 743.5 0 0 0 99.2-75.8 843.8 843.8 0 0 0 152.2-312.8c-2.2-.6-4.4-1-6.6-1.2h-301c-19.4 1.5-38.1 5.8-51.7 17.5-80.5 159.9-242.1 269.1-428.3 269.1-266.7 0-482.8-223.9-482.8-500 0-106.4 41.2-217.1 104.7-304.4m411.6 952.6c1.2-58.4 110.8-139.8 259.7-189.4 76.4-25.4 149.4-37.9 207.3-37.9 65 0 111 15.8 121.4 46.8 1.4 4.1 2.1 8.3 2.2 12.7v1.9c-1.2 58.5-110.8 139.9-259.8 189.5-76.3 25.4-149.2 37.9-207.2 37.9-65 0-111-15.8-121.4-46.9a41.7 41.7 0 0 1-2.2-12.6v-2"/></defs><use xlink:href="#SVGID_3_" overflow="visible" fill="#a3a3a3"/><clipPath id="SVGID_4_"><use xlink:href="#SVGID_3_" overflow="visible"/></clipPath><g id="g102" clip-path="url(#SVGID_4_)"><path id="path3852" class="st0" d="M13.9 1420.1V386.9h1329.2v1033.2H13.9z"/></g><defs><path id="SVGID_5_" d="M1052.9 1115.9c-57.9 0-131 12.5-207.3 37.9-148.9 49.6-258.5 130.9-259.7 189.4v2c.1 4.3.8 8.6 2.2 12.6 10.4 31.1 56.4 46.9 121.4 46.9 57.9 0 130.9-12.5 207.2-37.9 149-49.6 258.6-131 259.8-189.5v-1.9c-.1-4.4-.8-8.6-2.2-12.7-10.4-31.1-56.5-46.8-121.4-46.8"/></defs><use xlink:href="#SVGID_5_" overflow="visible" fill="#a3a3a3"/><clipPath id="SVGID_6_"><use xlink:href="#SVGID_5_" overflow="visible"/></clipPath><g id="g126" clip-path="url(#SVGID_6_)"><path id="path3923" class="st0" d="M582.9 1409.1v-296.2h596.2v296.2H582.9z"/></g><g><defs><path id="SVGID_7_" d="M765.1 218.7a81.1 81.1 0 0 1 34.1 65.6 90 90 0 0 1-18.6 55.6c-3.9 4.2-9.9 9.1-12.7 11.4a123 123 0 0 0 12.9-11.6l-2.6 2.9a39.7 39.7 0 0 1-11 9.3l.3-.2a92 92 0 0 0-4.6 3l-24.7 15.1c-.1-.1-30.3 19.3-32.3 20.5l-1.5 1-.3.2-1.2.8-.3.2-2.8 2.3-.2.2-1.1 1-.3.2-1.1 1.1-.1.1-1.2 1.2-.3.4-.8.9-.4.5-.6.8-.5.6-.4.6-1.1 1.5-.2.3-.7 1.1v.1c-4.3 6.7-7 14.4-8.6 22.4 10.2 1.6 20.3 2.4 30.1 2.4h1.6c50.8-.3 93.9-21.3 111.4-59.6 22.2-48.7-4.2-110.4-60.2-151.9"/></defs><use xlink:href="#SVGID_7_" overflow="visible" fill="#a3a3a3"/><clipPath id="SVGID_8_"><use xlink:href="#SVGID_7_" overflow="visible"/></clipPath><g id="g238" clip-path="url(#SVGID_8_)"><path id="path3947" class="st0" d="M677.9 433.1V215.9h172.2v217.2H677.9z"/></g></g></g><g id="g3253"><path id="path260" class="st0" d="M2126.2 992.1h-231.4c-66.1 0-113.7-14.1-145.6-46.1-31.9-32-47.5-79.6-47.5-145.7V622.2c0-126.3 57.5-192 175.4-196.8h299.8v236.4a51.7 51.7 0 0 1-87.8 39.7 51.6 51.6 0 0 1-16.2-39.7V529.4h-179c-56.9 0-88.2 32.9-88.2 90v180.9c0 54.8 26.3 87.8 81 87.8H2177v52.4c-.1 37.2-15.4 51.6-50.8 51.6"/><path id="path262" class="st0" d="M2631 715.8h-265.3v83.6c0 57.2 31.3 88.7 88.2 88.7H2631V715.8zm52 276.3h-230.5c-130.2 0-190.8-62.1-190.8-195.4V479.4a51.9 51.9 0 0 1 87.8-39.7 51.6 51.6 0 0 1 16.2 39.7V611H2631V479.4a51.9 51.9 0 0 1 87.8-39.7 51.6 51.6 0 0 1 16.2 39.7v461.2c0 35.8-15.5 51.5-52 51.5"/><path id="path264" class="st0" d="M3570.5 796.7c0 133.4-60.6 195.4-190.8 195.4h-508.2c-38.3 0-52.7-15.5-52.7-51.6V479.4a51.9 51.9 0 0 1 87.8-39.7 51.6 51.6 0 0 1 16.2 39.7v408.7H3056c56.6 0 86.6-31.5 86.6-88.7V479.5a51.9 51.9 0 0 1 87.8-39.7 51.6 51.6 0 0 1 16.2 39.7v408.6h132.9c56.9 0 87-31.5 87-88.7v-320a51.9 51.9 0 0 1 87.8-39.7 51.6 51.6 0 0 1 16.2 39.7v317.3"/><path id="path266" class="st0" d="M4075.5 888.1a51.7 51.7 0 0 1 39.7 87.8 51.6 51.6 0 0 1-39.7 16.2h-369.1c-18.4 0-31.4-4-39.7-12.3-8.3-8.3-12.3-21.3-12.3-39.8V620.8c0-66.9 15.4-115.1 47-147.4 31.5-32.3 78.6-48 143.8-48h230.3a51.7 51.7 0 0 1 39.7 87.8 51.6 51.6 0 0 1-39.7 16.2h-228.9c-56.9 0-88.2 31.3-88.2 88.2v46.2h224.1a51.9 51.9 0 0 1 39.7 87.8 51.6 51.6 0 0 1-39.7 16.2h-224.1v120.3h317.1"/><path id="path268" class="st0" d="M4634.5 992.1h-368c-36.4 0-52.1-14.1-52.1-50.7V717.3c-.1-4.1-.1-8.2 0-12.3V479.3a51.9 51.9 0 0 1 87.8-39.7 51.6 51.6 0 0 1 16.2 39.7v49.9h.1v134.6h224.3a51.9 51.9 0 0 1 39.7 87.8 51.6 51.6 0 0 1-39.7 16.2h-224.3v120.3h316a51.9 51.9 0 0 1 39.7 87.8 51.6 51.6 0 0 1-39.7 16.2"/><path id="path270" class="st0" d="M5078.1 619c0-57.2-31.1-89.6-87.8-89.6h-93.5c-55.4 0-85.9 32.4-85.9 89.6v182.8c0 55.7 30.5 86.4 85.9 86.4h93.5c56.6 0 87.8-30 87.8-84.5V619zm-87.7 373.1h-92.1c-130.5 0-191.3-60-191.3-190.8V617.1c0-130.1 60.2-191.7 189.4-191.7h94.9c130.1 0 190.8 63 190.8 196.3v180c0 130.6-60.9 190.4-191.7 190.4"/><path id="path272" class="st0" d="M5702.9 680.4c20.4 27.3 31.8 64.9 34 112.3 3.6 48.6-6.4 97.9-28.7 131.8-35.6 54.2-101 67.6-149.7 67.6h-239.2c-36.2 0-52.1-14.9-52.1-50.7V479.5a51.9 51.9 0 0 1 87.8-39.7 51.6 51.6 0 0 1 16.2 39.7v408.6h193.9c24.3 0 46.3-17 57.7-33.6 8.1-13.2 12.7-32 12.7-51.7 0-19.6-4-37.6-10.8-52.1-9.6-20.8-24.9-34.9-42.1-34.9h-74.1a51.5 51.5 0 0 1-39.8-16.2 54.3 54.3 0 0 1-14.3-36c0-13.9 5.8-26.8 14.4-36.3a51.3 51.3 0 0 1 39.7-16.3h74.4c17.2 0 32.5-13.4 42.1-34.2a111 111 0 0 0 10.6-49v-48.3c0-16.5 5.4-30.3 15.7-39.8a51.9 51.9 0 0 1 34.9-14.3 52 52 0 0 1 51.1 54.1V517l-.1-.1c.1 37.4-4.3 94.7-34.6 134.9l-7.3 9.7-3.5 4.7 3.5 4.7 7.6 9.5"/><path id="path274" class="st0" d="M6244.5 992.1h-231.3c-131.7 0-193.1-60-193.1-191.8V622.2c0-126.3 57.5-192 175.4-196.8h299.7v236.4a51.7 51.7 0 0 1-87.8 39.7 51.6 51.6 0 0 1-16.2-39.7V529.4h-178.9c-56.9 0-88.2 32.9-88.2 90v180.9c0 57.2 31.2 87.8 87.8 87.8h283.3v52.4c0 37.2-15.2 51.6-50.7 51.6"/><path id="path276" class="st0" d="M6801.2 529.4h-228.9c-56.9 0-88.2 31.3-88.2 88.2v46.2h224.1a51.9 51.9 0 0 1 39.7 87.8 51.6 51.6 0 0 1-39.7 16.2h-224.1v120.3h317.1a51.7 51.7 0 0 1 39.7 87.8 51.6 51.6 0 0 1-39.7 16.2h-369.1c-18.4 0-31.4-4-39.7-12.3-8.3-8.3-12.3-21.3-12.3-39.8V620.8c0-66.9 15.4-115.1 47-147.4 31.5-32.3 78.6-48 143.8-48h230.2a51.7 51.7 0 0 1 39.7 87.8 51.2 51.2 0 0 1-39.6 16.2"/></g></g></g></svg>