<svg id="Layer_1" xmlns="http://www.w3.org/2000/svg" width="160" height="33.7" viewBox="-319 384.3 160 33.7"><style>.st0{fill:#fff}.st1{fill:none}.st2{fill:url(#SVGID_1_)}.st3{fill:url(#SVGID_2_)}.st4{fill:url(#SVGID_3_)}.st5{fill:url(#SVGID_4_)}.st6{fill:url(#SVGID_5_)}.st7{fill:url(#SVGID_6_)}.st8{fill:url(#SVGID_7_)}.st9{fill:url(#SVGID_8_)}.st10{fill:url(#SVGID_9_)}.st11{fill:url(#SVGID_10_)}.st12{fill:url(#SVGID_11_)}.st13{fill:url(#SVGID_12_)}</style><path class="st0" d="M-295.9 405.8h.2-.2zm.1 0c.1 0 .1 0 0 0h.2-.2zm21-7.2h-.2.2zm-.2 0c.1 0 .1 0 0 0 .1 0 .1 0 0 0 .1 0 .1 0 0 0 .1 0 .1 0 0 0 .1 0 .1 0 0 0zm-21.1 7.2c.1 0 .1 0 0 0 .1 0 .1 0 0 0 .1 0 .1 0 0 0zm-.4 0h.1c0 .1-.1 0-.1 0zm-.2 0c.1 0 .1 0 0 0zm.5 0h.1-.1zm-.2.1s.1 0 0 0h.1c0-.1 0 0-.1 0zm21.3-7.4s.1.1 0 0c.1.1.1.1 0 0 .1.1 0 0 0 0zm-16.8 8.7zm.1.1c-.1-.1-.1-.1 0 0-.1-.1-.1-.1 0 0-.1-.1 0-.1 0 0zm.1 0s-.1 0 0 0c-.1 0-.1 0 0 0-.1 0-.1 0 0 0zm-.3-.2zm-4.8-1.3s.1 0 0 0zm5.2 1.6s-.1 0-.1-.1l.1.1zm0 0s.1 0 0 0c.1 0 .1 0 0 0 .1 0 .1 0 0 0 .1 0 .1 0 0 0 .1 0 .1 0 0 0zm-3.6-1.8zm-.4.2h.2-.2zm.2 0h.1-.1zm.3-.2c.1 0 .1 0 0 0zm3 1.4zm-2.7-1.6zm2.7 1.5zm-3.5-5.7c.1 0 .1 0 0 0 .1 0 .1 0 0 0 .1 0 .1 0 0 0 .1 0 .1 0 0 0 .1 0 .1 0 0 0 .1 0 .1.1.1.1 0-.1 0-.1-.1-.1zm20.7.9zm-21-1.2c.1.1.1.1 0 0zm.3.3s0-.1 0 0c-.1-.1-.1-.1 0 0zm-.2-.2zm.1.1c-.1 0-.1 0 0 0zm20.5.7zm-19.7-.5h.2-.2zm19.6.5zm-19.6-.5h-.2.2zm-.2 0zm1.4-.2zm-3.6 4.5l.1.1-.1-.1zm.5.2h-.1.1c-.1 0-.1 0 0 0-.1 0-.1 0 0 0-.1 0-.1 0 0 0zm-.5-.2c-.1-.1-.1-.1 0 0-.1-.1-.1-.1 0 0-.1-.1-.1-.1 0 0-.1-.1-.1-.1 0 0-.1-.1-.1-.1 0 0-.1-.1-.1-.1 0 0-.1 0-.1 0 0 0-.1 0 0 0 0 0zm.2.2c.1 0 .1 0 0 0 .1 0 .1 0 0 0 .1 0 .1 0 0 0 .1 0 0 0 0 0zm0 0s-.1 0-.1-.1c0 .1 0 .1.1.1-.1 0-.1 0 0 0-.1 0-.1 0 0 0zm-.3-.3c-.1-.1-.1-.1 0 0-.1-.1-.1-.1 0 0-.1-.1-.1-.1 0 0-.1-.1-.1-.1 0 0-.1-.1-.1 0 0 0zm2-2.4zm-.1-1.9c.1 0 .1 0 0 0 .1.1.1.1 0 0 .1.1.1.1 0 0 .1.1.1.1 0 0 .1.1.1.1 0 0 .1.1.1.1 0 0h.1c0 .1 0 .1-.1 0zm.2.1zm.1 0c-.1 0-.1 0 0 0zm3.7 6.1s.1 0 0 0c.1 0 .1 0 0 0 .1 0 .1 0 0 0 .1 0 .1 0 0 0 .1 0 .1 0 0 0zm-3.7-6.1zm20.4.8s.1 0 .1.1c0 0-.1 0-.1-.1zm-16.2 11.5h.1-.1zm.7-.4c.1 0 .1-.1.1-.1 0 .1-.1.1-.1.1zm-.4.3s-.1 0-.1.1c0-.1.1-.1.1-.1zm-.5.3c.1 0 .1 0 .2-.1-.1-.1-.2-.1-.2.1zm15.3-15.6c.1 0 .1 0 0 0 .1 0 .1 0 0 0 .1 0 .1 0 0 0zm-14.7 15.2c.1 0 .1 0 .1-.1l-.1.1zm-.8.4h.2-.2zm-.7 0c.1 0 .1 0 0 0zm-.2 0s.1 0 0 0h.1-.1zm.7 0h.2-.2zm.2-6.4c.1 0 .1.1 0 0zm-1.1 6.4h.2-.2zm.5 0s.1 0 0 0c.1 0 .1 0 0 0zm5.7 2.1l-.1-.1c0 .1 0 .1.1.1-.1 0-.1 0 0 0zm-.2-.1s.1 0 0 0l-.1-.1.1.1zm.3.2s-.1 0-.1-.1c0 .1.1.1.1.1zm.1 0c.1.1.1.1 0 0 .1 0 .1 0 .1.1l-.1-.1zm.1.1c.1 0 .1 0 0 0 .1 0 .1 0 0 0zm-.6-.3zm-.2-.3s0-.1 0 0c0-.1 0-.1 0 0 0-.1 0-.1 0 0 0-.1 0 0 0 0zm-3.6-2.2s-.1 0-.1.1l.1-.1zm3.5 2zm11-17.1s0-.1 0 0c0-.1 0 0 0 0zm-10.7 17.6zm-.1-.2zm-5.1-1.8s.1 0 0 0h.2-.2zm-1.7-.6zm2.2-3.3zm-1.9 3.6zm-.3-.3c0 .1 0 .1 0 0 0 .1 0 0 0 0zm.1.1zm0 0zm18-14.8c.1 0 .1 0 0 0 .1 0 .1 0 0 0 .1 0 .1 0 0 0 .1 0 .1 0 0 0zm-15.6 9h-.2.2zm-.3 0zm16.2-9zm-16.1 9zm16-9h.1-.1zm-17.5 15.3s.1 0 0 0c.1 0 .1 0 0 0zm-.2 0s-.1-.2 0 0c-.1-.2-.1-.2 0 0-.1-.2-.1-.2 0 0zm17.4-15.4s.1 0 0 0c.1 0 .1 0 0 0 .1 0 .1 0 0 0 .1.1.1.1 0 0 .1.1.1.1 0 0 .1.1.1 0 0 0zm-17.4 15.4c.1 0 .1 0 0 0 .1 0 0 0 0 0zm.1 0s.1 0 0 0h.1-.1zm-.4-.3s.1 0 0 0c.1.1.1.1 0 0 .1.1.1 0 0 0zm.2.1s-.1 0 0 0c-.1 0-.1 0 0 0-.1 0-.1 0 0 0-.1 0-.1 0 0 0-.1 0-.1 0 0 0-.1 0 0 0 0 0zm-.3-.1c0-.1 0-.1 0 0 0-.1 0-.1 0 0 0-.1 0-.1 0 0 0-.1 0-.1 0 0zm.1 0zm-.1-.1s-.1 0 0 0c-.1 0-.1 0 0 0zm17.6-15.1c-.1 0-.1 0 0 0-.1-.1-.1 0 0 0-.1 0-.1 0 0 0-.1 0-.1 0 0 0zm.1.1c.1 0 .1 0 0 0 .1 0 .1 0 0 0 .1 0 .1 0 0 0 .1 0 .1 0 0 0 .1 0 .1 0 0 0 .1 0 .1 0 0 0 .1 0 .1 0 0 0zm.4 3.5c.1 0 .1 0 0 0 .1 0 .1 0 0 0zm-10.6 1.7s.1 0 0 0c.1 0 0 0 0 0zm-.2-.3zm-2.1 1.8c0 .1.1.1 0 0 .1.1 0 .1 0 0zm2.2-1.7zm-2.4 1.4s-.1 0 0 0c-.1 0-.1 0 0 0-.1 0-.1 0 0 0-.1 0-.1 0 0 0-.1 0 0 0 0 0zm2.4-1.5zm0 .2c.1 0 .1 0 0 0 .1 0 .1 0 0 0zm-2.2 1.5zm0 .1zm-.2-.3zm-.2-.2zm.3.3zm2.6-1.1s.1 0 .1.1c0-.1-.1-.1-.1-.1zm5.5-.4zm-.2.2l.1-.1s0 .1-.1.1zm-2.7-4c0-.1.1-.1 0 0zm2.7 4zm-2.6-4.1c.1 0 .1 0 0 0zm2.6 4.3zm-2.8-4.2zm2.7 4.3zm-4-4h.2-.2zm4.1 3.7zm-5.4.2s.1 0 0 0c.1 0 0 0 0 0zm-.2 12.3c.1 0 .1 0 0 0zm3.7-13.7s0 .1 0 0c0 .1 0 .1 0 0 0 .1 0 .1 0 0zm0 0s0-.1 0 0c0-.1 0-.1 0 0 0-.1 0-.1 0 0 0-.1 0-.1 0 0 0-.1 0-.1 0 0 0-.1 0 0 0 0zm1.8 1.6zm-11.7 1.8zm6.6-2s.1 0 .1.1c0 0 0-.1-.1-.1zm-6.5 2zm9.1-2.3zm-6.9 3.8c.1 0 .1 0 .2-.1-.1 0-.1.1-.2.1zm10.8-1.8h-.2.2zm-12.9.1v-.1zm9.7-3c0-.1 0-.1 0 0 0-.1 0-.1 0 0 0-.1 0-.1 0 0 0-.1 0-.1 0 0 0-.1 0 0 0 0zm2 7.5v-.1.1zm-14.1-4.9zm9.9-3.7zm-7.4 3.9zm7.2-3.8c0-.1.1-.1 0 0 .1-.1 0-.1 0 0zm.8-1.7h.1c0-.1 0 0-.1 0zm-.2 1.5zm.2-1.5h-.1.1zm-8 5.5l.1-.1s0 .1-.1.1zm-2.6-.2zm10.2-3.7zm-2.7-4c0 .1 0 .1 0 0zm-6.6 6.8zm15.8 1s-.1 0 0 0c-.1 0 0 0 0 0zm-13.6-.3s-.1.1 0 0c-.1.1 0 0 0 0zm11.4-1.7zm12 4.6l-.1-.1s0 .1.1.1zm-8 1.3zm-14.1-10.7s0 .1 0 0c0 .1 0 0 0 0zm0 .1c.1 0 .1 0 0 0 .1 0 .1 0 0 0zm-.1-.1zm2.6-.2s-.1 0-.1.1l.1-.1zm3.1 1.6h-.2.2zm-5.5-1.3h.1c0 .1 0 .1-.1 0zm14.5 2.8zm0 .1zm-10.4 1zm3.6.1zm-3.6-.2zm-.1.2zm0 .2zm-.1 0zm0 .3c0-.1 0-.1 0 0 0-.1 0-.1 0 0 0-.1 0 0 0 0zm10.7-1.3c0-.2-.1-.2 0 0-.1-.2 0-.2 0 0zm-10.7 1.1s0 .1 0 0c0 .1 0 0 0 0zm16.2-.5v.1-.1zm-12.5-3.5v-.1.1zm-.2.2s.1 0 0 0c.1 0 .1 0 0 0 .1 0 .1 0 0 0 .1 0 .1 0 0 0 .1 0 .1 0 0 0 .1 0 .1 0 0 0 .1 0 .1-.1 0 0 .1 0 .1 0 0 0zm.3-.5c0-.1 0-.1 0 0zm-.4.7s0-.1 0 0zm.4-.6c0-.1 0-.1 0 0 0-.1 0-.1 0 0 0-.1 0-.1 0 0 0-.1 0-.1 0 0zm-.3.5zm-.2.2c0-.1.1-.1 0 0 0-.1 0 0 0 0zm3.7 6.1zm-11.2-7.1s.1 0 0 0c.1 0 0 0 0 0zm7 1.3s-.1 0-.1.1c0-.1.1-.1.1-.1zm.9-.8s0 .1-.1.1l.1-.1c-.1.1-.1.1 0 0-.1.1-.1.1 0 0 0 .1 0 .1 0 0 0 .1 0 .1 0 0 0 .1 0 .1 0 0 0 .1 0 .1 0 0zm0-.1v-.1.1zm-.5.7c0-.1 0-.1 0 0 .1-.1.1-.1 0 0 0-.1 0 0 0 0zm7.7 2.5c.1 0 .1 0 0 0 .1 0 .1 0 0 0zm-11.8-4.5c0-.1 0-.1 0 0 0-.1 0-.1 0 0 0-.1 0-.1 0 0 0-.1 0-.1 0 0 0-.1 0-.1 0 0 0-.1 0 0 0 0zm1.6.9zm-1.6-.8zm0 .1s0-.1 0 0c0-.1 0-.1 0 0zm0 0zm1.4 1.1zm.1-.2zm.1-.1zm-.2.2zm0 .1zm27.7-7c.1 0 .1 0 0 0h.1c0 .1 0 0-.1 0zm-4.6 3.5c.1 0 .1 0 0 0h.1-.1zm-.5 0s.1 0 0 0c.1 0 .1 0 0 0 .1 0 .1 0 0 0 .1 0 .1 0 0 0 .1 0 .1 0 0 0zm0 0zm.6 0s.1 0 0 0c.1 0 .1 0 0 0zm-.7 0c.1 0 .1 0 0 0 .1 0 .1 0 0 0 .1 0 0 0 0 0zm1.3-.1zm-.4.1c.1 0 .1 0 0 0zm.5-.1c0-.1 0-.1 0 0 0-.1 0 0 0 0zm-1.4 0s0 .1 0 0c0 .1 0 .1 0 0 0 .1 0 0 0 0zm-1.4 1.6zm.1-.1c0-.1 0-.1 0 0 0-.1 0-.1 0 0 0-.1 0-.1 0 0 0-.1 0-.1 0 0 0-.1 0-.1 0 0 0-.1 0-.1 0 0 0-.1 0-.1 0 0 0-.1 0 0 0 0zm-.1.1s0-.1 0 0c0-.1 0-.1 0 0 .1-.1.1-.1 0 0 .1-.1.1-.1 0 0 .1-.1 0-.1 0 0zm1.3-1.6c.1 0 .1 0 0 0 .1 0 0 0 0 0zm-.1 0h.1-.1zm1.2.1s.1 0 0 0c.1 0 .1 0 0 0 .1 0 .1 0 0 0 .1 0 0 0 0 0zm-.7 0c.1 0 .1 0 0 0h.1-.1zm-.5-1.6zm.3 0zm-.3 0zm-.2-1s.1-.1 0 0c.1-.1 0 0 0 0zm.2-.1zm-.1 0c.1 0 .1 0 0 0zm1.9 2.4c.1 0 .1 0 0 0 .1 0 .1 0 0 0 .1 0 0 0 0 0zm.1-.1c.1 0 .1 0 0 0 .1-.1.1-.1 0 0 .1-.1.1-.1 0 0 .1-.1.1 0 0 0zm0 .1s0-.1 0 0c0-.1 0-.1 0 0 0-.1 0-.1 0 0 0-.1 0-.1 0 0zm-.1.1s0-.1 0 0c0-.1 0 0 0 0-.1 0-.1 0 0 0zm-.1 0zm-1 .2h.1-.1zm-2 1.6s.1 0 0 0c.1 0 .1 0 0 0 .1-.1.1-.1 0 0 .1 0 .1 0 0 0zm.8 4c.1-.1.1-.1 0 0h.1c0-.1 0 0-.1 0zm-.7-.1zm-.1 0zm.1 0s.1 0 0 0c.1 0 .1 0 0 0zm1.2-8.3c.1 0 .1 0 0 0 .1 0 .1 0 0 0 .1 0 .1 0 0 0zm-.2 8.3c.1 0 .1 0 0 0zm-1.2 0s.1 0 0 0c.1 0 .1 0 0 0 .1 0 0 0 0 0zm1.1 0zm-1.1-.1s0 .1 0 0zm1.5 0c.1 0 .1 0 0 0 .1 0 .1 0 0 0 .1 0 .1 0 0 0zm-3.2 2.3c0-.1 0-.1.1-.1l-.1.1zm-.1.1c.1-.1.1-.1 0 0 .1 0 0 0 0 0zm.2-.3zm1.4-2.1c.1 0 .1 0 .2.1-.1-.1-.1-.1-.2-.1zm.3-3.7s0-.1 0 0c0-.1 0-.1 0 0 0-.1 0-.1 0 0 0-.1 0-.1 0 0zm-1.8 5.9s.1-.1 0 0v-.1c.1 0 0 .1 0 .1zm1.5-5.7s0-.1 0 0c0-.1 0 0 0 0zm0 0zm.6 3.6c.1 0 .1 0 0 0zm-.4-3.7c0-.1 0-.1 0 0 0-.1 0-.1 0 0 0-.1 0-.1 0 0zm-.1 0zm.1-.1c.1 0 .1 0 0 0 .1 0 .1 0 0 0 .1 0 .1 0 0 0zm.6 3.9c.1 0 .1 0 0 0zm1.1-.2s0-.1 0 0l.1-.1c-.1 0-.1.1-.1.1zm.4-.4c0-.1 0-.1 0 0 0-.1 0-.1 0 0 .1-.1.1-.1 0 0 .1-.1.1-.1 0 0 .1-.1 0-.1 0 0zm-1.3.6zm1.2-.5s.1 0 0 0zm.1 0c0-.1 0-.1 0 0 0-.1 0-.1 0 0 0-.1 0-.1 0 0 0-.1 0-.1 0 0zm-.2.1c-.1.1-.1.1 0 0-.1.1-.1.1 0 0zm0 0zm2-9.3zm4.7.4zm.5-1.2c.1 0 .2 0 .2.1-.1 0-.1-.1-.2-.1zm-1 1.5c-.1 0-.1 0 0 0-.1 0-.1 0 0 0-.1 0-.1 0 0 0-.1 0-.1 0 0 0-.1 0-.1 0 0 0-.1 0 0 0 0 0zm1.2-1.4zm.1 0c.1 0 .1 0 0 0 .1 0 0 0 0 0zm0 0zm0 0zm-.9 1.2zm-.3.1c0 .1 0 .1 0 0 0 .1 0 .1 0 0 0 .1 0 .1 0 0 0 .1 0 0 0 0zm-.1.1zm.2-.1zm1.3-1.3h-.1.1c-.1 0-.1 0 0 0-.1 0-.1 0 0 0-.1 0-.1 0 0 0zm-1.1 1.1s.1 0 0 0c0 .1 0 .1 0 0zm-.1.2zM-256.2 391.8s0-.1 0 0c0-.1 0-.1 0 0 0-.1 0-.1 0 0 .1-.1.1-.1 0 0 .1-.1 0-.1 0 0zm2.2-1.4zm-.2 0c0 .1 0 0 0 0zm.1 0zm.2-.1c-.1 0-.1 0 0 0-.1.1-.1.1 0 0-.1.1-.1.1 0 0-.1 0-.1 0 0 0zm0 0zm0-.1s0 .1 0 0c0 .1 0 .1 0 0 0 .1 0 0 0 0zm-.5.3s-.1 0 0 0c-.1 0-.1 0 0 0-.1 0-.1 0 0 0-.1 0-.1 0 0 0-.1 0 0 0 0 0zm-.2 0c-.1 0-.1 0 0 0-.1 0-.1 0 0 0-.1 0-.1 0 0 0zm-.1 0c-.1 0-.1 0 0 0-.1 0-.1 0 0 0-.1 0-.1 0 0 0-.1 0-.1 0 0 0zm-8.4 2zm8.7-2s.1 0 0 0c.1 0 .1 0 0 0 .1 0 .1 0 0 0 .1 0 0 0 0 0zm.1 0s.1 0 0 0zm-.6 0c-.1 0-.1 0 0 0zm.4 0s-.1 0 0 0c-.1 0-.1 0 0 0-.1 0-.1 0 0 0-.1 0-.1 0 0 0-.1 0 0 0 0 0zm-7.3.7s0 .1 0 0zm0 .1c.1 0 .1 0 0 0 .1 0 .1 0 0 0 .1 0 .1 0 0 0 .1 0 .1 0 0 0zm.4 0c.1 0 .1 0 0 0 .1 0 .1 0 0 0zm4.7.6s.1 0 0 0zm-4.1-.7zm-.4.1c.1 0 .1 0 0 0 .1 0 .1 0 0 0zm.2 0s0-.1 0 0c.1-.1.1-.1 0 0h.1c0-.1-.1-.1-.1 0zm-2 1.1s0-.1 0 0c0-.1 0-.1 0 0 0-.1 0-.1 0 0 0-.1 0-.1 0 0 0-.1 0-.1 0 0zm-3.5 10.8s.1 0 0 0c.1 0 .1-.1 0 0 .1-.1.1-.1 0 0 .1-.1.1 0 0 0zm3.4-10.8c.1 0 .1 0 0 0 .1 0 .1 0 0 0 .1 0 .1 0 0 0 .1 0 .1 0 0 0 .1 0 .1 0 0 0 .1 0 0 0 0 0 0 .1 0 .1 0 0zm1.2-1.2s.1 0 0 0c.1 0 .1 0 0 0 .1 0 .1 0 0 0 .1 0 .1 0 0 0zm-1.1 1.1c0-.1 0-.1 0 0zm1-1.1c.1 0 .1 0 0 0 .1 0 .1 0 0 0 .1 0 .1 0 0 0zm.1 0zm.3.1s.1 0 0 0c.1 0 .1 0 0 0 .1 0 .1 0 0 0 .1 0 .1 0 0 0 .2 0 .1 0 0 0zm4.5.6h-.1.1c-.1 0-.1 0 0 0-.1 0-.1 0 0 0zm-.2 0h-.1.1c-.1 0 0 0 0 0zm-.3 0c.1 0 .1 0 0 0 .1 0 .1 0 0 0 .1 0 .1 0 0 0zm.6 0c-.1 0-.1 0 0 0-.1 0-.1 0 0 0-.1 0 0 0 0 0zm-3.6-.8zm3.8.8c-.1 0 0 0 0 0zm-.1 0h-.1.1zm-19.1 6.2c.1 0 .1 0 0 0 .1 0 0 0 0 0zm17.7-6.5zm-.1-.1zm-.1 0zm.3.2zm.2.1c.1 0 .1 0 .2.1-.1-.1-.1-.1-.2-.1zm-.1-.1c.1 0 .1 0 0 0zm-26 24.3zm6.1-4.8h.2-.2zm-.2 0c.1 0 .1 0 0 0zm-.2 0s.1 0 0 0c.1 0 .1 0 0 0zm-.1 0h.1-.1zm1-.1c.1 0 .1 0 .2-.1-.1.1-.2.1-.2.1zm-.2.1s0-.1 0 0c0-.1.1-.1 0 0h.2c-.1-.1-.1-.1-.2 0zm-.2 0c.1 0 .1 0 0 0h.2-.2zm-1 0c.1 0 .1 0 0 0zm-.3-.1c.1 0 .1 0 0 0 .1 0 .1 0 0 0 .1 0 .1 0 0 0zm.1 0s.1 0 0 0zm-.1 0zm.2 0s0 .1 0 0c0 .1 0 .1 0 0 0 .1 0 .1 0 0h.1c0 .1-.1.1-.1 0zm-.3-.1c0 .1 0 .1 0 0 0 .1 0 0 0 0zm6.5 1.8zm-4.5-1.8h.1-.1zm3.9.9s0 .1 0 0zm.2.4s0-.1-.1-.1l.1.1c-.1-.1-.1-.1 0 0zm-.1-.3c0 .1 0 .1 0 0 0 .1 0 0 0 0-.1 0-.1 0 0 0-.1 0-.1 0 0 0zm.1.3s0 .1 0 0c0 .1 0 0 0 0zm.1.1c0 .1 0 .1 0 0 0 .1 0 0 0 0zm.2.4zm-.1-.2c0-.1 0-.1 0 0zm-.5-1zm-3.3-.8c.1 0 .1 0 0 0 .1 0 .1 0 0 0zm-.2.1s0-.1 0 0zm-.2.1c0-.1.1-.1 0 0 .1-.1 0-.1 0 0zm.4-.2s-.1 0 0 0c-.1 0 0 0 0 0zm3.3.7zm7-8.2c0-.1 0-.1 0 0 0-.1 0-.1 0 0 0-.1 0-.1 0 0zm-12.2 7.9h.2-.2zm-5.8 4.9zm-.1 0zm-.2.1c0-.1 0-.1 0 0 .1-.1.1-.1 0 0h.1c0-.1 0-.1-.1 0zm.4-.1c0-.1.1-.1 0 0h.1c0-.1-.1-.1-.1 0zm.4-.2c.1 0 .1-.1.2-.1-.1 0-.2.1-.2.1zm-.9.3h.1-.1zm-.9-.1s.1 0 0 0c.1 0 .1.1 0 0h.1c0 .1 0 0-.1 0zm.6.1c.1 0 .1 0 0 0zm5.7-5.2c.1 0 .1.1.2.1-.1-.1-.1-.1-.2-.1zm-5.9 5.2h.1-.1zm-.2 0c.1 0 .1 0 0 0zm.1 0zm.2 0zm1.5-.4c.1 0 .1-.1.2-.1-.1.1-.1.1-.2.1zm-1.2.4h.1-.1zm2.8-2.4c0 .1 0 0 0 0zm-.1.4c0-.1 0-.1 0 0 0-.1 0-.1 0 0v-.2.2zm.1-.4v-.2.2zm0-.5zm0 .2s0-.1 0 0zm0-.4c0 .1 0 .1 0 0zm-.2 1.3c0-.1 0-.1 0 0 0-.1 0-.1 0 0v-.2.2zm-.4.6c0-.1 0-.1 0 0l.1-.1v-.1s0 .1-.1.2zm-.3.3l.1-.1-.1.1z"/><path class="st0" d="M-283 415.2c0-.1.1-.1 0 0l.1-.1.1-.1c-.1 0-.1.1-.2.2zm-.4.3c-.1 0-.1.1-.2.1.1 0 .1 0 .2-.1zm.8-.7l.1-.1-.1.1zm-.8.7s.1 0 0 0c.1-.1.1-.1.2-.1 0 0-.1.1-.2.1zm.9-1l.1-.1-.1.1zm9.1-2.7v-.1.1zm8.1-3h.2-.2zm-.2.1zm1.2-.7c0-.1 0-.1 0 0 0-.1 0-.1 0 0l.1-.1c-.1 0-.1 0-.1.1zm-.5.4s.1 0 .1-.1c0 .1-.1.1-.1.1zm.4-.3s0-.1 0 0l.1-.1s-.1 0-.1.1zm-.6.5s.1 0 0 0c.1 0 .1-.1.1-.1 0 .1 0 .1-.1.1zm-1.4.1s.1 0 0 0zm1.4-.1s-.1 0 0 0c-.1 0-.1 0 0 0zm-1.9 0c.1 0 .1 0 0 0 .1 0 0 0 0 0zm.1 0zm-.3 0c.1 0 .1.1.2.1-.1-.1-.1-.1-.2-.1zm.5 0s.1 0 0 0c.1 0 .1 0 0 0 .1 0 .1 0 0 0h.2c-.1.1-.1 0-.2 0zm-.1 0zm-2.4 3.2c0-.1 0-.1 0 0 0-.1 0 0 0 0zm2.4-3.2s.1 0 0 0c.1 0 .1 0 0 0 .1 0 .1 0 0 0zm.1-3.2zm-.3-2.1zm0 0s.1 0 .1-.1c0 .1 0 .1-.1.1zm.3-.2zm-.1.1zm.6 5.5c.1 0 .1 0 0 0h.2-.2c-.1 0 0 0 0 0zm2-1.1v-.1.1c-.1.1 0 0 0 0zm-.4.6s0-.1 0 0c0-.1 0 0 0 0zm.3-.4s0-.1 0 0c0-.1.1-.1.1-.1-.1 0-.1.1-.1.1zm-8.4 5l-.1-.1s.1 0 .1.1zm6.9-4.1h.1-.1zm-.2 0h.2-.2zm1.3-.5c0 .1 0 .1 0 0 0 .1 0 .1 0 0zm.5-.6s0-.2 0 0c0-.2 0-.2 0 0 0-.2 0-.2 0 0 0-.2 0-.2 0 0 0-.2 0-.2 0 0 0-.2 0-.2 0 0 0-.2 0-.2 0 0 0-.2 0 0 0 0zm-7.4 5.6s.1 0 0 0zm-.1-.1s.1 0 0 0c.1 0 .1 0 0 0 .1.1 0 0 0 0zm.2.1c.1 0 .1 0 0 0 .1 0 .1 0 0 0zm-.3-.1h.1-.1zm.7.1h.2c-.1-.1-.1 0-.2 0zm-.1 0s.1 0 0 0zm-.1 0h.1-.1zm-1.4-.4c.1 0 .1 0 0 0l.1.1c0-.1 0-.1-.1-.1zm.3.1c.1.1.1.1 0 0 .1 0 .1.1.1.1l-.1-.1zM-272.4 413.1c.1 0 .1 0 .1.1 0-.1-.1-.1-.1-.1zm.6.2h.1-.1zm1 0c.1 0 .1 0 0 0zm-1.3-.1c.1 0 .1 0 0 0zm.2.1h.1-.1zm2.6-.9zm.1-.2c.1 0 .1-.1 0 0 .1-.1.1-.1 0 0 .1-.1 0 0 0 0zm.2-.3c0-.1 0-.1 0 0 0-.1 0-.1 0 0 0-.1 0-.1 0 0v-.1.1zm-.3.5s0-.1 0 0c.1-.1.1-.1 0 0 .1-.1 0-.1 0 0zm.1-.1s0-.1 0 0c0-.1 0-.1 0 0 0-.1 0 0 0 0zm.2-.7zm-.1.5c0-.1 0-.1 0 0 0-.1 0-.1 0 0 0-.1 0 0 0 0zm-1.5 1.2s.1 0 0 0c.1 0 .1 0 0 0h.2c0-.1-.1 0-.2 0zm.5-.2c.1 0 .1-.1.2-.1-.1.1-.2.1-.2.1zm.1-.1l.1-.1c.1.1 0 .1-.1.1zm-.3.2c.1 0 .1 0 .2-.1-.1.1-.2.1-.2.1zm.9-.7c.1 0 .1 0 0 0zm-.2.3l.1-.1c0 .1-.1.1-.1.1zm0 0l-.1.1s0-.1.1-.1zm-11.1-15.6c.1 0 .1 0 0 0 .1 0 .1 0 0 0 .1 0 .1 0 0 0 .1.1.1.1 0 0 .1 0 .1 0 0 0zm9.6-2.5zM-290 413c-.1 0-.1.1-.2.1.1 0 .2 0 .2-.1zm9.9-2.8s0 .1 0 0c0 .1 0 0 0 0zm0 .1s0 .1.1.1c0 0-.1 0-.1-.1zm8.7-16.6h-.1.1zm0 0zm.1-.1c.1 0 .1 0 0 0 .1 0 .1 0 0 0zm-7.1 14zm.2 0zm-1.8 2.9l.1.1-.1-.1zm.4.4l.1.1c0-.1-.1-.1-.1-.1zm8.3-16.2h.1-.1zm-8.6 15.9c.1 0 .1.2 0 0 .1.2.1 0 0 0zm.2.2zm-7.1 2.7zm-.1.1zm15.1-19.9zm-15 19.7zm-.2.4zm.1 0zm.2-.5zm0-.1zm-2.2-1.6zm-.9 1.3zm3.3.1zm15.1-18.2zm-14.9 18c-.1.1-.1.2-.2.2.1-.1.1-.2.2-.2-.1 0-.1 0 0 0-.1 0-.1 0 0 0zm3.7-19.4c0 .1 0 .1 0 0 0 .1 0 .1 0 0zm6.9 4.9zm-8-5.9zm2.9 1.9s0 .1 0 0c0 .1 0 0 0 0zm13.4 14.2s.1 0 .1.1c0-.1-.1-.1-.1-.1zm-.1-.1l.1.1-.1-.1zm-8.1-10zm8.4 10.2c.1 0 .1.1.2.1-.1-.1-.2-.1-.2-.1zm-13.7-14.8zm-1.6-.4s0-.1 0 0c0-.1 0 0 0 0zm-.1 0s.1 0 0 0c.1 0 0 0 0 0zm-1.3-1zm8.1 4.6zm-7.8-5.5c.1 0 .1 0 0 0zm10.3 19.3zm.2-.6c0 .1 0 .1 0 0-.1.1-.1.2-.2.3 0 0 0 .1-.1.1v-.1s0-.1.1-.1.1-.1.2-.2c-.1.1-.1.1 0 0 0 .1 0 .1 0 0zm.1 0zm-.4.7v-.1zm-4.7-5.5h-.1.1zm-.7.1h.2-.2zm5.4 5.5zm-.1.2zm5.8-3l.1.1s-.1 0-.1-.1zm-8.8 2.3l-.1.1.1-.1zm8.7-2.4s0 .1 0 0c0 .1 0 0 0 0zm-5.5 2.7zm5.4-2.8zm-10.1-2.6zm2-7.4zm-2.6-4.8c0 .1.1.1 0 0 .1.1.1.1 0 0 .1.1.1.1 0 0 .1.1.1.1 0 0zm14.3-4.4zm-11.9 2.8zm-2 1.9zm-12.8 14h.2-.2zm12.5-14.2zm.1 0zm14.2-4.7zm-3.4.2zm-10.7 4.7s0-.1 0 0c0-.1 0-.1 0 0zm2.7-2.9c-.1 0-.1 0-.2.1.1 0 .1 0 .2-.1zm11.4-2c0 .2 0 .2 0 0 0 .2 0 .2 0 0zm-3.5 0zm-.1 0s.1 0 0 0c.1 0 0 0 0 0zm-8.2 2.1c.1 0 .1 0 .2-.1 0 .1-.1.1-.2.1zm.1 6.5zm3.9-1.3s-.1-.1 0 0c-.1-.1 0 0 0 0zm-4.1 1.6zm.3-.4h-.1zm-.2.2zm-2.6-4.1zm6.8.5h-.1.1zm-4.8-.9zm-.1 0zm-.3-.2c.1.1.1.1 0 0 .1.1.1.1 0 0zm.1.1s.1 0 0 0c.1 0 0 0 0 0zm-.1-.1zm-.1-.1c.1.1.1.1 0 0 .1.1.1.1 0 0zm-1.2.9zm15.9 6.7zm-9.3-3.9c.1 0 .1 0 0 0 .1 0 .1 0 0 0zm-13.3 2l-.1.1s-.1 0-.1.1l.2-.2.1-.1c0 .1-.1.1-.1.1zm20.7-9.4zm-7.3 7.4c.1 0 .1 0 0 0zm8.5-10.1s-.1 0 0 0c-.1 0-.1 0 0 0-.1 0-.1 0 0 0-.1 0-.1 0 0 0-.1 0-.1 0 0 0-.1 0 0 0 0 0zm-26.8 21.2zm-.9.2h.2-.2zm3.8 6.4zm25.8-19.1s0-.1 0 0zm0-8.3c0-.1 0-.1 0 0 0-.1 0-.1 0 0 0-.1 0-.1 0 0 0-.1 0 0 0 0zm-3 6.3zm0 0h-.1.1zm-.1-4zm-1.3 3.3zm-1.6-4.2zm-1.9 4.1zm-2.8 4zm-.1-.1zm.1.1c.1.1.1.1 0 0 .1.1.1.1 0 0zm-2.2 4zm2.3-3.9c.1 0 .1 0 0 0 .1 0 .1 0 0 0zm-11.8-3.7zm13-2.6zm0-.1zm.1.1zm-2.7-.3h.1-.1c-.1 0-.1 0 0 0-.1 0 0 0 0 0zm2.6-.2s0-.1 0 0c0-.1 0 0 0 0zm-.1.3zm-2.9-1.1c-.1 0-.1 0 0 0-.1 0-.1 0 0 0zm.3-.1c.1 0 .1 0 0 0 .1 0 0 0 0 0zm-.2.1s0-.1 0 0c.1-.1.1-.1 0 0 0-.1 0 0 0 0zm2.8.9zm3.4 2.2zm-3.3-2.4zm-.1.2zm1 2.3zm.1 0zm.2.2zm.2.1zm-.4-.2c.1 0 .1 0 0 0 .1 0 .1 0 0 0zm.1 0zm-.2-1.8h.1c0 .1-.1 0-.1 0zm0 0zm-.4 0s.1 0 0 0-.1 0 0 0c-.1 0 0 0 0 0zm1.1 0zm0 0h-.2.2zm-.6.1c.1 0 .1 0 0 0zm-3.4-.6h.1-.1c-.1 0-.1 0 0 0-.1 0-.1 0 0 0zm.4-.1s.1 0 0 0c.1 0 0 0 0 0zm.1-.1s.1 0 .1-.1c0 .1 0 .1-.1.1zm-.2.1zm-2.7 1.1zm.1 0c-.1 0-.1 0 0 0zm0-.1c0 .1 0 .1 0 0zm2.5-1s-.1.1 0 0c-.1.1-.1.1 0 0-.1.1-.1.1 0 0-.1 0-.1 0 0 0zm2.4.5zm.6.1zm-.5-.1zm.6 1.7zm0-1.6s-.1 0 0 0c-.1 0-.1 0 0 0-.1 0 0 0 0 0zm-.1 0c-.1 0-.1 0 0 0zm-.2 0s.1 0 0 0c.1 0 .1 0 0 0 .1 0 .1 0 0 0 .1 0 .1 0 0 0h.1-.1zm-3.8-.6zm-1.7 1.2zm1.8-1.2c-.1 0 0 0 0 0zm-.2 0s.1 0 0 0c.1 0 0 0 0 0zm.2 0zm.1.1s.1 0 0 0c.1 0 .1 0 0 0 .2 0 .1 0 0 0zm-.1 0c.1 0 .1 0 0 0 .1 0 0 0 0 0 0-.1 0 0 0 0zm-.3-.1c.1 0 .1 0 0 0 .1 0 .1 0 0 0zm-1.2 1c-.1 0 0 0 0 0zm-.2.1s-.1.1 0 0c-.1.1 0 0 0 0zm.2-.1c0-.1 0-.1 0 0 0-.1 0-.1 0 0 0-.1 0-.1 0 0 0-.1 0-.1 0 0zm.1-.1s0-.1 0 0c0-.1 0-.1 0 0 0-.1 0-.1 0 0 0-.1 0-.1 0 0 0-.1 0-.1 0 0 0-.1 0-.1 0 0zm0-.1zm-.1.1s.1 0 0 0c.1 0 .1 0 0 0zm4.5-.7zm5.2 10.6s-.1-.1 0 0c-.1-.1 0 0 0 0zm.6-1.5zm2-9.3h-.2.2zm-.8 5.5s0 .1 0 0c0 .1 0 0 0 0zm2.4-6.8c.1 0 .1 0 0 0 .1 0 .1 0 0 0zm-3 .7c0 .1 0 .1 0 0 0 .1 0 .1 0 0zm-3.1 7.6zm-1.4-9.8zm3 10.7h-.2.2zm-5.7-1zm4.3-.3zm-.1 0zm-11.7-6.2c.1 0 .1 0 0 0 .1 0 .1 0 0 0zm.1-.1s0 .1 0 0c0 .1 0 0 0 0zm13.5 10.6zm-12.1-10.1zm0-.1zm5.5-3.5zm-8 2.5zm1.1.6c.1 0 .1 0 0 0 .1 0 .1 0 0 0zm1.4.4zm6.5 4.6zm-.8-7.9zm-5.5 3.1zm-.2.2zm.1-.1zm4.4 2.9zm7.5 7.3s0 .1 0 0c0 .1 0 0 0 0zm-7.5-7.3zm-3.1-1.3zm3.3.9zm0 0zm7.3-.7zm0 0zm-10.5-.2zm3.1 1.1l.1-.1c-.1 0-.1 0-.1.1zm3.1-1.2zm4.2.5s0 .1 0 0c0 .1 0 0 0 0zm-7.4.8zm3.2 9.3zm0 .1s0 .1 0 0c0 .1 0 0 0 0zm.2-.4h.1zm0 0l.1-.1-.1.1zm2.5 1.8s.1 0 0 0c.1 0 0 0 0 0zm-.4.2zm.1-7.5s0 .1 0 0c0 .1 0 0 0 0zm1.6 1zm-7.1-4.6zm-1.4 7.3zm7.1-8.4c-.1 0-.1 0 0 0-.1 0-.1 0 0 0zm-7.2 8.5zm-5.3-5.5h.1-.1zm2.6-2.4c0 .1 0 .1 0 0 0 .1 0 .1 0 0zm0 .1zm0-.2s0 .1 0 0c0 .1 0 0 0 0zm0 0s.1-.1 0 0c.1-.1 0 0 0 0zm-7.7-.9zm1.4.3h.1-.1zm6.3.9zm-3.7-2.3s.1 0 0 0c.1 0 0 0 0 0zm-1.5 2.9c0 .1 0 .1 0 0 0 .1 0 .1 0 0zm-2.5-1.8s.1 0 0 0c.1 0 0 0 0 0zm3.6-1.4zm.1 0s-.1 0 0 0c-.1 0 0 0 0 0zm4 2.7zm0 0s0-.1 0 0c0-.1 0-.1 0 0 0-.1 0 0 0 0zm-2-2.6s-.1.1 0 0c-.1.1 0 0 0 0zm-5 1.6zm-.1 0s.1 0 0 0c.1 0 .1 0 0 0 .1 0 .1 0 0 0 .1 0 .1 0 0 0zm.1 0s.1 0 0 0zm-.9 1.9zm0 0zm0 0c0 .1 0 .1 0 0 0 .1 0 0 0 0zm.8-1.9zm-.2 0c.1 0 .1 0 0 0 .1 0 .1 0 0 0 .1 0 0 0 0 0zm-.2-.1zm0-.1c-.1 0-.1 0 0 0-.1 0-.1 0 0 0-.1 0-.1 0 0 0zm.3.2s.1 0 0 0c.1 0 .1 0 0 0 .1 0 .1 0 0 0 .1 0 .1 0 0 0 .1 0 0 0 0 0zm-.2-.1c-.1 0 0 0 0 0zm.1.1c0-.1-.1-.1 0 0-.1-.1-.1-.1 0 0-.1-.1 0-.1 0 0 0-.1 0-.1 0 0 0-.1 0-.1 0 0 0-.1 0-.1 0 0zm-.3-.2zm3.8-3c-.1 0-.1 0 0 0-.1 0-.1 0 0 0-.1 0-.1 0 0 0-.1 0-.1 0 0 0zm-.3-.2zm0 0zm0 0zm.1.2s0-.1 0 0c0-.1 0-.1 0 0zm0 0c.1 0 .1 0 0 0 .1 0 .1 0 0 0zm6.9-.5zm-6.9.4s-.1 0 0 0c-.1 0-.1 0 0 0-.1 0 0 0 0 0zm-.1 0zm7.1-.4zm-4.1-.8zm0 0zm.4.3s.1 0 0 0c.1 0 0 0 0 0zm3.7.5c-.1 0-.1 0 0 0zm.2 0h-.2.2zm-11 5.7s-.1 0 0 0c-.1 0-.1 0 0 0-.1 0-.1 0 0 0zm4-3.4c.1 0 .1 0 0 0 .1 0 .1 0 0 0zm-.1-.1zm.7-1.6h-.2.2zm-.8 1.5zm0 0zm.6-1.5zm-.6 1.5c.1.1.1.1 0 0 .1.1.1.1 0 0zm.2.1zm.1-1.6zm-.1-.1c.1.1.1.1 0 0zm.2.1zm.1 0zm0 0zm-.1 0s.1 0 0 0c.1 0 .1 0 0 0 .1 0 .1 0 0 0 .1 0 .1 0 0 0 .1 0 .1 0 0 0zm-3.8 5.4s-.1-.1 0 0c-.1-.1-.1-.1 0 0-.1 0-.1 0 0 0zm4.1 3.6s-.1-.1 0 0c-.1-.1-.1-.1 0 0-.1-.1-.1-.1 0 0zm.2-2.8c.1 0 .1 0 0 0 .1 0 .1 0 0 0 .1 0 .1 0 0 0zm10.4-3.1zm-10.3 6c.1 0 .1 0 0 0zm.1 0c.1 0 .1 0 0 0h.1-.1zm-.2 0h-.1c0-.1.1-.1.1 0 0-.1 0-.1 0 0zm-.2-.1c.1 0 .1 0 0 0 .1 0 .1 0 0 0 .1 0 .1 0 0 0 .1 0 .1 0 0 0zm-.3-.3c0 .1 0 .1 0 0 0 .1 0 0 0 0zm.7-2.5c-.1 0 0 0 0 0zm-.7 2.5s-.1 0 0 0c-.1-.1-.1 0 0 0-.1 0-.1 0 0 0zm.6-2.5zm.2 0h-.1.1zm-.9 2.3zm0 .1zm.2.3c.1 0 .1 0 0 0 .1 0 0 0 0 0zm2.2 0zm-.2.1zm-.2 0h.1-.1zm2.7.4zm0 .1zm-3-.4c.1 0 .1 0 0 0 .1 0 .1 0 0 0zm3 .2zm-3.2-.2s.1 0 0 0h.1-.1zm-.4.1c.1 0 .1 0 0 0 .1 0 .1 0 0 0 .1 0 .1 0 0 0zm.2 0h.1-.1zm-.3-.1s.1 0 0 0c.1 0 .1 0 0 0zm.4.1c0-.1 0-.1 0 0h.1c0-.1-.1-.1-.1 0zm.2-.1s.1 0 0 0zm-.7 0c.1 0 .1 0 0 0zm-4.8-3.8s-.1 0 0 0c-.1 0-.1 0 0 0zm.9.1s.1 0 0 0c.1 0 .1 0 0 0zm-.2 0c.1 0 .1 0 0 0 .1 0 .1 0 0 0zm-.2 0c.1 0 .1 0 0 0 .1 0 .1 0 0 0zm.6 0c.1 0 .1 0 0 0 .1 0 .1 0 0 0 .1 0 .1 0 0 0zm.7-.2c.1 0 .1-.1.2-.1-.1.1-.2.1-.2.1zm2 .5zm-2.4-.3s0-.1 0 0h.1c0-.1-.1-.1-.1 0zm3.1.8zm-4.2-.8c.1 0 .1 0 0 0 .1 0 .1 0 0 0 .1 0 .1 0 0 0zm-.4-.2zm.2.1s-.1 0 0 0c-.1 0-.1 0 0 0-.1 0-.1 0 0 0zm-.3-.1zm.4.2c.1 0 .1 0 0 0 .1 0 .1 0 0 0 .1 0 .1 0 0 0zm6.4-6.7s-.1 0 0 0c-.1 0 0 0 0 0zm-5 6.6c.1 0 .1 0 0 0zm2.6.8c-.1 0 0 0 0 0zm-.5-.4zm.5.4c.1 0 .1 0 0 0 .1 0 .1 0 0 0 .1 0 0 0 0 0zm-.2-.1zm.4.2c.1 0 .1 0 0 0 .1 0 .1 0 0 0 .1 0 0 0 0 0zm-.1 0c.1 0 .1 0 0 0 .1 0 .1 0 0 0 .1 0 0 0 0 0zm-.2-.1zm-.2-.2zm-.1-.1zm0 0zm.3.3zm-.1-.1zm-.2-.1c0-.1 0-.1 0 0 0-.1 0-.1 0 0zm6.1-7.1zm18.9 1.3c-.1 0 0 0 0 0zm0-.1zm0 .1zm0-.1c0 .1 0 .1 0 0 0 .1 0 .1 0 0 0 .1 0 .1 0 0 0 .1 0 .1 0 0 0 .1 0 .1 0 0 0 .1 0 .1 0 0 0 .1 0 0 0 0zm-.2.2zm.1 0zm0 0zm-.7.2h-.2.2zm.8.6zm-.6-.6c.1 0 .1 0 0 0 .1 0 .1 0 0 0zm.1 0c.1 0 .1 0 0 0 .1 0 .1 0 0 0zm-4.9-2.2zm.1-.1zm5.2 3.7zm-5.3-3.6zm0 0c0-.1.1-.1 0 0 .1-.1.1-.1 0 0 .1-.1.1-.1 0 0 .1-.1.1-.1 0 0zm0 0c-.1 0-.1 0 0 0-.1 0-.1 0 0 0zm-1 2.7zm1.1-2.8zm3.1 1.5s0-.1 0 0c0-.1 0-.1 0 0 0-.1 0-.1 0 0 0-.1 0 0 0 0zm-1.6-.1zm-1.5.2h.1c0 .1-.1.1-.1 0zm3.1-.1zm0 0zm-.1 0zm-3.2-1.4zm-13.3 12h.1-.1zm6.7 5.2h.2-.2zm.5 0zm.3 2c-.1 0-.1 0 0 0-.1 0-.1 0 0 0zm2.3-5.2s.1 0 .1.1l-.1-.1zm-2.1 3zm-12.9-9zm5.3 4c.1 0 .1 0 0 0zm-4.8-2.9zm-.2-1.1zm14.5 6c.1 0 .1 0 0 0 .1 0 .1 0 0 0zm-11-2.7c.1.1.1.1 0 0 .1.1.1.1 0 0 .1.1.1.1 0 0zm15.7-6.9c0-.1 0-.1 0 0 0-.1 0-.1 0 0zm4.6-.7zm-4.5.6c-.1 0-.1 0 0 0-.1 0-.1 0 0 0zm1.7.1zm.1.4zm-6.7 9.1s.1 0 0 0c.1 0 0 0 0 0zm6.6-9.5c0 .1 0 .1 0 0 0 .1 0 .1 0 0zm2.9-.6zm-6.6.7zm-1.1 4zm.1.1h.1-.1zm-.3-.2c.1.1.1.1 0 0 .1.1.1.1 0 0zm-.1 0c.1 0 .1 0 0 0 .1 0 .1 0 0 0zm.4-1.2v-.1zm.1-7.7zm-4.6 1.2h-.2.2zm-4.4-.8zm1.9.1zm1.4.2zm-3.3-.4s0 .1 0 0c0 .1 0 0 0 0zm0 0zm1.9.2zm1.4.2zm.1-.2zm-.1.2zm0 0zm0 0c0-.2 0-.2 0 0 0-.2 0-.2 0 0zm-9.1.4zm1.7-.1c.1 0 .1 0 0 0 .1 0 .1 0 0 0zm-1.8 0zm11.2-.3zm-8 .5zm-3 0c.1 0 .1 0 0 0 .1 0 .1 0 0 0zm1.8-.3zm1.2.3zm0 0zm13.4-.7zm-13.4.7zm-1.3-.2zm.1-.1zm9.8-.9zm.1.1zm-.2-.1zm1.8 0zm1.4.2zm0-.2zm1.2.7h-.2.2zm-2.2 1.8zm-1.9-2.4c.1 0 .1 0 0 0 .1 0 .1 0 0 0zm2.9 0zm-14.9.9zm13.5-1zm-1.9-.1zm-.1-.1zm.1 0zm-7.7 1.9zm7-.6l.4.6zm-6.1.6l.3.6zm9.1.8c.1-.1.1-.1 0 0 .1-.1.1-.1 0 0zm-7.9.3l1.6.2-1.6-.2zm3 .1l1.2-.5zm-8.2.9zm15-.6l.7.8z"/><path class="st0" d="M-253.9 390.2s.1 0 0 0c0-.2 0-.2-.1-.3-.1-.1-.2-.1-.3-.2 0-.1-.2-.1-.3-.2-.1 0-.3-.1-.5-.1l-.8-.7v-.1c0-.1 0-.1-.1-.2l-.2-.2c-.1-.1-.2-.1-.4-.1-.1 0-.3-.1-.4-.1h-.6c-.1 0-.2 0-.3.1-.1 0-.1.1-.2.1l-1.7-.2-.1-.1c-.1 0-.1-.1-.2-.1s-.2-.1-.3-.1-.2 0-.3-.1l-.6-.6V386.7c0-.1-.1-.1-.2-.2-.1 0-.2-.1-.3-.1s-.2-.1-.4-.1h-.8c-.1 0-.1 0-.2.1l-1.4-.5-.1-.1s-.1-.1-.2-.1-.1-.1-.2-.1-.2 0-.3-.1h-.8c-.1 0-.2.1-.3.1-.1 0-.1.1-.2.1v.2l-1 .4h-.6c-.1 0-.2 0-.3.1 0 .1-.1.1-.1.1l-1.5-.2s0-.1-.1-.1l-.1-.1c-.1 0-.1-.1-.2-.1s-.2 0-.3-.1h-.8c-.1 0-.2.1-.3.1-.1 0-.2.1-.2.1v.3l-1.1.4h-.6c-.1 0-.2 0-.3.1-.1 0-.2.1-.2.1l-1.4-.2v-.1l-.1-.1c-.1 0-.1-.1-.2-.1h-1.4c-.1 0-.2.1-.3.1s-.2.1-.2.1l-.1.1v.3l-1.4.4h-.8c-.1 0-.3.1-.4.1s-.2.1-.3.2c-.1.1-.1.1-.1.2v.3h.4l.1.7c-.1 0-.1 0-.2.1-.1 0-.1 0-.2.1 0 0-.1 0-.1.1l-.1.1-.1.1v.3l-1.5.6h-.5c-.2 0-.3 0-.5.1-.2 0-.3.1-.4.1-.1.1-.3.1-.3.2l-.2.2v.6h.3c.1 0 .1 0 .2.1l.1.8c-.1 0-.1 0-.2.1-.1 0-.1.1-.2.1s-.1.1-.2.1-.1.1-.1.1c-.1.1-.2.2-.2.3v.5l.1.1.1.1h1.9c.1 0 .1 0 .2-.1l1.8.3v.4l.1.1.1.1s.1 0 .1.1c0 0 .1 0 .1.1h.3l.1 1.1c-.1 0-.1.1-.2.1s-.1.1-.2.1-.1.1-.2.1-.1.1-.1.1c-.1.1-.2.2-.2.4v.7l.1.1s.1 0 .1.1c0 0 .1 0 .1.1 0 0 .1 0 .2.1h1.5c.1 0 .1 0 .2-.1.1 0 .1-.1.1-.1l2.1.4v.5s0 .1.1.1l.1.1s.1 0 .1.1h.8l.3 1.5c-.1 0-.2.1-.2.1-.1 0-.1.1-.2.1l-.2.2c-.1.1-.1.1-.1.2s-.1.1-.1.2v.7l-2.1 1.2h-.4c-.2 0-.4-.1-.5-.1-.2 0-.4 0-.5.1-.2 0-.4.1-.5.2-.2.1-.3.2-.5.3l-2.4-.6v-.5c0-.1-.1-.2-.2-.3l-.3-.3c.6-.4.4-.4.3-.4H-283.4v-1.6s.1 0 .1-.1h.3s.1 0 .1-.1c0 0 .1 0 .1-.1l.1-.1.1-.1s0-.1.1-.1c0 0 0-.1.1-.1v-.7c0-.1 0-.1-.1-.2s-.1-.2-.3-.3c-.1-.1-.3-.2-.5-.2h-1c-.2 0-.3.1-.5.1-.2.1-.3.1-.4.2 0 0-.1 0-.1.1l-.1.1.1-.1.1-.1.1-.1-2-.4v-.4c0-.1 0-.2-.1-.2l-.2-.2c-.1-.1-.2-.1-.4-.1s-.4-.1-.6 0c-.2 0-.4 0-.6.1-.2.1-.4.1-.6.2 0 .2-.1.3-.3.5l-.2.2c0 .1-.1.1-.1.2s-.1.1-.1.2v.2l-2.4 1h-.1c-.2 0-.4-.1-.6 0-.2 0-.5.1-.7.1-.2.1-.5.2-.7.3-.2.1-.4.2-.6.4-.2.1-.3.3-.4.4s-.1.3-.1.4v.4h.5l-.6 1.8c-.1 0-.2.1-.3.1-.1.1-.2.1-.3.2-.1.1-.2.1-.3.2s-.2.1-.3.2c-.2.2-.4.4-.5.6.2.3.1.5.1.6s0 .2.1.3v.2h2.3c.1 0 .2-.1.2-.1.4.1.4 0 .5 0l2.3.7c0 .1-.1.3-.1.4s0 .3.1.4v.4h.1s.1 0 .1.1c0 0 .1 0 .1.1 0 0 .1 0 .1.1h.4l-.5 2.5c-.1.1-.2.1-.4.2-.1.1-.2.2-.4.2l-.3.3-.3.3c-.2.3-.4.5-.5.8-.1.3-.1.5-.1.8 0 .2.1.3.1.5v.1s0 .1.1.1v.2l.1.1s.1 0 .1.1c0 0 .1 0 .1.1 0 0 .1 0 .1.1h1.9c.1 0 .1 0 .2-.1 0 0 .1 0 .1-.1h.1s.1 0 .1-.1h.1s.1 0 .1-.1h.1s.1 0 .1-.1h.1s.1 0 .1-.1h.1c.1 0 .1-.1.2-.1l2.9 1c0 .2-.1.4 0 .6 0 .2.1.3.1.5v.1c0 .1 0 .1.1.2v.1s0 .1.1.1v.1s0 .1.1.1l.1.1s0 .1.1.1l.1.1.1.1c.1 0 .1.1.2.1s.1.1.2.1h1.4c.1 0 .1 0 .2-.1h.1c.1 0 .1-.1.2-.1s.1-.1.2-.1h.1c.1 0 .1-.1.2-.1s.1-.1.2-.1.1-.1.2-.2l.2-.2.2-.2c0-.1.1-.1.1-.2s.1-.1.1-.2.1-.1.1-.2 0-.1.1-.2v-1l2.9-2h2.2c.1 0 .1 0 .2-.1h.6s.1 0 .1-.1c0 0 .1 0 .1-.1l.1-.1 3.1.9v.5s0 .1.1.1c0 0 0 .1.1.1 0 0 0 .1.1.1l.1.1.1.1s.1 0 .1.1l.1.1.1.1s.1 0 .1.1c0 0 .1 0 .2.1.1 0 .1 0 .2.1h1.2c.1 0 .1 0 .2-.1.1 0 .1 0 .2-.1.1 0 .1-.1.2-.1s.1-.1.2-.1l.1-.1.1-.1.1-.1.1-.1V411.7c0-.1 0-.2-.1-.3 0-.1-.1-.2-.1-.2l2.2-1.8h1.6c.1 0 .1 0 .2-.1 0 0 .1 0 .1-.1 0 0 .1 0 .1-.1l.1-.1.1-.1.1-.1.1-.1.1-.1s0-.1.1-.2V407.5l-.3-.6c-.1-.2-.3-.3-.6-.5-.2-.1-.5-.2-.7-.3h-.4l-.8-2h.3l.1-.1s0-.1.1-.1c0 0 0-.1.1-.1 0 0 0-.1.1-.1v-.5c0-.1 0-.1-.1-.2 0 0 0-.1-.1-.1l1.7-1.2h1.6c.1 0 .1 0 .2-.1h.1s.1 0 .1-.1c0 0 .1 0 .1-.1 0 0 .1 0 .1-.1l.1-.1s0-.1.1-.1v-.8c-.1-.1-.2-.3-.3-.4-.1-.1-.3-.2-.5-.3-.2-.1-.4-.2-.6-.2h-.4l-.8-1.4h.2l.1-.1v-.7s0-.1-.1-.1c0 0 0-.1-.1-.1l1.4-.8h1.1l.1-.1.1-.1.1-.1v-.7c-.1-.1-.1-.2-.3-.3-.1-.1-.3-.2-.4-.2-.2-.1-.3-.1-.5-.1h-.4l-.7-1v-.5s0-.1-.1-.1v-.1l1.1-.6h1.3s.1 0 .1-.1l3.9-.8v.1l.1.1.1.1s.1 0 .1.1c0 0 .1 0 .1.1h.2c.1 0 .1 0 .2.1.1 0 .1 0 .2.1h1.3v-.5s0-.1-.1-.1l-.1-.1-.1-.1 1.3-.8h1.1c.3-.2.3-.2.3-.3 0 .1 0 .1 0 0zm-9.1 3.5s-.1 0 0 0c-.1 0 0 0 0 0zm-24 20.2zm-3.4-4.1zm.5-2.5zm-.9.2h.2-.2zm0 0h-.2.2zm2 3.5c0 .1 0 .1 0 0 0 .1 0 .1 0 0 0 .1 0 0 0 0zm1.9 2.8zm-.1 0zm.1-.2zm.1-.1zm0-.1zm.1-.1zm0-.1zm.2-.2zm.1-.2l-.1.1c.1 0 .1-.1.1-.1.1 0 .1 0 0 0 .1 0 .1 0 0 0zm.2-.2zm-3.6.3zm.9-1.4c0 .1 0 .1 0 0s0-.1 0 0c0-.1 0-.1 0 0 0-.1 0-.1 0 0zm0-.1v-.1c.1 0 .1 0 0 .1.1 0 0 0 0 0zm.1-.3s0 .1 0 0c0 .1 0 .1 0 0 0 .1 0 .1 0 0zm0-.2zm0-.1zm-.1-.2s0 .2 0 0c0 .2 0 .2 0 0 0 .2 0 .2 0 0 0 .2 0 0 0 0zm-1.1 2.4c-.1 0-.1.1-.2.1.1 0 .2 0 .2-.1zm9.9-2.7s0 .1.1.1c0 0-.1 0-.1-.1zm0 0s0-.1 0 0c0-.1 0 0 0 0zm.5.6l.1.1c0-.1-.1-.1-.1-.1zm-.1-.1zm-.1 0s0-.2 0 0c0-.2 0 0 0 0zm-.1-.2l-.1-.1.1.1zm1.7-3zm-.2 0zm.6 0zm-.2-2.2zm-.1 0h-.1.1zm-.7.1h.2-.2zm5.8 4.7zm-.2.1s0 .1 0 0c-.1.1-.1.1-.1.2v.1s0-.1.1-.1v-.2c.1 0 .1 0 0 0 .1 0 .1 0 0 0zm-.2.6zm0 .1zm-.1.2zm.2-.4zm-3.2-.3l-.1.1.1-.1zm8.9-2.2l-.1-.1c0 .1.1.1.1.1zm-.1-.1c-.1 0-.1-.1 0 0-.1-.1-.1 0 0 0zm-.1-.1c-.1-.1-.1-.1 0 0-.1-.1-.1-.1 0 0zm.6.5c.1 0 .1.1.2.1-.1-.1-.2-.1-.2-.1zm-.1-.1s-.1 0-.1-.1c0 .1.1.1.1.1zm-.1-.1l-.1-.1c0 .1 0 .1.1.1zm-8.2-10zm-.1-.1zm-.3-.3zm-4.8-3.6s0-.1 0 0c0-.1 0 0 0 0zm-2.9-2zm-.2 0zm.3 0zm0-.9c.1 0 .1 0 0 0zm2.7 2.3zm-1.5-.5c-.1 0-.1.1 0 0-.1.1-.1 0 0 0zm-.1.1s-.1 0 0 0c-.1 0 0 0 0 0zm-.1 0c0 .1 0 .1 0 0 0 .1 0 .1 0 0zm2.8-4.3zm-.2 0zm1.2.6zm-.1 0s0 .1 0 0c0 .1 0 0 0 0zm0 .1zm1.4.4zm0-.1zm0 0zm.1-.1zm.1-.1zm0 0zm5.6-3.1c-.1 0-.1 0 0 0-.1 0-.1 0 0 0zm-.3-.2zm3.2 0zm7.5 1.5c.1 0 .1 0 0 0 .1 0 .1 0 0 0zm-2.6 3.4h-.9c-.1 0-.2 0-.3.1-.1 0-.2.1-.3.1l-1.8-.3c0-.1-.1-.1-.1-.2l-.2-.2c-.1 0-.2-.1-.3-.1s-.2-.1-.4-.1l-.5-.8c.1 0 .1 0 .1-.1 0 0 .1 0 .1-.1l.1-.1.1-.1v-.3s0-.1-.1-.1l1.2-.5h.7c.1 0 .2 0 .3-.1.1 0 .2-.1.2-.1l1.7.2c0 .1.1.1.1.2.1 0 .1.1.2.1s.2.1.3.1.2.1.3.1h.2-.2l.6.8s-.1 0-.1.1c0 0-.1 0-.1.1l-.1.1s0 .1-.1.1v.2s0 .1.1.1l.1.1-.9.7zm.2 3.4s0 .1 0 0c0 .1 0 0 0 0zm-1.2 3.8zm-.5.2c-.1 0-.1.1-.2.1 0 0-.1.1-.1.2s-.1.1-.1.2v.4c0 .1 0 .1.1.2 0 .1.1.1.1.2 0 0 0 .1.1.1 0 0 0-.1-.1-.1l-1.7 1.2h-.4c-.2 0-.4-.1-.5-.1-.2 0-.3 0-.5.1-.2 0-.3.1-.5.2-.1.1-.3.1-.4.2l-2.5-.6c0-.1 0-.2-.1-.3-.1-.1-.1-.2-.2-.3-.1-.1-.2-.2-.4-.2-.1-.1-.3-.1-.5-.2h-.4l-.4-1.6c.1 0 .1-.1.2-.1s.1-.1.2-.1.1-.1.2-.1c0-.1.1-.1.1-.2s.1-.1.1-.2v-.4c0-.1 0-.1-.1-.2l1.7-.9h-.1 1c.1 0 .3-.1.4-.1s.2-.1.3-.2l2.2.4v-.1.1c0 .1.1.2.1.3.1.1.1.2.3.2.1.1.2.1.4.2.1.1.3.1.4.1h.4l.8 1.5c.3 0 .2.1.1.1zm.1 1.5c-.1-.1-.1-.1 0 0-.1-.1-.1-.1 0 0zm-.1-.1c-.1 0-.1-.1 0 0-.1-.1-.1 0 0 0zm-1.7 3.3s.1 0 0 0c.1 0 0 0 0 0zm-.4.2zm-2.3-1.6s0 .1 0 0c0 .1 0 0 0 0zm0-.1zm.2-.3l-.1.1.1-.1c.1 0 .1 0 0 0 .1 0 .1 0 0 0zm-4.7-1.8zm-.1.1zm1.4-7.2zm.1-.2c0-.1 0-.1 0 0 .1-.1.1-.1 0 0 .1-.1.1-.1 0 0 .1-.1.1-.1 0 0 .1-.1.1-.1 0 0 0-.1 0-.1 0 0zm.1-.2zm-.2.3zm0 .1zm.3-.4l-1.8-.3c0-.1 0-.1-.1-.2 0-.1-.1-.1-.2-.2s-.2-.1-.3-.1c-.1 0-.2-.1-.3-.1l-.2-.8c.1 0 .1 0 .2-.1h.3V390.1l1.3-.6h1.3s.1 0 .1-.1l1.6.2v.3h.9l.4.8s-.1 0-.1.1c0 0-.1 0-.1.1l-.1.1-.1.1v.6l-1.3.6h-.8c-.1 0-.2 0-.4.1-.1 0-.2 0-.3.1zm-3.4-.9zm.1 0zm.2 0zm10.2.5s0-.1 0 0c0-.1 0 0 0 0zm.1-.3zm0 0zm0-.1zm-1.7-.1c-.1 0-.1 0 0 0-.1 0-.1 0 0 0-.1 0-.1 0 0 0-.1 0-.1 0 0 0zm-2.2.3c-.1-.1-.1-.1 0 0-.1-.1-.1-.1 0 0zm-.1-.1zm-.1 0c0-.1 0-.1 0 0 0-.1 0-.1 0 0zm0-.1c-.1 0-.1 0 0 0-.1 0-.1 0 0 0zm.4.3zm-.2-.1zm.5-1.9c-.1 0-.1 0 0 0-.1 0-.1 0 0 0zm-.1 0h-.2.2zm-.5.1zm-.1 0h-.1c0-.1.1 0 .1 0zm-.6-.2h.2c-.1.1-.1.1-.2 0 .1.1 0 .1 0 0 0 .1 0 .1 0 0zm-.5-.6zm.1-.1zm-.1.1zm0 .3zm0 0zm.2.2zm-.1 0zm0-.1zm0-.5s0 .1 0 0c0 .1 0 .1 0 0 0 .1 0 .1 0 0 0 .1 0 .1 0 0 0 .1 0 .1 0 0 0 .1 0 0 0 0zm-.1.2zm0 0zm-2.9-.9c-.1 0-.1 0 0 0-.1 0-.1 0 0 0zm.2-.1c-.1 0-.1.1 0 0-.1.1-.1 0 0 0zm.2 0c-.1 0-.1 0 0 0-.1 0 0 0 0 0zm.3 1.1s-.1 0 0 0c-.1 0-.1 0 0 0h-.1.1zm-.2 0c-.1 0-.1 0 0 0h-.1.1zm-.2 0c-.1 0-.1 0 0 0zm-.5-.1h-.1.1zm.1 0zm0 0s-.1 0 0 0zm-.2 0zm-1.2.8zm0 0s0 .1 0 0c0 .1 0 .1 0 0zm0 .1s-.1 0 0 0c-.1 0-.1 0 0 0-.1 0-.1 0 0 0-.1 0-.1 0 0 0-.1 0-.1 0 0 0-.1 0-.1 0 0 0-.1 0-.1 0 0 0zm-.1 0c0 .1 0 .1 0 0 0 .1 0 .1 0 0 0 .1 0 .1 0 0 0 .1 0 .1 0 0 0 .1 0 .1 0 0 0 .1 0 .1 0 0 0 .1 0 .1 0 0 0 .1 0 .1 0 0 0 .1-.1.1 0 0 0 .1 0 .1 0 0zm-.2.2s-.1.1 0 0c-.1.1 0 0 0 0zm-.1.1zm.1-.1zm0 0c.1 0 .1 0 0 0 .1 0 .1 0 0 0 .1 0 .1 0 0 0zm.1 0c0-.1 0-.1 0 0 0-.1 0-.1 0 0 0-.1 0-.1 0 0 0-.1 0-.1 0 0zm2.4-1h.1c0-.1 0-.1-.1 0 0-.1 0-.1 0 0zm.2-.1zm.1 0s.1 0 0 0c.1 0 0 0 0 0zm.1-.1s.1 0 .1-.1c0 .1 0 .1-.1.1zm2.1.6zm.1 0zm.3.1h.2-.2zm.2 0zm0 0s.1 0 0 0c.1 0 0 0 0 0zm.1 1.6zm-.1-.1zm0 0zm4.2 5.8h-.1.1zm-1.8-.9s0-.1 0 0c0-.1 0 0 0 0zm0-.1zm.2-.3zm-.1 0zm.1-.1zm-3.7-1.2zm-.1 0zm-.1 0zm-.2-1.1c.1 0 .1 0 0 0 .1 0 .1 0 0 0zm0 0h-.1c.1.1.1.1.1 0zm-.1.1h-.1.1zm.1 1zm-.4-1h-.1.1zm.3 1.1zm-.2 1.4c.1 0 .1 0 0 0zm0 0zm-.1-.1zm-.1 0zm-.1-.1zm-.1 0c0-.1 0-.1 0 0 0-.1 0-.1 0 0zm-2.1 4zm.5 0zm8.3-4.4s-.1 0 0 0h-1.2c-.1 0-.3.1-.4.1-.1 0-.2.1-.3.2l-2-.4c0-.1 0-.2-.1-.2-.1-.1-.1-.2-.2-.2-.1-.1-.2-.1-.3-.2-.1 0-.3-.1-.4-.1h-.4l-.5-1.1c.1 0 .1 0 .2-.1.1 0 .1-.1.2-.1l.1-.1.1-.1v-.3s0-.1-.1-.1l1.4-.7h-.1.9c.1 0 .2 0 .3-.1.1 0 .2-.1.3-.1l2.2.1v-.1.1c0 .1.1.1.1.2.1.1.2.2.3.2.1.1.2.1.3.1s.3.1.4.1h.5-.1l.5 1.1c-.1 0-.1 0-.2.1l-.1.1-.1.1s0 .1-.1.1v.2s0 .1.1.1l.1.1-1.4 1zm1.2-2.8h-.1.1zm-2.9-5zm-.2.1zm2.9.9zm0 0zm.1-.2c0 .2 0 .2 0 0 0 .2 0 .2 0 0zm-3.4.2zm-.1-.2zm0 0s-.1 0 0 0c-.1 0 0 0 0 0zm-8 2.1c.1 0 .1 0 .2-.1-.1 0-.1 0-.2.1-.1 0-.1 0-.2.1 0-.1.1-.1.2-.1zm-.5.9zm-2 1.9zm-.3-.2s-.1 0 0 0c-.1-.1-.1-.1 0 0-.1-.1-.1-.1 0 0zm.2.1zm-.1-.1zm0 0c-.1 0-.1 0 0 0-.1 0-.1 0 0 0-.1 0-.1 0 0 0-.1 0-.1 0 0 0-.1 0-.1 0 0 0zm.1.2c0-.1 0-.1 0 0 0-.1 0 0 0 0zm-.3-.3zm1.9-.4zm-.1-.1s-.1 0 0 0c-.1 0 0 0 0 0zm-.1 0zm-.1-.1zm0 0zm-1.7 1.8c.1 0 .1-.1.2-.1s.1-.1.2-.1l.1-.1.1-.1v-.3l1.7-.7h-.1.9c.1 0 .3 0 .4-.1.1 0 .2-.1.3-.1l1.9.3c0 .1 0 .1.1.2 0 .1.1.1.2.2 0-.1.1 0 .2 0s.2.1.4.1h.1-.1l.4 1.1c-.1 0-.1.1-.2.1s-.1.1-.2.1-.1.1-.1.1l-.1.1s0 .1-.1.1v.2s0 .1.1.1l-1.7.9H-275.2c-.1 0-.3.1-.4.1-.1.1-.3.1-.4.2l-1.7-.2v-.3c0-.1-.1-.2-.2-.2-.1-.1-.2-.1-.3-.2s-.2-.1-.4-.1h-.4v-1.2c.1 0 .2 0 .3-.1zm2.8 2.8zm-.2.3zm.1-.2zm.1-.2c.1 0 .1 0 0 0zm.1-.1zm-3.4-1.3zm-.2 0zm-.1-1.1zm-.1 0h-.1.1zm-.1 0h-.1.1zm5.3 4h-.1.1zm-.2 0h-.1.1zm7.1 5.2zm-.3 0h-.2.2zm.6 2c-.1 0-.1 0 0 0-.1 0-.1 0 0 0zm.2-2.2zm2.1-3s.1 0 .1.1l-.1-.1zm-.1 0zm-.1-.1s-.1 0 0 0c-.1 0 0 0 0 0zm1.8-5.3h.1-.1zm-.1-.1zm-.1 0zm-.1-.1zm.3-1.3zm1-2.6zm3.7-.1c0 .1 0 .1 0 0 0 .1 0 .1 0 0zm0 0zm0-.1zm-1.8 0zm0 0zm1.9.5zm2.8-1zm-.1-.1zm-.2-.1zm0-.8zm.5 0zm-.4 0zm-.5-.6c.1 0 .1 0 0 0 .1 0 .1 0 0 0zm0 0zm.4-.2zm.1-.1s-.1 0 0 0zm0 0zm0 0c0-.1 0 0 0 0zm0-.1zm-.1.2zm-.1 0zm-1.9-.2c.1 0 .1.1.2.1s.2.1.3.1c.1 0 .2.1.4.1h.2-.2l1 .8s-.1 0-.1.1c0 0-.1 0-.1.1 0 0 0 .1-.1.1v.2s0 .1.1.1l.1.1.1.1-1 .6h-.7c-.1 0-.2 0-.3.1-.1 0-.2.1-.2.1l-1.9-.3c0-.1-.1-.1-.2-.2l-.2-.2c-.1 0-.2-.1-.3-.1s-.2-.1-.4-.1l-.7-.8h-.1.1s.1 0 .1-.1c0 0 .1 0 .1-.1 0 0 .1 0 .1-.1V388.8h-.1l1-.5h-.1.8c.1 0 .2 0 .3-.1.1 0 .1-.1.2-.1l1.7.2c-.2 0-.1 0-.1.1zm-1.7-.5zm1.6 0s0 .1 0 0c0 .1 0 0 0 0zm0 .1zm-.1 0zm-3.1-1.4zm0 0zm.1-.1s-.1 0 0 0zm0 0zm0 0zm-.1.1c-.1 0-.1 0 0 0-.1 0-.1 0 0 0zm-.1 0zm-1.8-.3zm0-.1zm0-.1zm-1.4-.1c0 .1 0 .1 0 0 0 .1 0 .1 0 0zm0 .1zm-1.3.2s.1 0 0 0c.1 0 .1 0 0 0h.7c.1 0 .2 0 .3-.1.1 0 .1-.1.2-.1l1.5.2.1.1c.1 0 .1.1.2.1s.2.1.3.1c.1 0 .2 0 .3.1h.2-.2l.7.7h-.1s-.1 0-.1.1c0 0-.1 0-.1.1v.3s0 .1.1.1c0 0 0 .1.1.1l-1 .5h-.6c-.1 0-.2 0-.3.1-.4-.2-.4-.2-.5-.2h-.1.1l-1.6-.2-.1-.1s-.1-.1-.2-.1-.2-.1-.3-.1-.2-.1-.3-.1l-.5-.7h.1s.1 0 .1-.1c0 0 .1 0 .1-.1l.1-.1V386.6l-.1-.1.9-.2zm-.1-.1zm-.2 0zm-.1-.1zm-.1 0zm-.2-.2zm.1 0zm0 .1zm-.4.8zm-1.9-.2zm-.1.2c0-.2 0-.2 0 0 0-.2 0-.2 0 0zm0 0zm0 0zm-1.4-.2zm0 0zm-1.3.2c.1 0 .1 0 0 0h.7c.1 0 .2 0 .3-.1.1 0 .2-.1.2-.1l1.5.2s0 .1.1.1c0 0 .1.1.2.1s.1.1.2.1.2 0 .3.1h.2-.2l.4.7h-.1s-.1 0-.1.1c0 0-.1 0-.1.1 0 0 0 .1-.1.1v.2l-1.2.5h-.7c-.1 0-.2 0-.3.1-.1 0-.2.1-.2.1l-1.6-.2c0-.1 0-.1-.1-.1 0 0-.1-.1-.2-.1s-.1-.1-.2-.1c0-.1-.1-.1-.2-.1l-.3-.7h.1s.1 0 .1-.1c0 0 .1 0 .1-.1 0 0 .1 0 .1-.1v-.4l1.1-.3zm-.6-.4zm0 0s0 .1 0 0c0 .1 0 0 0 0zm0 .1zm-2.6.7zm-.1.1zm0 0zm0 0zm-1.3-.2zm.1-.2c0 .1 0 .1 0 0 0 .1 0 .1 0 0zm0 .1zm-.1.1zm-1.9 0zm.1.1zm.1.1c.1 0 .1 0 0 0 .1 0 .1 0 0 0zm-.2-.1c0-.1 0-.1 0 0 0-.1 0-.1 0 0zm0-.1s-.1 0 0 0c-.1-.1-.1-.1 0 0-.1-.1-.1-.1 0 0-.1-.1-.1-.1 0 0-.1 0 0 0 0 0zm-.1-.1zm-1.3 1.3c.1 0 .1 0 .1-.1 0 0 .1 0 .1-.1l.1-.1.1-.1v-.3l1.3-.5h-.1.7c.1 0 .2 0 .3-.1.1 0 .2-.1.3-.1l1.5.2v.1l.1.1c.1 0 .1.1.2.1s.2 0 .3.1h.2-.2l.7 1c-.1 0-.1 0-.2.1 0 0-.1 0-.1.1 0 0-.1 0-.1.1l-.1.1s0 .1-.1.1v.3l-1.4.5h-.8c-.1 0-.2 0-.3.1-.1 0-.2.1-.3.1l-1.6-.3v-.2l-.1-.1c-.1 0-.1-.1-.2-.1s-.2-.1-.3-.1l-.1-.7c-.1-.2-.1-.2 0-.2zm-1.7-.2zm0 0zm0 0zm0 .1zm0 0s.1 0 0 0c.1 0 .1 0 0 0 .1 0 0 0 0 0zm.1 0s0 .1 0 0c0 .1 0 .1 0 0 0 .1 0 .1 0 0zm0 .1c.1 0 .1 0 0 0 .1 0 .1 0 0 0zm.1 0c.1 0 .1 0 0 0zm.1 0c.1.1.1.1 0 0zm.1.1zm.2 0s-.1 0 0 0c-.1 0-.1 0 0 0-.1 0-.1 0 0 0-.1 0-.1 0 0 0-.1 0-.1 0 0 0h-.1.1zm0 0zm0 0zm.1 0h.2-.2zm-.5 1.6zm.1.1c.1 0 .1 0 0 0 .1 0 .1 0 0 0zm0-.1zm-.1 0zm-.1-.1zm0 0zm-.1-.1s.1 0 0 0c.1 0 0 0 0 0zm-1.7 1.6c.1 0 .1-.1.2-.1s.1-.1.2-.1l.1-.1.1-.1s0-.1.1-.1v-.2l1.6-.6h-.1.9c.1 0 .2 0 .3-.1.1 0 .2-.1.3-.1l1.6.3v.2c0 .1.1.1.1.2.1 0 .1.1.2.1s.2.1.3.1l.2.9c-.1 0-.1 0-.2.1-.1 0-.1.1-.2.1l-.1.1-.1.1-.1.1v.2l-1.6.7h-.8c-.1 0-.3.1-.4.1s-.2.1-.3.1l-1.8-.3v-.2c0-.1-.1-.1-.1-.2.1 0 0 0-.1-.1-.1 0-.2-.1-.3-.1v-.9c-.1-.1 0-.1 0-.1zm-.4.1h-.1.1zm-1.5-.3zm0 0s.1 0 0 0c.1 0 0 0 0 0zm.1.1zm0 0zm.1.1zm0 0c.1 0 .1 0 0 0 .1 0 .1 0 0 0 .1 0 .1 0 0 0 .1 0 .1 0 0 0 .1 0 0 0 0 0zm.2 0s-.1 0 0 0c-.1 0-.1 0 0 0-.1 0 0 0 0 0 0 .1 0 .1 0 0 0 .1 0 .1 0 0zm.1.1c-.1 0-.1 0 0 0-.1 0-.1 0 0 0-.1 0 0 0 0 0zm.1 0s-.1 0 0 0h-.1.1zm.1 0zm0 0zm0 0c.1 0 0 0 0 0zm-.9 1.9zm0 0zm0 0s0 .1 0 0c0 .1 0 .1 0 0zm0 .1s.1 0 0 0c.1 0 .1 0 0 0 .1 0 .1 0 0 0zm.1.1zm.1 0zm0 .1s.1 0 0 0c.1 0 .1 0 0 0 .1 0 .1 0 0 0 .1 0 .1 0 0 0zm.2 0c-.1 0-.1 0 0 0-.1 0-.1 0 0 0-.1 0 0 0 0 0zm.1.1c-.1 0-.1 0 0 0-.1-.1-.1-.1 0 0-.1-.1 0 0 0 0zm.3 0s-.1 0 0 0c-.1 0-.1 0 0 0-.1 0-.1 0 0 0h-.1.1c-.1 0 0 0 0 0zm.2 0c-.1 0-.1 0 0 0-.1 0-.1 0 0 0-.1 0-.1 0 0 0zm.2 0c-.1 0-.1 0 0 0h-.1.1zm.2 0c-.1 0-.1 0 0 0-.1 0-.1 0 0 0h-.1.1zm.1 0zm.2 0h.1c0-.1 0-.1-.1 0 0-.1 0 0 0 0zm.2-.1zm.2-.1s.1 0 .1-.1c0 .1-.1.1-.1.1zm2 .6c0-.1 0-.1 0 0 0-.1 0-.1 0 0zm-.1-.1zm.1.1zm0 0zm.1.1zm-.1-.1zm.2.2zm.1.1zm0-.1c-.1 0-.1 0 0 0-.1 0-.1 0 0 0zm0 .1zm.1 0s-.1 0 0 0zm0 0s.1 0 0 0c.1 0 .1 0 0 0 .1 0 .1 0 0 0zm.1.1s.1 0 0 0c.1 0 .1 0 0 0 .1 0 .1 0 0 0zm.2 0c-.1 0-.1 0 0 0h-.1.1zm0 0c.1 0 .1 0 0 0 .1 0 .1 0 0 0 .1 0 .1 0 0 0zm.1 0zm.1 0s-.1 0 0 0h.1-.1zm-.8 2.3zm0 .1zm0 0c0 .1.1.1 0 0 .1.1.1.1 0 0 .1.1.1.1 0 0 0 .1 0 .1 0 0 0 .1 0 0 0 0zm.1.1s0 .1 0 0c0 .1 0 .1 0 0zm.1.1c0 .1 0 .1 0 0zm0 .1s.1 0 0 0c.1 0 .1 0 0 0zm.1 0s.1.1 0 0c.1.1.1.1 0 0 .1.1.1.1 0 0zm.2.1c-.1 0-.1 0 0 0zm.1.1c0-.1 0-.1 0 0 0-.1-.1-.1 0 0 0-.1 0 0 0 0zm.3 0c-.1 0-.1 0 0 0-.1 0-.1 0 0 0-.1 0-.1 0 0 0-.1 0-.1 0 0 0-.1 0-.1 0 0 0-.1 0-.1 0 0 0-.1 0 0 0 0 0zm.1 0c-.1 0-.1 0 0 0-.1 0-.1 0 0 0zm.1 0s-.1 0 0 0c0 .1 0 .1 0 0zm.1.1c.1 0 .1 0 0 0zm.1 0c.1 0 .1 0 0 0zm.1-.1c0 .1 0 .1 0 0 0 0 .1 0 0 0 .1 0 .1 0 0 0 .1 0 .1 0 0 0zm.1 0s.1 0 0 0c.1 0 .1 0 0 0 .1 0 0 0 0 0zm.1 0c.1 0 0 0 0 0zm.2 0c-.1 0-.1 0 0 0zm.2-.1zm.2 0zm.2-.1zm2.3.4zm0 .1zm0 .1zm0 0c.1.1.1.1 0 0 .1.1.1.1 0 0 .1.1.1.1 0 0zm.1.2s.1 0 0 0c.1 0 .1 0 0 0zm.1 0s0 .1 0 0c0 .1 0 .1 0 0 0 .1 0 0 0 0zm0 .1c.1 0 .1 0 0 0 .1 0 .1 0 0 0 .1 0 .1 0 0 0zm.1 0c0 .1 0 .1 0 0 0 .1 0 .1 0 0 0 .1 0 .1 0 0 0 .1 0 0 0 0zm.3.2zm.1 0s-.1 0 0 0c0 0 0 .1 0 0 0 .1 0 .1 0 0 0 .1 0 .1 0 0zm.1.1zm.2 0c-.1 0-.1 0 0 0-.1 0-.1 0 0 0h-.1.1zm0 0s.1.1 0 0c.1.1.1.1 0 0 .1.1 0 0 0 0zm.2.1c-.1 0-.1 0 0 0-.1 0-.1 0 0 0-.1 0-.1 0 0 0h.2-.2zm0 3.5zm-.3-.2c0-.1 0-.1 0 0 0-.1 0-.1 0 0zm-.1-.1zm.6.4s-.1 0-.1-.1c0 .1.1.1.1.1zm-.3-.2zm-.1 0c0-.1 0-.1 0 0 0-.1 0-.1 0 0zm-.3-.6zm0 .1c0 .1.1.2.1.2 0-.1-.1-.1-.1-.2zm-2.3 3.8c.1 0 .2-.1.3-.2.1-.1.2-.1.2-.2l.2-.2c.1-.1.1-.2.2-.2 0-.1.1-.2.1-.2 0-.1 0-.2.1-.2v-.2c0-.1 0-.1-.1-.2l2.1-1.3h.4c.2 0 .4.1.5.1.2 0 .4 0 .5-.1.2 0 .3-.1.5-.2s.3-.2.4-.3l2.5.6v-.1.1c0 .1.1.3.1.4l.3.3c.1.1.3.2.4.3.2.1.3.1.5.2h.4l.8 2.1c-.1 0-.2.1-.2.2l-.2.2-.2.2c0 .1-.1.2-.1.3 0 .1 0 .2-.1.3v.3c0 .1 0 .2.1.3 0 .1.1.2.1.3l.1.1-.1-.1-2.2 1.8h-.4c-.2-.1-.4-.1-.7-.1-.2 0-.4 0-.6.1s-.4.1-.6.2-.3.2-.5.4l-3-.8c0-.2 0-.4-.1-.5-.1-.2-.1-.3-.2-.5-.1-.1-.2-.3-.4-.4-.2-.1-.3-.2-.5-.2h-.4l-.2-2.6s-.1 0 0 0c-.1 0 0 0 0 0zm-1.1.2h-.2.2zm-1.1-2.2zm-.2.1zm-.1.1l-.1.1c.1 0 .1-.1.1-.1zm-.1.1zm0 .2zm-.1.1zm0 .1zm-1.8-1.6c0 .1 0 .1 0 0 0 .1 0 .1 0 0 0 .1 0 0 0 0zm0-.1s0 .1 0 0c0 .1 0 .1 0 0 0 .1 0 0 0 0zm0 .2c0 .1 0 .1 0 0 0 .1 0 .1 0 0 0 .1 0 .1 0 0 0 .1 0 .1 0 0 0 .1 0 0 0 0zm-.7 1l2.4.7v.4c0 .1.1.3.2.4l.3.3c.1.1.3.2.5.2h.6-.2l.2 2.3c-.1.1-.2.1-.3.2s-.2.1-.3.2c-.1.1-.2.2-.2.3-.1.1-.1.2-.2.3-.1.1-.1.2-.1.3 0 .1-.1.2-.1.3v.7-.1l-.9.6-1.9 1.3h-.4c-.2-.1-.4-.1-.7-.1-.3 0-.5 0-.7.1-.2.1-.5.1-.7.3-.2.1-.4.3-.6.4l-2.8-.9v-1.1c-.1-.2-.2-.3-.3-.4-.1-.1-.3-.2-.5-.3h-.4l.4-2.7c-.1 0-.1 0-.2.1.1 0 .1 0 .2-.1s.2-.1.3-.2.2-.1.3-.2c.1-.1.2-.1.3-.2.1-.1.2-.1.3-.2s.1-.2.2-.3c.1-.1.1-.2.1-.3 0-.1.1-.2.1-.3v-.2l2.7-1.5s-.1 0-.1-.1c0 0 .1 0 .1.1h.4c.2 0 .4.1.5.1s.4 0 .6-.1c.2 0 .4-.1.6-.2-.1.2.1 0 .3-.1zm-9.2 2.3zm.1 0zm.1-.2s0-.1 0 0c0-.1 0 0 0 0zm.3-.3l-.1.1s0-.1.1-.1zm-2.7-.1zm-.1 0zm-.2-2.2zm10.4-1.5zm-.2 0zm.4-.1zm.3 0zm-.8.1s-.1 0 0 0c-.1 0 0 0 0 0zm.7-1.6h.1c0-.1 0 0-.1 0zm0 0h-.1.1zm-.5 0h-.2.2zm-3.8 5.2zm0-.1zm-.1-.1zm-.1-.1zm-.2-.2zm.1.2s.1 0 0 0c.1 0 .1 0 0 0 .1 0 0 0 0 0zm2.4-1.5zm.3.5c0-.2-.1-.2 0 0-.1-.2 0-.2 0 0zm-.1-.2c0-.1 0-.1 0 0 0-.1 0-.1 0 0zm-.1-.1c0-.1 0-.1 0 0 0-.1 0-.1 0 0zm0-.1c0-.1 0-.1 0 0 0-.1 0-.1 0 0zm-2.2 1.7c0 .1.1.1 0 0 .1.1 0 .1 0 0zm2.5-1.3s.1 0 .1.1c0-.1-.1-.1-.1-.1zm0 0s-.1 0 0 0c-.1 0 0 0 0 0zm2.5-4.2zm.1 0c.1-.1 0-.1 0 0zm.1-.1c.1 0 .1 0 0 0zm.1-.1c0 .1 0 .1 0 0 0 .1 0 0 0 0 .1 0 .1 0 0 0zm.1 0s0-.1 0 0c.1-.1 0-.1 0 0zm.4-.4c-.1 0-.1 0 0 0-.1 0-.1 0 0 0-.1 0-.1 0 0 0-.1 0 0 0 0 0 0-.1 0-.1 0 0zm0-.2c0-.1 0-.1 0 0 0-.1 0-.1 0 0zm.1-.2c0 .1 0 .1 0 0 0 .1 0 .1 0 0 0 .1 0 .1 0 0 0 .1 0 .1 0 0 0 .1 0 .1 0 0zm0-.1c0 .1 0 .1 0 0 0 .1 0 .1 0 0 0 .1 0 .1 0 0 0 .1 0 .1 0 0 0 .1 0 .1 0 0 0 .1 0 .1 0 0zm-.1.3c0 .1 0 .1 0 0 0 .1 0 .1 0 0 0 .1 0 .1 0 0 0 .1 0 .1 0 0zm-.1.2s0 .1 0 0c0 .1 0 .1 0 0 0 .1 0 .1 0 0 0 .1 0 .1 0 0 0 .1 0 .1 0 0 0 .1 0 .1 0 0 0 .1-.1.1 0 0-.1.1-.1.1 0 0l-.1.1.1-.1c0 .1 0 .1 0 0zm-.1.2c-.1 0-.1.1 0 0-.1.1-.1.1 0 0-.1.1-.1.1 0 0-.1.1-.1.1 0 0-.1.1-.1.1 0 0zm-.7.5s-.1 0-.1.1c0-.1.1-.1.1-.1zm-2.1-1.3zm0 .1zm-.1.1zm-.1.1zm0 .1zm-1.4-1.2zm0-.1c0 .1 0 .1 0 0zm0-.1c0 .1 0 .1 0 0 0 .1 0 .1 0 0 0 .1 0 0 0 0zm0 .2s0 .1 0 0c0 .1 0 .1 0 0 0 .1 0 .1 0 0 0 .1 0 .1 0 0 0 .1 0 .1 0 0 0 .1 0 .1 0 0 0 .1 0 .1 0 0zm-3.2.8s-.1 0 0 0c-.1 0 0 0 0 0zm0 .1zm.1.1c.1 0 .1 0 0 0 .1 0 .1 0 0 0zm0 0s0-.1 0 0c0-.1 0 0 0 0zm-3.4 2.4c.1 0 .2-.1.3-.1.1-.1.2-.1.3-.2 0-.1.1-.1.2-.2l.2-.2c.1-.1.1-.1.1-.2s.1-.1.1-.2v-.2l2.4-1.1h-.1.2c.1 0 .3.1.5.1h.5c.2 0 .3-.1.5-.1.2-.1.3-.1.5-.2 0 0 .1 0 .1-.1 0 0-.1 0-.1.1l2.1.5v.3c0 .1.1.2.1.3.1.1.2.2.3.2.1.1.2.1.4.2h.6-.2l-.1 1.7c-.1 0-.2.1-.3.1s-.2.1-.3.2c-.1.1-.2.1-.2.2l-.2.2-.1.1s0 .1-.1.1c0 0 0 .1-.1.1v.1c0 .1 0 .1-.1.2v.2l-2.7 1.4h-.4c-.2 0-.4-.1-.5-.1-.2 0-.4 0-.6.1-.1 0-.3 0-.5.1l-.6.3s-.1 0-.1.1h-.2l.1-.1s.1 0 .1-.1c0 0 .1 0 .1-.1l-2.3-.6h-.1c.1-.1.1-.3.1-.4 0-.1 0-.2-.1-.4 0-.1-.1-.2-.2-.3s-.2-.1-.4-.2h-.4l.6-1.8c.4.1.5.1.6 0zm-1.4.3h-.2.2zm-.1 0h-.2.2zm-.9-.4c-.1 0-.1 0 0 0-.1 0-.1 0 0 0 0 .1 0 .1 0 0zm0 .1zm.1.1c-.1 0-.1 0 0 0zm.1.1c-.1-.1-.1-.1 0 0 0-.1 0 0 0 0zm.1 0c-.1 0-.1 0 0 0zm.2.1s-.1 0 0 0c-.1 0-.1 0 0 0h-.1.1zm0 0c.1 0 .1 0 0 0 .1 0 .1 0 0 0 .1 0 .1 0 0 0zm.1 0zm-.2 1.8zm-2.1 2.3c.1.1.1.1 0 0 .1.1.1.1 0 0 0 .1 0 0 0 0zm.1.1c.1.1 0 .1 0 0 0 .1 0 .1 0 0zm.1.1c.1 0 .1 0 0 0zm.2.2c-.1 0-.1 0 0 0-.1 0-.1 0 0 0-.1 0-.1 0 0 0-.1 0-.1 0 0 0-.1 0-.1 0 0 0zm.2 0c-.1 0-.1 0 0 0-.1 0-.1 0 0 0s.1 0 0 0zm.1 0s.1 0 0 0c.1 0 .1 0 0 0 .1 0 0 0 0 0zm.2 0c-.1 0-.1 0 0 0zm.1.1c0-.1 0-.1 0 0 0-.1 0-.1 0 0 0-.1.1 0 0 0 .1 0 .1 0 0 0 .1 0 .1 0 0 0zm.2 0s-.1 0 0 0c-.1 0-.1 0 0 0 0 0 0-.1 0 0 0-.1 0-.1 0 0 0-.1 0-.1 0 0zm.1-.1s.1 0 0 0c.1 0 .1 0 0 0 .1 0 .1 0 0 0zm.2 0c-.1 0-.1 0 0 0h.1-.1zm.1 0zm.1 0c.1 0 .1 0 0 0zm.2 0h.2-.2zm.2 0zm.1-.2c.1 0 .1 0 0 0 .1 0 .1 0 0 0zm.2 0c.1 0 .1 0 0 0zm.3-.2zm2.6 1.5c.1 0 .1 0 0 0 .1 0 .1 0 0 0 .1 0 .1 0 0 0 .1 0 .1 0 0 0zm.1.1zm.1.1zm.1.1zm0 0c.1.1.1.1 0 0 .1.1.1.1 0 0 .1.1.1.1 0 0 .1 0 0 0 0 0zm.1.1s.1 0 0 0c.1 0 .1 0 0 0 .1 0 .1 0 0 0 .1 0 .1 0 0 0zm.1 0s.1.1 0 0c.1.1.1.1 0 0 .1.1.1.1 0 0 .1.1.1.1 0 0zm.3.1s-.1 0 0 0c-.1 0-.1 0 0 0-.1 0-.1 0 0 0h-.1.1zm0 0c.1.1.1 0 0 0zm.1.1zm0 0c.1 0 .1 0 0 0h.3-.3c.1 0 .1 0 0 0 .1 0 .1 0 0 0 .1 0 .1 0 0 0 .1 0 .1 0 0 0 .1 0 .1 0 0 0zm0 2.4zm-1.9 3.6zm-.3-.3zm0 0s0 .1 0 0c0 .1 0 .1 0 0zm.1.1zm0 0zm0 .1s.1 0 0 0c.1 0 .1 0 0 0 .1 0 .1 0 0 0zm.1 0c0 .1 0 .1 0 0 0 .1 0 .1 0 0zm.1.1zm0 0c.1 0 .1.1 0 0 .1.1.1.1 0 0 .1 0 0 0 0 0zm.1.1s.1 0 0 0c.1 0 .1 0 0 0 .1 0 0 0 0 0zm.1 0s.1.2 0 0c.1.2.1.2 0 0 .1.2.1.2 0 0 .1.2.1.2 0 0zm.3.2s-.1 0 0 0c-.1 0-.1 0 0 0-.1 0-.1 0 0 0-.1 0-.1 0 0 0-.1 0 0 0 0 0zm.1 0s-.1 0 0 0 .1 0 0 0zm.2 0h-.1.1c.1 0 .1 0 0 0zm.2 0s-.1 0 0 0c-.1 0-.1 0 0 0-.1 0 0 0 0 0zm.1 0s.1 0 0 0c.1 0 .1 0 0 0 .1 0 .1 0 0 0zm.2 0s-.1 0 0 0c0 0 .1 0 0 0 .1 0 .1 0 0 0 .1 0 .1 0 0 0zm.2 0s-.1 0 0 0zm.1 0c.1 0 0 0 0 0zm.2 0h.2-.2c.1 0 0 0 0 0zm.2 0c.1 0 .1 0 .2-.1-.1-.1-.2-.1-.2.1zm.2-.2s.1 0 .1-.1c0 .1-.1.1-.1.1zm.2-.1s.1 0 .1-.1c0 .1-.1.1-.1.1zm.2-.1s.1 0 .1-.1l-.1.1zm.3-.2s.1 0 .1-.1c0 .1-.1.1-.1.1zm-.2.1s.1 0 .1-.1c0 .1 0 .1-.1.1zm3.6 2zm.1.1s0 .1 0 0c0 .1 0 .1 0 0 0 .1 0 0 0 0zm0 .1c.1.1.1.1 0 0 .1.1.1.1 0 0 .1.1.1.1 0 0 .1.1.1.1 0 0zm.2.3zm0 0zm.1 0c.1 0 0 0 0 0zm.2.1c-.1 0-.1 0 0 0-.1 0-.1 0 0 0-.1 0-.1 0 0 0zm.1.1s-.1 0 0 0c-.1-.1-.1-.1 0 0-.1 0 0 0 0 0zm.3.1c-.1 0-.1 0 0 0-.1 0-.1 0 0 0-.1 0-.1 0 0 0h-.1c-.1-.1 0 0 .1 0-.1 0 0 0 0 0zm0 0c.1 0 .1 0 0 0 .1 0 .1 0 0 0 .1 0 .1 0 0 0zm.2 0s-.1 0 0 0c0 0 0 .1 0 0 0 .1 0 .1 0 0 0 .1 0 0 0 0zm.1.1c.1 0 0 0 0 0zm.1 0s.1 0 0 0c.1 0 .1 0 0 0 .1 0 0 0 0 0zm.1 0s.1 0 0 0c.1 0 .1 0 0 0 .1 0 .1 0 0 0zm.2 0c-.1 0-.1 0 0 0zm.1 0c.1 0 .1 0 0 0zm.1 0zm.1 0zm.1-.1c.1 0 .1 0 0 0 .1 0 .1 0 0 0 .1 0 .1 0 0 0zm.2 0zm.1 0zm.1 0h.1c0-.1 0-.1-.1 0 .1-.1 0-.1 0 0zm.2-.1c.1 0 .1 0 0 0 .1 0 .1 0 0 0zm.2-.1c.1 0 .1-.1.2-.1-.1 0-.1.1-.2.1zm.2-.1c.1 0 .1-.1.2-.1-.1.1-.2.1-.2.1zm.4-.3c.1 0 .1-.1.2-.1 0 0-.1.1-.2.1.1 0 0 0 0 0zm-.2.3c.1 0 .1-.1.2-.1-.1-.1-.1-.1-.2.1zm.5-.5s.1-.1 0 0c.1-.1.1-.1 0 0 .1-.1.1-.1 0 0zm.2-.2s-.1 0 0 0l.1-.1-.1.1zm.2-.2l-.1.1c.1-.1.1-.2.1-.1 0-.1 0-.1 0 0 0-.1 0-.1 0 0zm.2-.4l-.1.1c0 .2.1 0 .1-.1 0 0 .1-.1 0 0 .1-.1.1-.1 0 0 .1-.1.1-.1 0 0zm.1-.3c0 .1 0 .1 0 0 0 .1 0 .1 0 0 0 .1 0 0 0 0 .1 0 .1 0 0 0 .1 0 0 0 0 0zm.1-.2c0 .1 0 .1 0 0v.1-.1zm0-.1s0 .1 0 0v-.1c.1 0 .1.1 0 .1.1 0 .1 0 0 0zm.1-.1v-.1.1zm0-.2v-.2.2zm0-.2v-.2.2zm0-.2v-.1.1c0-.1 0-.1 0 0 0-.1 0-.1 0 0zm2.9-2.2c-.1 0-.1-.1-.2-.1.1.1.1.1.2.1 0 0 0 .1 0 0 0 .1 0 .1 0 0zm.1.1zm0 0c.1 0 .1 0 0 0 .1 0 .1 0 0 0 .1 0 .1 0 0 0zm.2.1s0-.1 0 0c0-.1 0-.1 0 0-.1 0-.1 0 0 0-.1-.1-.1-.1 0 0 0 0 .1 0 0 0 .1 0 .1 0 0 0 .1 0 .1 0 0 0zm.2 0c-.1 0-.1 0 0 0s.1 0 0 0zm.2 0h-.1.1c.1 0 .1 0 0 0zm.2 0c-.1 0-.1 0 0 0-.1 0-.1 0 0 0-.1 0 0 0 0 0zm.1 0s-.1 0 0 0 .1 0 0 0c.1 0 0 0 0 0zm.2 0c-.1 0-.1 0 0 0s.1 0 0 0zm.1 0c.1 0 0 0 0 0zm.1 0c.1 0 .1 0 0 0zm.2-.1s0 .1 0 0h.2-.2c.1 0 0 0 0 0zm.2 0c.1 0 .1 0 .2-.1-.1.1-.2.1-.2.1zm.2-.1zm.2-.1s-.1 0 0 0c-.1 0 0 0 0 0zm.1 0c0-.1 0 0 0 0zm.2-.1c.1 0 .1 0 0 0 .1 0 .1 0 0 0zm-.1 0s.1 0 0 0c.1 0 0 0 0 0zm3.4.7zm.1.3v-.1.1zm0 0s-.1-.2 0 0v-.1c-.1-.1-.1-.1 0 .1zm0 .1v.1-.1zm0 .1v.1c.1 0 .1 0 0-.1.1 0 .1 0 0 0zm.2.3c-.1-.1-.1-.1 0 0 0-.1 0-.1-.1-.1l.1.1zm0 0s0 .1.1.1c-.1 0-.1-.1-.1-.1zm.1.2c0-.1 0-.1 0 0 0-.1 0 0 0 0zm.1 0c0 .1 0 .1 0 0 0 .1 0 .1 0 0 0 .1 0 .1 0 0zm.1.3zm.2.1c-.1-.1-.1-.1 0 0-.1-.1-.1-.1 0 0-.1-.1-.1-.1 0 0zm0 0l.1.1c0-.1-.1-.1-.1-.1zm.2.1c-.1 0-.1 0 0 0-.1 0-.1 0 0 0-.1 0-.1 0 0 0 .1.1.1 0 0 0zm.1.1s.1 0 .1.1c0-.1 0-.1-.1-.1.1 0 0 0 0 0zm.2.1c-.1-.1-.1-.1 0 0-.1-.1-.1-.1 0 0 .1 0 .1 0 0 0zm.3.1c-.1 0-.1 0 0 0h-.1c-.1-.1 0-.1.1 0 .1 0 .1 0 0 0zm.1 0s.1 0 0 0c.1 0 .1 0 0 0zm.1 0s.1 0 0 0c.1 0 .1 0 0 0zm.1 0c.1.1.1.1 0 0 .1 0 0 0 0 0zm.2.1s-.1 0 0 0zm.1 0c.1 0 0 0 0 0zm.1 0c.1 0 .1 0 0 0zm.1 0s.1 0 0 0c.1 0 0 0 0 0zm.2-.1c0 .1 0 .1 0 0h-.1.1zm.2 0c-.1 0-.1 0 0 0zm.2-.1c0 .1 0 .1 0 0-.1 0-.1 0 0 0 0 .1.1 0 0 0 .1 0 .1 0 0 0 .1 0 .1 0 0 0zm.3-.1c-.1 0-.1 0-.2.1.1 0 .2 0 .2-.1zm.1 0c.1 0 .1-.1.2-.1-.1.1-.1.1-.2.1zm.1-.1c.1 0 .1-.1.2-.1-.1.1-.1.1-.2.1zm.2-.1l.1-.1s0 .1-.1.1zm.2-.1l.1-.1c0 .1-.1.1-.1.1zm.2-.3c.1 0 .1 0 0 0zm.1-.1zm0 0c0-.1.1-.1 0 0 .1-.1.1-.1 0 0 0-.1 0 0 0 0zm.1-.1s0-.1 0 0c0-.1 0-.1 0 0 0-.1 0 0 0 0zm0-.1s.1-.1 0 0c.1-.1.1-.1 0 0 .1-.1.1 0 0 0zm.1-.1s0-.1 0 0c0-.1 0-.1 0 0 0-.1 0-.1 0 0zm.1-.5s0 .2 0 0c0 .2 0 .2 0 0 0 .2 0 .2 0 0v.1-.1zm0 .2zm2.1-3c-.1 0-.1-.1-.2-.1.1.1.1.1.2.1 0 0 .1 0 0 0 .1 0 .1 0 0 0zm.1 0zm.1 0zm.2.1c0-.1 0-.1 0 0 0-.1-.1-.1 0 0-.1 0-.1 0 0 0-.1 0-.1 0 0 0 0-.1 0 0 0 0 .1 0 .1 0 0 0 .1 0 0 0 0 0zm.3 0s-.1 0 0 0c-.1 0-.1 0 0 0h-.2.2zm.7 0c.1 0 .1 0 0 0zm.3-.1c-.1 0-.1 0 0 0-.1 0-.1 0 0 0-.1 0 0 0 0 0zm.1 0s.1 0 .1-.1l-.1.1zm.1 0s.1 0 .1-.1c0 .1 0 .1-.1.1.1 0 0 0 0 0zm.2-.2l.1-.1c0 .1-.1.1-.1.1zm.4-.4s0 .1 0 0c0 0 .1 0 0 0 .1 0 .1 0 0 0 .1 0 .1 0 0 0zm.1-.1s0-.1.1-.1c0 0 0 .1-.1.1zm.1-.2s0 .1 0 0c0 .1 0 .1 0 0 0 .1 0 .1 0 0 0 .1 0 0 0 0zm.1-.1s0-.2 0 0c0-.2 0-.2 0 0 0-.2 0-.2 0 0 0-.2 0-.2 0 0 0-.2 0-.2 0 0 0-.2 0-.2 0 0 0-.2 0-.2 0 0 0-.2 0 0 0 0zm-.3.5c-.1 0-.1.1 0 0l-.1.1s0-.1.1-.1zm-.2.1c0 .1 0 .1 0 0 0 .1 0 .1 0 0zm-1 .5h-.2.2zm-.1 0c-.1 0-.1 0 0 0h-.2.2zm-.3 0c-.1 0-.1 0 0 0h-.2.2zm-.4-3.3zm-.2 0zm-.3-2.1s.1 0 .1-.1c0 .1 0 .1-.1.1zm.2-.1zm.1-.1zm.1 0c0-.1 0-.1 0 0 0-.1 0-.1 0 0 0-.1 0-.1 0 0zm.1-.1s-.1 0 0 0c0 0 0-.1 0 0 0-.1 0-.1 0 0 0-.1 0 0 0 0zm.1-.1c-.1 0-.1 0 0 0-.1 0-.1 0 0 0-.1 0 0 0 0 0 0-.1 0-.1 0 0zm0-.1c0-.1 0-.1 0 0zm.1-.2v-.1.1s-.1.1 0 0c-.1.1-.1.1 0 0v.1c-.1 0 0-.1 0-.1zm1.6-2.1c-.1 0-.1 0-.2-.1.1.1.1.1.2.1 0 .1 0 0 0 0zm0 .1s.1 0 0 0c.1 0 .1 0 0 0 .1 0 0 0 0 0zm.1 0zm.2 0s-.1 0 0 0c-.1 0-.1 0 0 0h-.1.1c.1 0 .1 0 0 0zm.7 0c-.1.1-.1.1 0 0 0 .1 0 0 0 0 .1 0 .1 0 0 0zm.1 0s.1 0 0 0c.1 0 .1 0 0 0 .1 0 .1 0 0 0zm.2 0c-.1 0-.1 0 0 0s.1 0 0 0zm.2-.1c.1 0 .1 0 0 0 .1 0 .1 0 0 0 .1 0 .1 0 0 0zm.2 0s.1 0 .1-.1c0 0-.1 0-.1.1 0-.1 0 0 0 0zm.3-.3c.1 0 0 0 0 0zm.1-.1zm.1-.1c-.1 0-.1 0 0 0-.1 0-.1 0 0 0v.1c-.1-.1 0-.1 0-.1zm-.2.3c-.1 0-.1 0 0 0-.1 0-.1 0 0 0-.1 0-.1 0 0 0zm-.2.1zm-.9.3c-.1 0-.1 0 0 0h-.1.1zm-.2 0h-.1.1zm-.1 0s-.1-.1 0 0c-.1-.1-.1-.1 0 0-.1 0-.1 0 0 0-.1-.1-.1-.1 0 0zm-.8-3.7s0-.1 0 0c0-.1 0 0 0 0zm.1-.1zm.1 0c0-.1 0-.1 0 0 0-.1 0-.1 0 0 0-.1 0-.1 0 0zm0-.1c.1 0 .1 0 0 0 .1 0 .1 0 0 0 .1 0 .1 0 0 0zm.1-.1s0 .1 0 0zm.1 0s-.1 0 0 0c0-.1 0-.1 0 0zm.1-.3c0 .1 0 .1 0 0 0 .1 0 .1 0 0 0 .1 0 .1 0 0 0 .1 0 .1 0 0 0 .1 0 .1 0 0 0 .1 0 .1 0 0 0 .1 0 .1 0 0 0 .1 0 .1 0 0v.1c-.1 0 0 0 0-.1 0 .1 0 0 0 0zm-.1.2zm1.3-1.6h-.1.1s.1 0 0 0c.1 0 .1 0 0 0zm.1 0s0 .1 0 0c0 .1 0 .1 0 0 0 .1 0 0 0 0zm.1.1c-.1 0-.1 0 0 0-.1 0 0 0 0 0zm.1 0s-.1 0 0 0h-.1.1c.1 0 .1 0 0 0 .1 0 0 0 0 0zm.5 0c-.1 0-.1 0 0 0-.1 0-.1 0 0 0-.1 0 0 0 0 0zm.1 0s-.1 0 0 0zm.1 0s.1 0 0 0c.1 0 .1 0 0 0 .1 0 0 0 0 0zm.4-.1zm.1 0s0-.1 0 0c0-.1 0-.1 0 0zm.3-.2c-.1 0-.1 0 0 0-.1 0 0 0 0 0zm0-.1s0 .1 0 0zm.1-.1c0 .1 0 .1 0 0-.1.1-.1.1 0 0-.1.1-.1.1 0 0 0 .1 0 0 0 0zm-.2.2s0 .1 0 0c-.1.1-.1.1 0 0 0 .1 0 0 0 0zm-.1.1zm-.4.2s-.1 0 0 0h-.1.1zm-.5 0c-.1 0-.1 0 0 0h-.1.1zm-.2 0h-.1.1zm-.3-1.6zm-.3 0zm-.2-1s.1-.1 0 0c.1-.1 0 0 0 0zm.1-.1c.1 0 .1 0 0 0zm.1 0zm0-.1c.1 0 .1 0 0 0 .1 0 .1 0 0 0 .1 0 .1 0 0 0zm.1 0zm.1-.2c0-.1 0-.1 0 0 0 0 0 .1 0 0zm0 .1c-.1 0-.1 0 0 0-.1.1-.1.1 0 0-.1 0 0 0 0 0zm1-1.2c.1 0 .1 0 0 0 .1 0 .1 0 0 0 .1 0 .1 0 0 0zm.1 0zm.1 0s-.1 0 0 0zm.2.1c-.1 0-.1 0 0 0-.1 0-.1 0 0 0h-.1.1zm.2 0c-.1 0-.1 0 0 0-.1 0-.1 0 0 0h-.1.1zm.2 0c-.1 0-.1 0 0 0-.1 0-.1 0 0 0h-.1.1zm.1 0c-.1 0-.1 0 0 0s.1 0 0 0zm.1-.1s0 .1 0 0c0 .1 0 .1 0 0 0 0 .1 0 0 0 .1 0 .1 0 0 0 .1 0 .1 0 0 0zm.2 0zm.1 0zm.1-.1zm2.1.4zm.2.1zm-.1-.1zm.2.2zm.1 0c.1 0 .1 0 0 0zm.3.1c-.1 0-.1 0-.2-.1.1.1.1.1.2.1zm.1.1s0-.1 0 0c0-.1 0-.1 0 0h-.1c.1-.1.1 0 .1 0 .1 0 .1 0 0 0 .1 0 0 0 0 0zm.4 0s-.1 0 0 0c-.1 0-.1 0 0 0-.1 0-.1 0 0 0-.1 0-.1 0 0 0-.1 0 0 0 0 0zm.1 0s-.1 0 0 0 .1 0 0 0c.1 0 .1 0 0 0 .1 0 .1 0 0 0zm.2 0s-.1 0 0 0c-.1 0-.1 0 0 0-.1 0-.1 0 0 0zm.1 0s-.1 0 0 0h-.1.1zm.1 0s-.1 0 0 0zm.1 0c.1 0 0 0 0 0zm.1 0c.1 0 .1 0 0 0 .1 0 0 0 0 0zm.1 0zm.1 0c0-.1 0 0 0 0zm.1-.1zm.1 0zm.1-.1zm0 0c0-.1 0-.1 0 0 .1-.1 0-.1 0 0 0-.1 0-.1 0 0 0-.1 0-.1 0 0 0-.1 0-.1 0 0zm.1-.1zm-.1.1c-.1 0-.1 0 0 0-.1 0-.1 0 0 0-.1 0-.1.1 0 0-.1.1-.1.1 0 0-.1 0 0 0 0 0zm.8-1.2c-.1 0-.2 0-.2-.1.1 0 .1.1.2.1zm.1 0zm0 0zm.2 0c-.1 0-.1 0 0 0-.1 0-.1 0 0 0-.1 0-.1 0 0 0-.1 0-.1 0 0 0-.1 0-.1 0 0 0-.1 0 0 0 0 0zm.1 0c-.1 0-.1 0 0 0-.1 0-.1 0 0 0zm.1 0s-.1 0 0 0zm.1 0c.1 0 .1 0 0 0 .1 0 .1 0 0 0zm.1 0s.1 0 0 0c.1 0 .1 0 0 0 .1 0 .1 0 0 0 .1 0 0 0 0 0zm.1 0s.1 0 0 0c.1 0 .1 0 0 0 .1 0 .1 0 0 0 .1 0 0 0 0 0zm.2 0s-.1 0 0 0c-.1 0-.1 0 0 0-.1 0-.1 0 0 0-.1 0-.1 0 0 0-.1 0 0 0 0 0zm0 0c.1 0 0 0 0 0zm.1 0c0-.1 0-.1 0 0 0-.1 0-.1 0 0 0-.1 0 0 0 0zm.1-.1zm.1 0c0-.1 0-.1 0 0 0-.1 0-.1 0 0zm-.1 0c.1 0 .1 0 0 0 .1 0 .1 0 0 0zm.2-.1zm0 0s0-.1 0 0c0-.1 0-.1 0 0 0-.1 0-.1 0 0 0-.1 0-.1 0 0 0-.1 0 0 0 0zm-2.2-.1zm-2.4.7l-1.9-.3zm-.1 0zm-6.8.8l-1.8-.3zm-11.7.4zm0 .1zm0 .1zm0 .1c0-.1 0-.1 0 0 0-.1 0-.1 0 0 0-.1 0-.1 0 0z"/><path class="st0" d="M-272.9 392.7zm0 0zm-5.8.5l1.6-.7zm-3.5-.1l1.7.3zm11.3.5l.4 1.1zm3.7 2.3zm-10.5.6l2 .5zm5.8 4.5l2.4.6zm6.3-.9zm-20.1 2.3l.1-.1c-.1 0-.1 0-.1.1zm-.2.2s0-.1.1-.1l-.1.1zm.1-.2s0 .1 0 0c0 .1 0 .1 0 0 0 .1 0 0 0 0zm-.1.2c0 .2 0 .2 0 0 0 .2 0 .2 0 0v.6-.1c-.1-.2-.1-.3 0-.5 0 .2 0 0 0 0zm-.1.5zm-2.6 1.4l2.6-1.4zm-2.6.5s0-.1 0 0c0-.1 0 0 0 0zm-2.2-.7l2.2.6zm14.2 1.2zm9 4.1l2.2-1.8zm-5.7-.4l3 .8zm-5.2 1.4l.9-.6zm-7.7 1l2.8.9zm-.1-.8s0-.2 0 0c0-.2 0 0 0 0zm.1.2c0 .1 0 .1 0 0zm0-.2zm-.1.6c0 .1 0 .1 0 0 0 .1 0 .1 0 0z"/><linearGradient id="SVGID_1_" gradientUnits="userSpaceOnUse" x1="-292.532" y1="417.35" x2="-255.855" y2="417.35" gradientTransform="matrix(1 0 0 -1 0 804.6)"><stop offset="0" stop-color="#7bccbf"/><stop offset="1" stop-color="#43a3db"/></linearGradient><path class="st2" d="M-266.9 386.8l.1.1v.2l-.1.1s-.1 0-.1.1c0 0-.1 0-.1.1h-.1l.5.7c.1 0 .2 0 .3.1.1 0 .2.1.3.1.1 0 .1.1.2.1l.1.1 1.7.1c.1 0 .1-.1.2-.1s.2 0 .3-.1h.6l1-.5s-.1 0-.1-.1c0 0 0-.1-.1-.1v-.3l.1-.1s.1 0 .1-.1h.1l-.6-.6c-.1 0-.2 0-.3-.1-.1 0-.2-.1-.3-.1-.1 0-.1-.1-.2-.1s-.1-.1-.1-.1l-1.5-.2c-.1 0-.1.1-.2.1s-.2 0-.3.1h-.6l-.9.6z"/><linearGradient id="SVGID_2_" gradientUnits="userSpaceOnUse" x1="-292.532" y1="416.7" x2="-255.855" y2="416.7" gradientTransform="matrix(1 0 0 -1 0 804.6)"><stop offset="0" stop-color="#7bccbf"/><stop offset="1" stop-color="#43a3db"/></linearGradient><path class="st3" d="M-272.8 387.2l.1.1v.2s0 .1-.1.1c0 0-.1 0-.1.1 0 0-.1 0-.1.1h-.1l.3.7h.3c.1 0 .2.1.2.1.1 0 .1.1.2.1l.1.1 1.6.2c.1 0 .2-.1.2-.1.1 0 .2-.1.3-.1h.7l1.3-.3v-.2s0-.1.1-.1c0 0 .1 0 .1-.1 0 0 .1 0 .1-.1h.1l-.4-.7c-.1 0-.2 0-.3-.1-.1 0-.2-.1-.2-.1-.1 0-.1-.1-.2-.1l-.1-.1-1.5-.2c-.1 0-.1.1-.2.1s-.2 0-.3.1h-.6l-1.5.3z"/><linearGradient id="SVGID_3_" gradientUnits="userSpaceOnUse" x1="-292.532" y1="416.05" x2="-255.855" y2="416.05" gradientTransform="matrix(1 0 0 -1 0 804.6)"><stop offset="0" stop-color="#7bccbf"/><stop offset="1" stop-color="#43a3db"/></linearGradient><path class="st4" d="M-279.6 389.1c.1 0 .1 0 0 0 .1 0 .1 0 0 0 .2 0 .3 0 .4.1.1 0 .2.1.2.1.1 0 .1.1.1.1v.2l1.6.3c.1 0 .2-.1.3-.1.1 0 .2-.1.3-.1h.8l1.4-.5v-.3s0-.1.1-.1l.1-.1.1-.1s.1 0 .1-.1c0 0 .1 0 .2-.1l-.3-.7c-.1 0-.2 0-.3-.1-.1 0-.2-.1-.2-.1-.1 0-.1-.1-.1-.1v-.1l-1.5-.2c-.1 0-.2.1-.3.1-.1 0-.2 0-.3.1h-.6l-1.3.5v.3s0 .1-.1.1l-.1.1s-.1 0-.1.1c0 0-.1 0-.1.1-.1 0-.1 0-.2.1l-.2.5z"/><linearGradient id="SVGID_4_" gradientUnits="userSpaceOnUse" x1="-292.532" y1="415.05" x2="-255.855" y2="415.05" gradientTransform="matrix(1 0 0 -1 0 804.6)"><stop offset="0" stop-color="#7bccbf"/><stop offset="1" stop-color="#43a3db"/></linearGradient><path class="st5" d="M-258.1 388.2l-1.7-.2s-.1.1-.2.1-.2 0-.3.1h-.7l-1 .5h.1v.3s0 .1-.1.1c0 0-.1 0-.1.1 0 0-.1 0-.1.1l.6.8c.1 0 .3 0 .4.1.1 0 .2.1.3.1s.2.1.2.2l.2.2 1.9.3c.1 0 .1-.1.2-.1s.2-.1.3-.1h.7l1-.6-.1-.1-.1-.1s0-.1-.1-.1v-.2s0-.1.1-.1c0 0 .1 0 .1-.1 0 0 .1 0 .1-.1l-.8-.8c-.1 0-.2 0-.4-.1-.1 0-.2-.1-.3-.1-.1 0-.2-.1-.2-.2.1.1 0 .1 0 0z"/><linearGradient id="SVGID_5_" gradientUnits="userSpaceOnUse" x1="-292.532" y1="414.35" x2="-255.855" y2="414.35" gradientTransform="matrix(1 0 0 -1 0 804.6)"><stop offset="0" stop-color="#7bccbf"/><stop offset="1" stop-color="#43a3db"/></linearGradient><path class="st6" d="M-262.8 390.8c0-.1 0-.1 0 0-.1-.1-.1-.2-.1-.2v-.1s0-.1.1-.1c0 0 0-.1.1-.1l.1-.1s.1 0 .1-.1l-.6-.8c-.1 0-.2 0-.3-.1-.1 0-.2-.1-.3-.1-.1 0-.2-.1-.2-.1-.1 0-.1-.1-.1-.2l-1.7-.2c-.1 0-.1.1-.2.1s-.2 0-.3.1h-.7l-1.2.5s0 .1.1.1v.3s0 .1-.1.1l-.1.1s-.1 0-.1.1c0 0-.1 0-.1.1l.5.8c.1 0 .2 0 .4.1.1 0 .2.1.3.1.1 0 .2.1.2.2.1.1.1.1.1.2l1.8.3c.1-.1.2-.1.3-.1-.2-.2-.1-.2 0-.2h.8l1.2-.7c.1 0 0 0 0 0z"/><linearGradient id="SVGID_6_" gradientUnits="userSpaceOnUse" x1="-292.532" y1="412.9" x2="-255.855" y2="412.9" gradientTransform="matrix(1 0 0 -1 0 804.6)"><stop offset="0" stop-color="#7bccbf"/><stop offset="1" stop-color="#43a3db"/></linearGradient><path class="st7" d="M-283.1 392.4c.1 0 .1 0 0 0 .1 0 .1 0 0 0 .3 0 .4.1.5.1.1 0 .2.1.2.1.1.1.1.1.1.2v.2l1.8.3c.1-.1.2-.1.3-.1s.3-.1.4-.1h.8l1.9-.6v-.2l.1-.1.1-.1.1-.1s.1-.1.2-.1.1 0 .2-.1l-.2-.9c-.1 0-.2 0-.3-.1-.1 0-.2-.1-.2-.1-.1 0-.1-.1-.1-.2v-.2l-1.6-.3c-.1 0-.2.1-.3.1-.1 0-.2.1-.3.1h-.8l-1.6.6v.2s0 .1-.1.1l-.1.1-.1.1s-.1.1-.2.1-.1.1-.2.1-.1 0-.2.1l-.4.8z"/><linearGradient id="SVGID_7_" gradientUnits="userSpaceOnUse" x1="-292.532" y1="410.8" x2="-255.855" y2="410.8" gradientTransform="matrix(1 0 0 -1 0 804.6)"><stop offset="0" stop-color="#7bccbf"/><stop offset="1" stop-color="#43a3db"/></linearGradient><path class="st8" d="M-264 394.6s0-.1-.1-.1v-.2s0-.1.1-.1l.1-.1.1-.1s.1-.1.2-.1l-.7-1.1h-.4c-.1 0-.3-.1-.4-.1-.1 0-.2-.1-.3-.1-.1-.1-.2-.1-.2-.2.1-.1 0-.2 0-.3l-1.9-.3c-.1.1-.2.1-.3.1s-.2.1-.3.1h-.8l-1.4.7s0 .1.1.1v.3l-.1.1-.1.1s-.1.1-.2.1-.1.1-.2.1l.5 1.1h.4c.1 0 .3.1.4.1.1 0 .2.1.3.2s.2.1.2.2c.1.1.1.2.1.2l2.1.4c.1-.1.2-.1.3-.2.1 0 .2-.1.4-.1h1.3l1.4-.8c-.5.1-.6.1-.6 0z"/><linearGradient id="SVGID_8_" gradientUnits="userSpaceOnUse" x1="-292.532" y1="409.7" x2="-255.855" y2="409.7" gradientTransform="matrix(1 0 0 -1 0 804.6)"><stop offset="0" stop-color="#7bccbf"/><stop offset="1" stop-color="#43a3db"/></linearGradient><path class="st9" d="M-278.8 395.7h.3c.1 0 .3.1.4.1.1.1.2.1.3.2l.2.2v.3l2.1.4c.1-.1.2-.1.4-.2.1-.1.3-.1.4-.1h1.2l1.7-.9-.1-.1v-.2s0-.1.1-.1l.1-.1.1-.1c.1 0 .1-.1.2-.1s.1-.1.2-.1l-.4-1.1c-.1 0-.3-.1-.4-.1-.1 0-.2-.1-.3-.2l-.2-.2c0-.1-.1-.1-.1-.2l-1.9-.3c-.1.1-.2.1-.3.1s-.2.1-.4.1h-.8l-1.7.7v.3l-.1.1-.1.1s-.1.1-.2.1-.1.1-.2.1c-.5.1-.6.1-.7.1l.2 1.2z"/><linearGradient id="SVGID_9_" gradientUnits="userSpaceOnUse" x1="-292.532" y1="405.6" x2="-255.855" y2="405.6" gradientTransform="matrix(1 0 0 -1 0 804.6)"><stop offset="0" stop-color="#7bccbf"/><stop offset="1" stop-color="#43a3db"/></linearGradient><path class="st10" d="M-265.2 398.8l-.8-1.5h-.4c-.2 0-.3-.1-.4-.1-.1-.1-.3-.1-.4-.2s-.2-.2-.3-.2c-.1-.1-.1-.2-.1-.3l-2.2-.4c-.1.1-.2.1-.3.2-.1 0-.3.1-.4.1h-.9l-1.7.9s0 .1.1.2v.4c0 .1 0 .1-.1.2 0 .1-.1.1-.1.2s-.1.1-.2.1-.1.1-.2.1-.1.1-.2.1l.4 1.6h.4c.2 0 .3.1.5.2.1.1.3.1.4.2.1.1.2.2.2.3.1.1.1.2.1.3l2.5.6c.1-.1.2-.2.4-.2.1-.1.3-.1.5-.2.2 0 .3-.1.5-.1s.4 0 .5.1h.4l1.7-1.2c0-.1-.1-.1-.1-.2s0-.1-.1-.2v-.4c0-.1 0-.1.1-.2 0-.1.1-.1.1-.2 0 0 .1-.1.2-.1-.2 0-.1-.1-.1-.1z"/><linearGradient id="SVGID_10_" gradientUnits="userSpaceOnUse" x1="-292.532" y1="402.9" x2="-255.855" y2="402.9" gradientTransform="matrix(1 0 0 -1 0 804.6)"><stop offset="0" stop-color="#7bccbf"/><stop offset="1" stop-color="#43a3db"/></linearGradient><path class="st11" d="M-294.3 403h.3c.2 0 .3.1.4.2 0 .1.1.2.2.3 0 .1.1.2.1.4 0 .1 0 .3-.1.4h.1l2.3.6.6-.3c0-.1.2-.1.4-.2.2 0 .4-.1.6-.1.2 0 .4 0 .5.1h.4l2.6-1.4V402.1l.1-.1.2-.2.2-.2c.1-.1.2-.1.3-.2.1 0 .2-.1.3-.1l.1-1.7h-.4c-.2 0-.3-.1-.4-.2-.1-.1-.2-.1-.3-.2.2.2.2.1.2 0v-.3l-2-.5c-.1.1-.3.2-.5.2-.2.1-.3.1-.5.1h-.5c-.2 0-.3 0-.5-.1h-.1l-2.4 1.1v.2c0 .1 0 .1-.1.2 0 .1-.1.1-.1.2-.2.1-.3.1-.3.2l-.2.2c-.1.1-.2.1-.3.2-.1.1-.2.1-.3.1s-.2.1-.3.1l-.6 1.9z"/><linearGradient id="SVGID_11_" gradientUnits="userSpaceOnUse" x1="-292.532" y1="398.75" x2="-255.855" y2="398.75" gradientTransform="matrix(1 0 0 -1 0 804.6)"><stop offset="0" stop-color="#7bccbf"/><stop offset="1" stop-color="#43a3db"/></linearGradient><path class="st12" d="M-277.4 407.6h.3c.2.1.4.1.5.2.2.1.3.2.4.4.1.1.2.3.2.5.1.2.1.3.1.5l3 .8c.1-.1.3-.3.5-.4.2-.1.4-.2.6-.2.2-.1.4-.1.6-.1s.4 0 .7.1h.4l2.2-1.8c0-.1-.1-.2-.1-.3 0-.1 0-.2-.1-.3v-.3c0-.1 0-.2.1-.3 0-.1.1-.2.1-.3s.1-.2.2-.2l.2-.2c.1-.1.2-.1.2-.2l-.8-2.1h-.4c-.2 0-.4-.1-.5-.2-.2-.1-.3-.2-.4-.3l-.3-.3c-.1-.1-.1-.3-.1-.4l-2.5-.6c-.1.1-.3.2-.4.3-.2.1-.3.1-.5.2-.2 0-.4.1-.5.1-.2 0-.4 0-.5-.1h-.4l-2.1 1.3c0 .1 0 .1.1.2v.2c0 .1 0 .2-.1.2 0 .1-.1.2-.1.2 0 .1-.1.2-.2.2l-.2.2c-.1.1-.2.1-.2.2-.1.1-.2.1-.3.2l.3 2.6z"/><linearGradient id="SVGID_12_" gradientUnits="userSpaceOnUse" x1="-292.532" y1="396.6" x2="-255.855" y2="396.6" gradientTransform="matrix(1 0 0 -1 0 804.6)"><stop offset="0" stop-color="#7bccbf"/><stop offset="1" stop-color="#43a3db"/></linearGradient><path class="st13" d="M-283.4 403.8c-.2.1-.4.1-.6.2-.2 0-.4.1-.6.1-.2 0-.4 0-.5-.1h-.4l-2.7 1.5v.2c0 .1 0 .2-.1.3 0 .1-.1.2-.1.3-.1.1-.1.2-.2.3.1-.1 0-.1-.1 0s-.2.2-.3.2c-.1.1-.2.1-.3.2s-.2.1-.3.2l-.4 2.5h.4c.2.1.4.2.5.3.1.1.2.2.3.4v1.1l2.8.9c.2-.2.4-.3.6-.4.2-.1.5-.2.7-.3.2-.1.5-.1.7-.1.2 0 .5 0 .7.1h.4l1.9-1.3.9-.6v-.6c0-.1 0-.2.1-.3 0-.1.1-.2.1-.3.1-.1.1-.2.2-.3.1-.1.2-.2.2-.3.1-.1.2-.1.3-.2.1-.1.2-.1.3-.2l-.3-2.1h-.4c-.2 0-.4-.1-.5-.2-.1-.1-.3-.2-.3-.3-.1-.1-.2-.2-.2-.4v-.4l-2.3-.7c-.2.1-.4.3-.5.3z"/><path class="st0" d="M-288.8 411.2s0-.1 0 0c0-.1 0-.1 0 0zm0 .1v.1c-.1 0-.1 0 0-.1-.1.1 0 .1 0 0zm0-.4zm39.8-15.3c.1-.4.2-.8.2-1.2 0-.1.1-.2.2-.2h1.6c.1 0 .2 0 .2.2-.1.8-.3 1.6-.4 2.4-.1.8-.3 1.6-.4 2.4-.1.7-.3 1.5-.4 2.2-.1.8-.3 1.6-.4 2.4-.2 1.5-.6 2.9-1.4 4.1-.8 1.1-1.8 2-3 2.5-.7.3-1.4.4-2.1.4-1.1 0-2.1-.2-3.1-.9-.1-.1-.2-.2-.1-.3.3-.5.7-1 1-1.6.1-.2.2-.2.4-.1 1.9 1.1 4.2.5 5.2-1.5l.6-1.5v-.3c-.3.2-.5.3-.7.5-1.3.8-2.8 1.2-4.3.9-1.8-.3-3.1-1.4-3.7-3.2-.4-1.2-.4-2.5 0-3.8.6-1.8 1.7-3.1 3.3-4.1 1.4-.9 3-1.3 4.6-1 1 .2 1.8.6 2.5 1.3 0 .3.1.3.2.4-.1-.1-.1-.1 0 0zm-1 4.2c0-2.3-1.6-3.7-3.5-3.4-.9.1-1.6.5-2.3 1-1.3 1-2.1 2.8-1.5 4.4.4 1.1 1.3 1.8 2.3 1.9 1.1.2 2.1-.1 3-.7 1.2-.9 1.9-2 2-3.2zm24.4 5l-.3 1.5c-.1.8-.3 1.6-.4 2.4-.1.5-.2 1.1-.3 1.6-.1.4 0 .4-.4.4h-1.7c-.2 0-.3 0-.2-.3.1-.8.3-1.5.4-2.3.1-.8.3-1.6.4-2.4.2-1 .4-2 .5-3.1.1-.8.3-1.5.4-2.3.2-1 .4-2 .5-3.1.1-.7.3-1.5.4-2.2 0-.3.1-.5.1-.8 0-.1.1-.2.2-.2h1.6c.2 0 .2.1.2.2-.1.3-.1.6-.2 1v.3c.3-.2.5-.4.8-.5 1.4-.9 2.9-1.3 4.6-1s3 1.3 3.7 3c.4 1 .5 2.1.2 3.2-.5 2.3-1.8 3.9-3.8 5-1.3.7-2.7 1-4.2.8-.9-.1-1.6-.5-2.3-1.1 0 0-.1-.1-.2-.1.1 0 .1 0 0 0zm.8-4.1c0 .7.2 1.3.6 1.8.9 1.2 2.4 1.5 3.8 1 .9-.3 1.7-.9 2.3-1.7.7-1 1.1-2.2.7-3.4-.4-1.1-1.4-1.9-2.5-2-1-.1-1.9.1-2.8.7-1.3.9-2.1 2.1-2.1 3.6zm-6.3 3.8c-.3.2-.5.4-.8.5-1.4.9-2.9 1.3-4.6 1-1.7-.3-3-1.3-3.7-3-.5-1.3-.5-2.6 0-4 .6-1.8 1.7-3.1 3.3-4.1 1.4-.9 3-1.3 4.6-1 1 .2 1.9.6 2.6 1.4l.1.1h.1s.1-.1.1-.2c.1-.4.1-.7.2-1.1 0-.1.1-.2.2-.2h1.7c.1 0 .2 0 .2.2-.1.6-.2 1.1-.3 1.7-.1.8-.3 1.6-.4 2.4-.2 1-.4 2.1-.6 3.1-.1.8-.3 1.5-.4 2.3-.1.7-.2 1.3-.4 2 0 .1-.1.1-.2.1h-1.7c-.2 0-.2-.1-.1-.2.1-.3.1-.6.1-1-.1.3 0 .1 0 0zm-3.9-.7c.9 0 1.7-.2 2.4-.8 1.4-1 2.2-2.4 2-4.2-.1-1-.7-1.8-1.7-2.2-.9-.4-1.9-.4-2.8 0-1.7.7-2.7 1.9-3 3.8-.1.6 0 1.3.3 1.8.6 1.1 1.6 1.6 2.8 1.6zm49.7-3h-4.4c-.2 0-.3.1-.3.3.2 1.2.9 2.3 2.3 2.6 1.3.3 2.5 0 3.6-.7l.9-.6c.1-.1.2-.1.3.1.3.5.6.9.9 1.4.1.1.1.2 0 .3-.7.5-1.4 1-2.2 1.3-.9.4-1.8.6-2.8.7-2.1.1-4-.9-4.9-2.9-.5-1.1-.6-2.3-.3-3.5.4-1.9 1.4-3.3 2.9-4.4s3.2-1.5 5.1-1.2c1.5.3 2.7 1.1 3.3 2.5.5 1.1.6 2.3.5 3.6-.1.8 0 .7-.7.7-1.5-.2-2.9-.2-4.2-.2zm-1-1.9h3.2c.2 0 .3 0 .3-.2-.1-1-.5-1.8-1.4-2.3-1.1-.6-2.2-.5-3.3.1-1 .5-1.6 1.2-2.1 2.2-.1.2-.1.3.2.3 1-.1 2.1-.1 3.1-.1zm-26-9.4h2.4c-.3 1.8-.6 3.6-1 5.4.2-.1.4-.2.5-.3 1.1-.6 2.3-.8 3.6-.5 1.2.3 2.1 1 2.6 2.1.5.9.5 1.9.4 2.9-.1.8-.3 1.6-.4 2.4-.2 1.1-.4 2.1-.6 3.2-.1.3-.1.7-.2 1 0 .2-.1.2-.2.2h-2c-.2 0-.2 0-.2-.2.3-1.5.5-2.9.8-4.4.1-.8.3-1.5.4-2.3.2-1-.3-2.1-1.2-2.5-.6-.3-1.2-.3-1.8-.1-.9.3-1.5.8-2 1.5-.2.4-.4.8-.4 1.2-.1.8-.3 1.5-.4 2.3-.1.8-.3 1.6-.4 2.4l-.3 1.8c0 .1-.1.1-.2.2h-2c-.2 0-.2-.1-.2-.2.1-.7.3-1.5.4-2.2.1-.8.3-1.6.4-2.4.2-1 .4-2 .5-3.1.1-.7.3-1.5.4-2.2.2-1 .4-2.1.6-3.1.1-.8.3-1.5.4-2.3 0-.2.1-.5.1-.8z"/><path class="st0" d="M-195.1 394.1h3.6c.2 0 .3.1.2.3l-.3 1.5c0 .2-.1.3-.3.3h-3.3c-.2 0-.3.1-.3.3-.2 1-.4 2-.5 3-.1.8-.3 1.6-.4 2.4-.1.9.5 1.6 1.4 1.6h1.8c.3 0 .3 0 .2.3-.1.6-.2 1.1-.3 1.7 0 .2 0 .4-.2.4-1 0-2 .1-3-.1-1.2-.3-2-1.1-2.3-2.4-.1-.7 0-1.4.1-2.1.1-.8.3-1.5.4-2.3.2-1 .4-2 .5-3.1.1-.8.3-1.5.4-2.3.2-1 .4-2.1.6-3.1 0-.2.1-.2.3-.2h1.9c.2 0 .2 0 .2.2-.4 1.3-.5 2.4-.7 3.6-.1 0 0 0 0 0zm-48.5 1c.2-.1.3-.2.4-.3.7-.4 1.4-.6 2.2-.7h1.7c.2 0 .2 0 .2.2l-.3 1.8c0 .2-.1.2-.3.2-.6 0-1.2 0-1.8.1-1.2.2-2 .9-2.3 2.1-.2.8-.3 1.6-.5 2.3-.1.8-.3 1.6-.4 2.4-.1.8-.3 1.6-.4 2.4 0 .2-.1.2-.3.2h-1.9c-.2 0-.2 0-.2-.2.2-1 .4-2 .5-3 .1-.8.3-1.5.4-2.3.2-1 .4-2 .5-3.1.1-.8.3-1.5.4-2.3 0-.3.1-.5.1-.8 0-.1.1-.1.2-.1h1.6c.2 0 .2.1.1.2.2.4.1.6.1.9zm43.2-.9h1c.2 0 .2.1.2.2-.3 1.4-.5 2.9-.8 4.3-.3 1.4-.5 2.9-.7 4.3-.2.9-.3 1.8-.5 2.7 0 .2-.1.2-.3.2h-1.9c-.2 0-.2 0-.2-.2.3-1.4.5-2.9.8-4.3.2-1.2.4-2.5.7-3.7l.6-3.3c0-.2.1-.2.2-.2h.9zm.2-1.1c-.9 0-1.5-.8-1.1-1.7.2-.6 1-1.1 1.6-1.1.9 0 1.4.7 1.2 1.6-.3.7-.9 1.2-1.7 1.2z"/></svg>