<?xml version="1.0" encoding="UTF-8"?>
<svg width="13px" height="18px" viewBox="0 0 13 18" version="1.1" xmlns="http://www.w3.org/2000/svg" xmlns:xlink="http://www.w3.org/1999/xlink">
    <!-- Generator: Sketch 55 (78076) - https://sketchapp.com -->
    <title>Combined Shape</title>
    <desc>Created with Sketch.</desc>
    <g id="Symbols" stroke="none" stroke-width="1" fill="none" fill-rule="evenodd">
        <g id="footer-/-default" transform="translate(-1254.000000, -607.000000)" fill="#FFFFFF">
            <path d="M1261.38411,617.419207 C1262.26158,619.401491 1263.17891,621.356452 1264.11793,623.371094 C1264.24518,623.64457 1264.4592,624.026263 1264.36818,624.264146 C1264.24598,624.583522 1263.63934,624.453495 1263.16115,624.453495 C1262.5982,624.453495 1262.09691,624.574414 1261.72618,624.426291 C1261.34758,624.275052 1261.00511,623.159575 1260.81501,622.749001 C1260.00928,621.010113 1259.14997,619.144073 1258.35484,617.44641 C1259.71827,614.488862 1261.32781,611.248131 1262.75087,608.193872 C1262.96893,607.726373 1263.14672,607.037529 1263.66245,607.003494 C1263.90644,606.987675 1264.39411,607.030698 1264.89248,607.030698 C1265.30569,607.030698 1265.9427,606.958554 1266.0542,607.165758 C1266.24481,607.520607 1265.7419,608.208852 1265.59872,608.51864 C1264.20845,611.518492 1262.76157,614.448356 1261.38411,617.419207 Z M1254.2881,620.242486 C1254.20923,620.253297 1254.0434,620.146786 1254.0137,620.020619 C1253.94538,619.731185 1254.15004,619.498999 1254.24268,619.299614 C1254.86527,617.955759 1255.37868,616.82726 1256.00461,615.472227 C1256.08144,615.306134 1256.29725,614.992744 1256.30181,614.862154 C1256.3088,614.66756 1256.02529,614.189551 1255.93598,614.002451 C1255.65571,613.414983 1255.3948,612.906876 1255.1352,612.366214 C1255.0236,612.134765 1254.8012,611.887468 1254.8603,611.45086 C1254.88473,611.314128 1254.99218,611.277518 1255.11209,611.256757 L1257.30897,611.256757 C1257.72315,611.263513 1257.85999,611.762038 1258.04103,612.144347 C1258.46068,613.030463 1258.9526,614.0011 1259.32258,614.83439 C1258.72402,616.13279 1258.05552,617.570993 1257.4003,618.966691 C1257.19362,619.407599 1256.96159,620.175656 1256.50819,620.242486 L1254.2881,620.242486 Z" id="Combined-Shape"></path>
        </g>
    </g>
</svg>