<?xml version="1.0" encoding="UTF-8"?>
<svg width="108px" height="35px" viewBox="0 0 108 35" version="1.1" xmlns="http://www.w3.org/2000/svg" xmlns:xlink="http://www.w3.org/1999/xlink">
    <!-- Generator: Sketch 48.2 (47327) - http://www.bohemiancoding.com/sketch -->
    <title>Page 1</title>
    <desc>Created with Sketch.</desc>
    <defs>
        <polygon id="path-1" points="0.7522 0.9459 12.485 0.9459 12.485 12.2669 0.7522 12.2669"></polygon>
        <polygon id="path-3" points="3.59580171e-05 0.0002 30.874 0.0002 30.874 35 3.59580171e-05 35"></polygon>
    </defs>
    <g id="News-images" stroke="none" stroke-width="1" fill="none" fill-rule="evenodd">
        <g id="Page-1">
            <path d="M44.2647,24.7902 C43.6807,25.1372 42.1427,25.2882 41.3857,25.2882 C39.2647,25.2882 37.9877,24.1842 37.9877,22.3012 L37.9877,12.7342 L36.7317,12.6042 L36.7317,9.8552 L41.8937,9.8552 L41.8937,21.2622 C41.8937,21.9122 42.2737,22.1932 43.0307,22.1932 L43.8317,22.1932 L44.2647,24.7902 Z" id="Fill-1" fill="#008AB1"></path>
            <path d="M49.0259,19.6389 C49.0259,21.9979 49.3939,22.5169 50.8659,22.5169 C52.1869,22.5169 52.5319,21.9979 52.5319,19.6389 C52.5319,17.2579 52.1869,16.7169 50.8659,16.7169 C49.3939,16.7169 49.0259,17.2579 49.0259,19.6389 M56.6449,19.6389 C56.6449,23.7729 55.0869,25.2669 50.8659,25.2669 C46.5149,25.2669 44.9139,23.7729 44.9139,19.6389 C44.9139,15.4829 46.5149,13.9459 50.8659,13.9459 C55.0869,13.9459 56.6449,15.4829 56.6449,19.6389" id="Fill-3" fill="#008AB1"></path>
            <path d="M64.5835,16.695 L63.3065,16.695 C62.0935,16.695 61.7045,16.976 61.7045,17.972 C61.7045,18.967 62.1375,19.379 63.3065,19.379 C64.4965,19.379 64.8645,18.946 64.8645,17.951 C64.8645,17.344 64.7565,16.955 64.5835,16.695 Z M68.2845,16.695 C68.6955,17.106 68.8045,17.626 68.8045,18.145 C68.8045,20.418 67.1375,21.609 63.2845,21.609 C62.7435,21.609 61.8325,21.544 61.8125,21.544 C61.5915,21.543 61.5445,21.671 61.5295,21.721 C61.3785,22.236 61.7925,22.313 62.8545,22.498 L65.9035,22.95 C68.4375,23.339 69.0635,24.53 69.0635,26.025 C69.0635,27.973 68.0035,29.401 63.1765,29.401 C61.4885,29.401 59.6045,29.206 58.0255,28.946 L58.0255,26.306 C59.9295,26.457 61.4415,26.586 63.2165,26.586 C64.6665,26.586 65.2135,26.542 65.2135,26.002 C65.2355,25.569 64.7235,25.441 63.5905,25.254 L60.7955,24.813 C58.9775,24.487 58.4365,23.448 58.4795,22.453 C58.5005,21.847 58.8035,21.262 59.3235,20.894 C58.1765,20.288 57.6565,19.293 57.6565,17.885 C57.6565,15.071 59.7135,14.249 63.3275,14.249 L70.0385,14.249 L70.0385,16.695 L68.2845,16.695 Z" id="Fill-5" fill="#008AB1"></path>
            <polygon id="Fill-7" fill="#008AB1" points="81.6426 25.007 71.2956 25.007 71.2956 22.344 77.1186 16.89 74.2836 16.89 74.1106 18.21 71.4696 18.21 71.4696 14.249 81.5346 14.249 81.5346 16.89 75.7546 22.344 78.6776 22.366 78.8506 21.046 81.6426 21.046"></polygon>
            <path d="M85.4942,21.3273 C86.5332,21.3273 86.8572,21.6523 86.8572,22.6913 L86.8572,23.6433 C86.8572,24.6813 86.5332,25.0073 85.4942,25.0073 L84.5632,25.0073 C83.5242,25.0073 83.2002,24.6813 83.2002,23.6433 L83.2002,22.6913 C83.2002,21.6523 83.5242,21.3273 84.5632,21.3273 L85.4942,21.3273 Z" id="Fill-9" fill="#008AB1"></path>
            <path d="M90.71,12.8425 C89.952,12.8425 89.584,12.4745 89.584,11.6955 L89.584,10.5695 C89.584,9.7905 89.952,9.4005 90.71,9.4005 L92.419,9.4005 C93.177,9.4005 93.567,9.7905 93.567,10.5695 L93.567,11.6955 C93.567,12.4745 93.177,12.8425 92.419,12.8425 L90.71,12.8425 Z M94.757,25.0075 L88.372,25.0075 L88.372,22.2585 L89.606,22.1275 L89.606,17.1275 L88.372,16.9985 L88.372,14.2495 L93.524,14.2495 L93.524,22.1275 L94.757,22.2585 L94.757,25.0075 Z" id="Fill-11" fill="#008AB1"></path>
            <g id="Group-15" transform="translate(95.000000, 13.000000)">
                <mask id="mask-2" fill="white">
                    <use xlink:href="#path-1"></use>
                </mask>
                <g id="Clip-14"></g>
                <path d="M4.8652,6.6389 C4.8652,8.9979 5.2332,9.5169 6.7052,9.5169 C8.0262,9.5169 8.3712,8.9979 8.3712,6.6389 C8.3712,4.2579 8.0262,3.7169 6.7052,3.7169 C5.2332,3.7169 4.8652,4.2579 4.8652,6.6389 M12.4852,6.6389 C12.4852,10.7729 10.9262,12.2669 6.7052,12.2669 C2.3552,12.2669 0.7522,10.7729 0.7522,6.6389 C0.7522,2.4829 2.3552,0.9459 6.7052,0.9459 C10.9262,0.9459 12.4852,2.4829 12.4852,6.6389" id="Fill-13" fill="#008AB1" mask="url(#mask-2)"></path>
            </g>
            <g id="Group-18">
                <mask id="mask-4" fill="white">
                    <use xlink:href="#path-3"></use>
                </mask>
                <g id="Clip-17"></g>
                <path d="M1.479,25.3342 L1.479,19.1752 L14.827,26.7672 C15.019,26.8782 15.242,26.9372 15.473,26.9372 C15.704,26.9372 15.927,26.8782 16.118,26.7672 L23.175,22.6932 C23.271,22.6382 23.358,22.5702 23.443,22.4862 C23.484,22.4452 23.521,22.4002 23.558,22.3472 C23.729,22.1192 23.821,21.8512 23.821,21.5752 L23.821,13.4242 C23.82,12.9662 23.574,12.5382 23.176,12.3072 L16.117,8.2322 C15.926,8.1222 15.703,8.0632 15.473,8.0632 C15.243,8.0632 15.02,8.1222 14.828,8.2322 L7.786,12.2982 L2.182,9.0152 L15.26,1.4642 C15.32,1.4292 15.386,1.4112 15.48,1.4082 C15.553,1.4102 15.624,1.4292 15.685,1.4642 L29.253,9.2982 C29.385,9.3742 29.466,9.5152 29.466,9.6662 L29.466,25.3342 C29.466,25.4212 29.438,25.5072 29.385,25.5812 C29.368,25.6052 29.349,25.6252 29.319,25.6512 C29.294,25.6752 29.272,25.6902 29.254,25.7012 L15.686,33.5352 C15.622,33.5712 15.549,33.5912 15.473,33.5912 C15.397,33.5912 15.323,33.5712 15.26,33.5362 L1.691,25.7022 C1.672,25.6902 1.65,25.6742 1.617,25.6452 C1.529,25.5632 1.479,25.4502 1.479,25.3342 Z M22.414,14.3552 L22.415,21.5052 L16.144,25.1402 L16.144,17.8982 L22.414,14.3552 Z M15.458,9.4772 L21.768,13.1042 L15.305,16.7552 L9.174,13.1202 L15.458,9.4772 Z M30.873,9.6662 C30.873,9.0142 30.522,8.4062 29.958,8.0802 L16.389,0.2462 C16.128,0.0952 15.84,0.0132 15.531,0.0022 L15.472,0.0002 C15.15,0.0002 14.834,0.0852 14.557,0.2452 L0.989,8.0792 C0.713,8.2372 0.482,8.4672 0.322,8.7422 L0.012,9.2742 C-0.012,9.3152 0.001,9.3692 0.043,9.3932 L14.736,18.0532 L14.736,25.0962 L0.202,16.8302 C0.188,16.8232 0.174,16.8182 0.159,16.8182 C0.144,16.8182 0.129,16.8232 0.115,16.8312 C0.088,16.8462 0.072,16.8752 0.072,16.9062 L0.072,25.3352 C0.072,25.8422 0.287,26.3302 0.661,26.6782 L0.693,26.7062 C0.792,26.7932 0.887,26.8632 0.987,26.9212 L14.557,34.7552 C14.835,34.9152 15.152,35.0002 15.473,35.0002 C15.793,35.0002 16.11,34.9152 16.389,34.7552 L29.957,26.9212 C30.056,26.8632 30.152,26.7942 30.25,26.7082 L30.286,26.6752 C30.375,26.5922 30.457,26.5002 30.528,26.4022 C30.754,26.0872 30.874,25.7182 30.874,25.3342 L30.873,9.6662 Z" id="Fill-16" fill="#008AB1" mask="url(#mask-4)"></path>
            </g>
        </g>
    </g>
</svg>