<svg width="37" height="59" viewBox="0 0 37 59" xmlns="http://www.w3.org/2000/svg"><path d="M36.936 57.886h-2.105V16.454h-2.105v-5.047h-2.233L27.048 7.67V.262h-.829v7.605l-3.317 3.605h-2.233v5.048h-2.105v19.47h-2.17v-4.654h-2.232l-3.445-3.737V20.19h-.83v7.539l-3.316 3.606H4.338v4.654H2.169v21.961H.064v.787H36.936v-.852zm-6.188-38.678h1.786V56.64h-1.786V19.208zm-4.976 0h1.787V56.64h-1.787V19.208zm-4.912 0h1.787V56.64H20.86V19.208zm-6.507 30.549V44.38h1.914v5.376h-1.914zm1.914 1.31v5.376h-1.914v-5.375h1.914zm-1.914-7.997v-5.376h1.914v5.376h-1.914zm-4.975 6.687V44.38h1.913v5.376H9.378zm1.913 1.31v5.376H9.378v-5.375h1.913zM9.378 43.07v-5.376h1.913v5.376H9.378zm-4.912 6.687V44.38h1.913v5.376H4.466zm1.913 1.31v5.376H4.466v-5.375h1.913zM4.466 43.07v-5.376h1.913v5.376H4.466z" fill="#FFF" fill-rule="evenodd"/></svg>
