<svg width="10" height="14" viewBox="0 0 10 14" xmlns="http://www.w3.org/2000/svg"><path d="M7.333 0H2.4C1.443 0 .667.747.667 1.67v10.66c0 .922.776 1.67 1.733 1.67h4.933c.957 0 1.734-.748 1.734-1.67V1.67C9.067.747 8.29 0 7.333 0zM4.867 13.412c-.45 0-.815-.351-.815-.784 0-.434.365-.785.815-.785.45 0 .814.351.814.785 0 .433-.364.784-.814.784zm3.354-3.46c0 .554-.465 1.002-1.04 1.002H2.552c-.574 0-1.04-.448-1.04-1.002V1.915c0-.553.466-1.001 1.04-1.001h4.629c.575 0 1.04.448 1.04 1.001v8.037z" fill="#FFF" fill-rule="nonzero"/></svg>
